SplineFontDB: 3.0
FontName: Muli
FullName: Muli
FamilyName: Muli
Weight: Regular
Copyright: Digitized data Copyright (c) 2011-2014, vernon adams.
Version: 2
ItalicAngle: 0
UnderlinePosition: 0
UnderlineWidth: 0
Ascent: 800
Descent: 200
UFOAscent: 761.719
UFODescent: -271.484
LayerCount: 2
Layer: 0 0 "Back"  1
Layer: 1 0 "Fore"  0
OS2Version: 0
OS2_WeightWidthSlopeOnly: 0
OS2_UseTypoMetrics: 0
CreationTime: 1395087776
ModificationTime: 1395087807
PfmFamily: 0
TTFWeight: 400
TTFWidth: 5
LineGap: 0
VLineGap: 0
OS2TypoAscent: 1178
OS2TypoAOffset: 0
OS2TypoDescent: -296
OS2TypoDOffset: 0
OS2TypoLinegap: 0
OS2WinAscent: 1178
OS2WinAOffset: 0
OS2WinDescent: 296
OS2WinDOffset: 0
HheadAscent: 1178
HheadAOffset: 0
HheadDescent: -296
HheadDOffset: 0
OS2Vendor: 'NeWT'
Lookup: 258 0 0 "'kern' Horizontal Kerning in Latin lookup 0"  {"'kern' Horizontal Kerning in Latin lookup 0 subtable"  } ['kern' ('latn' <'dflt' > ) ]
MarkAttachClasses: 1
DEI: 91125
LangName: 1033 "" "" "" "" "" "Version 2" "" "Muli is a trademark of Vernon Adams and may be registered in certain jurisdictions." "newtypography" "Vernon Adams" "" "newtypography.co.uk" "newtypography.co.uk" "Copyright (c) 2014, vernon adams.+AAoACgAA-This Font Software is licensed under the SIL Open Font License, Version 1.1.+AAoA-This license is available with a FAQ at:+AAoA-http://scripts.sil.org/OFL+AAoA" "http://scripts.sil.org/OFL" "" "Muli" "Regular" 
PickledData: "(dp1
S'com.typemytype.robofont.foreground.layerStrokeColor'
p2
(F0.5
F0
F0.5
F0.69999999999999996
tp3
sS'com.schriftgestaltung.fontMasterID'
p4
S'CAA31E91-2985-420A-82BA-6B4D8404D924'
p5
sS'GSDimensionPlugin.Dimensions'
p6
(dp7
S'CAA31E91-2985-420A-82BA-6B4D8404D924'
p8
(dp9
ssS'com.superpolator.editor.generateInfo'
p10
S'Generated with LTR Superpolator version 120823_1018_beta_'
p11
sS'com.typemytype.robofont.b.layerStrokeColor'
p12
(F1
F0.75
F0
F0.69999999999999996
tp13
sS'com.schriftgestaltung.useNiceNames'
p14
I01
sS'com.typemytype.robofont.layerOrder'
p15

StartChar: A
Encoding: 65 65 0
Width: 683
VWidth: 0
Flags: HW
PickledData: "(dp1
S'org.robofab.postScriptHintData'
p2
(dp3
sS'com.typemytype.robofont.layerData'
p4
(dp5
s."
AnchorPoint: "top" 341 711 basechar 0
LayerCount: 2
Fore
SplineSet
214 266 m 257
 465 266 l 257
 424 382 382 498 340 613 c 257
 298 497 256 382 214 266 c 257
15 0 m 257
 291 711 l 257
 391 711 l 257
 668 0 l 257
 566 0 l 257
 493 190 l 257
 188 190 l 257
 117 0 l 257
 15 0 l 257
EndSplineSet
EndChar

StartChar: AE
Encoding: 198 198 1
Width: 1006
VWidth: 0
Flags: HW
PickledData: "(dp1
S'org.robofab.postScriptHintData'
p2
(dp3
sS'com.typemytype.robofont.layerData'
p4
(dp5
S'b'
(dp6
S'name'
p7
S'AE'
p8
sS'lib'
p9
(dp10
sS'unicodes'
p11
(tsS'width'
p12
F2073.5500000000002
sS'contours'
p13
(tsS'components'
p14
(tsS'anchors'
p15
(tsss."
AnchorPoint: "top" 659 711 basechar 0
LayerCount: 2
Fore
SplineSet
267 268 m 257
 522 268 l 257
 495 630 l 257
 472 630 l 257
 267 268 l 257
12 0 m 257
 424 711 l 257
 921 711 l 257
 921 630 l 257
 585 630 l 257
 604 405 l 257
 906 405 l 257
 906 328 l 257
 612 328 l 257
 634 80 l 257
 934 80 l 257
 934 0 l 257
 546 0 l 257
 529 196 l 257
 230 196 l 257
 119 0 l 257
 12 0 l 257
EndSplineSet
EndChar

StartChar: B
Encoding: 66 66 18
Width: 662
VWidth: 0
Flags: HW
PickledData: "(dp1
S'org.robofab.postScriptHintData'
p2
(dp3
sS'com.typemytype.robofont.layerData'
p4
(dp5
S'b'
(dp6
S'name'
p7
S'B'
sS'lib'
p8
(dp9
sS'unicodes'
p10
(tsS'width'
p11
F1346.45
sS'contours'
p12
(tsS'components'
p13
(tsS'anchors'
p14
(tsss."
AnchorPoint: "top" 316 711 basechar 0
LayerCount: 2
Fore
SplineSet
192 410 m 257
 315 410 l 258
 404 410 473 438 473 526 c 256
 473 611 407 632 300 632 c 258
 192 632 l 257
 192 410 l 257
192 80 m 257
 336 80 l 258
 446 80 506 124 506 205 c 256
 506 301 454 333 323 333 c 258
 192 333 l 257
 192 80 l 257
99 0 m 257
 99 711 l 257
 287 711 l 258
 423 711 571 689 571 538 c 256
 571 461 534 401 454 379 c 257
 550 362 605 297 605 202 c 256
 605 91 521 0 351 0 c 258
 99 0 l 257
EndSplineSet
EndChar

StartChar: C
Encoding: 67 67 20
Width: 683
VWidth: 0
Flags: HW
PickledData: "(dp1
S'org.robofab.postScriptHintData'
p2
(dp3
sS'com.typemytype.robofont.guides'
p4
(tsS'com.typemytype.robofont.layerData'
p5
(dp6
S'b'
(dp7
S'name'
p8
S'C'
sS'lib'
p9
(dp10
sS'unicodes'
p11
(tsS'width'
p12
F1394.1500000000001
sS'contours'
p13
((dp14
S'points'
p15
((dp16
S'segmentType'
p17
S'curve'
p18
sS'x'
F785
sS'smooth'
p19
I01
sS'y'
F-23
s(dp20
S'y'
F-23
sS'x'
F346
sg19
I00
s(dp21
S'y'
F309
sS'x'
F108
sg19
I00
s(dp22
g17
S'curve'
p23
sS'x'
F108
sg19
I01
sS'y'
F713
s(dp24
S'y'
F1125
sS'x'
F108
sg19
I00
s(dp25
S'y'
F1483
sS'x'
F371
sg19
I00
s(dp26
g17
S'curve'
p27
sS'x'
F814
sg19
I01
sS'y'
F1483
s(dp28
S'y'
F1483
sS'x'
F995
sg19
I00
s(dp29
S'y'
F1437
sS'x'
F1144
sg19
I00
s(dp30
g17
S'curve'
p31
sS'x'
F1265
sg19
I00
sS'y'
F1329
s(dp32
g17
S'line'
p33
sS'x'
F1200
sg19
I00
sS'y'
F1219
s(dp34
S'y'
F1295
sS'x'
F1099
sg19
I00
s(dp35
S'y'
F1334
sS'x'
F969
sg19
I00
s(dp36
g17
S'curve'
p37
sS'x'
F833
sg19
I01
sS'y'
F1334
s(dp38
S'y'
F1334
sS'x'
F464
sg19
I00
s(dp39
S'y'
F1022
sS'x'
F291
sg19
I00
s(dp40
g17
S'curve'
p41
sS'x'
F291
sg19
I01
sS'y'
F712
s(dp42
S'y'
F398
sS'x'
F291
sg19
I00
s(dp43
S'y'
F125
sS'x'
F453
sg19
I00
s(dp44
g17
S'curve'
p45
sS'x'
F811
sg19
I01
sS'y'
F125
s(dp46
S'y'
F125
sS'x'
F974
sg19
I00
s(dp47
S'y'
F172
sS'x'
F1134
sg19
I00
s(dp48
g17
S'curve'
p49
sS'x'
F1243
sg19
I00
sS'y'
F268
s(dp50
g17
S'line'
p51
sS'x'
F1301
sg19
I00
sS'y'
F127
s(dp52
S'y'
F28
sS'x'
F1178
sg19
I00
s(dp53
S'y'
F-23
sS'x'
F996
sg19
I00
stp54
stp55
sS'components'
p56
(tsS'anchors'
p57
(tsss."
AnchorPoint: "top" 398 711 basechar 0
LayerCount: 2
Fore
SplineSet
402 -11 m 256
 215 -11 52 115 52 350 c 256
 52 576 202 724 399 724 c 256
 483 724 559 703 623 650 c 257
 585 587 l 257
 529 629 469 645 406 645 c 256
 250 645 150 518 150 351 c 256
 150 176 258 68 407 68 c 256
 475 68 543 89 608 138 c 257
 639 64 l 257
 568 12 486 -11 402 -11 c 256
EndSplineSet
EndChar

StartChar: D
Encoding: 68 68 27
Width: 751
VWidth: 0
Flags: HW
PickledData: "(dp1
S'org.robofab.postScriptHintData'
p2
(dp3
sS'com.typemytype.robofont.layerData'
p4
(dp5
S'b'
(dp6
S'name'
p7
S'D'
sS'lib'
p8
(dp9
sS'unicodes'
p10
(tsS'width'
p11
F1526.5999999999999
sS'contours'
p12
(tsS'components'
p13
(tsS'anchors'
p14
(tsss."
AnchorPoint: "top" 340 711 basechar 0
LayerCount: 2
Fore
SplineSet
99 0 m 257
 99 711 l 257
 273 711 l 258
 541 711 697 602 697 354 c 256
 697 128 559 0 305 0 c 258
 99 0 l 257
192 79 m 257
 310 79 l 258
 503 79 599 181 599 354 c 256
 599 544 495 632 282 632 c 258
 192 632 l 257
 192 79 l 257
EndSplineSet
EndChar

StartChar: uni007F
Encoding: 127 127 28
Width: 742
VWidth: 0
Flags: HW
PickledData: "(dp1
S'org.robofab.postScriptHintData'
p2
(dp3
s."
LayerCount: 2
Fore
SplineSet
92 0 m 257
 92 711 l 257
 651 711 l 257
 651 0 l 257
 92 0 l 257
176 61 m 257
 567 61 l 257
 567 649 l 257
 176 649 l 257
 176 61 l 257
EndSplineSet
EndChar

StartChar: uni0394
Encoding: 916 916 32
Width: 637
VWidth: 0
Flags: HW
PickledData: "(dp1
S'org.robofab.postScriptHintData'
p2
(dp3
s."
LayerCount: 2
Fore
SplineSet
124 69 m 257
 511 69 l 257
 321 604 l 257
 124 69 l 257
27 0 m 257
 27 41 l 257
 285 710 l 257
 360 710 l 257
 610 41 l 257
 610 0 l 257
 27 0 l 257
EndSplineSet
EndChar

StartChar: E
Encoding: 69 69 35
Width: 587
VWidth: 0
Flags: HW
PickledData: "(dp1
S'org.robofab.postScriptHintData'
p2
(dp3
sS'com.typemytype.robofont.layerData'
p4
(dp5
s."
AnchorPoint: "top" 315 711 basechar 0
LayerCount: 2
Fore
SplineSet
99 0 m 257
 99 711 l 257
 524 711 l 257
 524 632 l 257
 192 632 l 257
 192 409 l 257
 506 409 l 257
 506 330 l 257
 192 330 l 257
 192 79 l 257
 539 79 l 257
 539 0 l 257
 99 0 l 257
EndSplineSet
EndChar

StartChar: Eng
Encoding: 330 330 46
Width: 766
VWidth: 0
Flags: HW
PickledData: "(dp1
S'org.robofab.postScriptHintData'
p2
(dp3
sS'com.typemytype.robofont.layerData'
p4
(dp5
s."
LayerCount: 2
Fore
SplineSet
679 711 m 257
 679 27 l 257
 679 -127 616 -213 451 -213 c 257
 451 -141 l 257
 538 -141 588 -105 588 -14 c 258
 588 27 l 257
 237 510 l 257
 188 586 l 257
 188 0 l 257
 98 0 l 257
 98 711 l 257
 199 711 l 257
 536 238 l 257
 588 160 l 257
 588 711 l 257
 679 711 l 257
EndSplineSet
EndChar

StartChar: Euro
Encoding: 8364 8364 50
Width: 722
VWidth: 0
Flags: HW
PickledData: "(dp1
S'org.robofab.postScriptHintData'
p2
(dp3
sS'com.typemytype.robofont.layerData'
p4
(dp5
S'b'
(dp6
S'name'
p7
S'Euro'
p8
sS'lib'
p9
(dp10
sS'unicodes'
p11
(tsS'width'
p12
I1190
sS'contours'
p13
(tsS'components'
p14
(tsS'anchors'
p15
(tsss."
LayerCount: 2
Fore
SplineSet
447 -11 m 256
 531 -11 613 12 684 64 c 257
 653 138 l 257
 588 89 520 68 452 68 c 256
 332 68 239 137 207 255 c 257
 442 255 l 257
 445 306 l 257
 198 306 l 257
 196 320 195 336 195 351 c 256
 195 371 197 390 200 409 c 257
 459 409 l 257
 463 463 l 257
 212 463 l 257
 247 571 333 645 451 645 c 256
 514 645 574 629 630 587 c 257
 667 650 l 257
 603 703 528 724 444 724 c 256
 282 724 152 624 111 463 c 257
 17 463 l 257
 14 409 l 257
 101 409 l 257
 99 390 97 371 97 350 c 256
 97 335 98 320 99 306 c 257
 17 306 l 257
 15 255 l 257
 107 255 l 257
 145 81 287 -11 447 -11 c 256
EndSplineSet
EndChar

StartChar: F
Encoding: 70 70 51
Width: 545
VWidth: 0
Flags: HW
PickledData: "(dp1
S'org.robofab.postScriptHintData'
p2
(dp3
sS'com.typemytype.robofont.layerData'
p4
(dp5
s."
AnchorPoint: "top" 312 711 basechar 0
LayerCount: 2
Fore
SplineSet
99 0 m 257
 99 711 l 257
 509 711 l 257
 509 632 l 257
 192 632 l 257
 192 409 l 257
 487 409 l 257
 487 330 l 257
 192 330 l 257
 192 0 l 257
 99 0 l 257
EndSplineSet
EndChar

StartChar: G
Encoding: 71 71 53
Width: 745
VWidth: 0
Flags: HW
PickledData: "(dp1
S'org.robofab.postScriptHintData'
p2
(dp3
sS'com.typemytype.robofont.layerData'
p4
(dp5
S'b'
(dp6
S'name'
p7
S'G'
sS'lib'
p8
(dp9
sS'unicodes'
p10
(tsS'width'
p11
F1528.2
sS'contours'
p12
((dp13
S'points'
p14
((dp15
S'segmentType'
p16
S'curve'
p17
sS'x'
F841
sS'smooth'
p18
I01
sS'y'
F-23
s(dp19
S'y'
F-23
sS'x'
F361
sg18
I00
s(dp20
S'y'
F267
sS'x'
F108
sg18
I00
s(dp21
g16
S'curve'
p22
sS'x'
F108
sg18
I01
sS'y'
F701
s(dp23
S'y'
F1129
sS'x'
F108
sg18
I00
s(dp24
S'y'
F1483
sS'x'
F382
sg18
I00
s(dp25
g16
S'curve'
p26
sS'x'
F852
sg18
I01
sS'y'
F1483
s(dp27
S'y'
F1483
sS'x'
F1059
sg18
I00
s(dp28
S'y'
F1415
sS'x'
F1233
sg18
I00
s(dp29
g16
S'curve'
p30
sS'x'
F1334
sg18
I00
sS'y'
F1308
s(dp31
g16
S'line'
p32
sS'x'
F1262
sg18
I00
sS'y'
F1196
s(dp33
S'y'
F1291
sS'x'
F1164
sg18
I00
s(dp34
S'y'
F1334
sS'x'
F1034
sg18
I00
s(dp35
g16
S'curve'
p36
sS'x'
F848
sg18
I01
sS'y'
F1334
s(dp37
S'y'
F1334
sS'x'
F477
sg18
I00
s(dp38
S'y'
F1033
sS'x'
F286
sg18
I00
s(dp39
g16
S'curve'
p40
sS'x'
F286
sg18
I01
sS'y'
F714
s(dp41
S'y'
F365
sS'x'
F286
sg18
I00
s(dp42
S'y'
F125
sS'x'
F472
sg18
I00
s(dp43
g16
S'curve'
p44
sS'x'
F855
sg18
I01
sS'y'
F125
s(dp45
S'y'
F125
sS'x'
F968
sg18
I00
s(dp46
S'y'
F143
sS'x'
F1088
sg18
I00
s(dp47
g16
S'curve'
p48
sS'x'
F1184
sg18
I00
sS'y'
F182
s(dp49
g16
S'line'
p50
sS'x'
F1184
sg18
I00
sS'y'
F608
s(dp51
g16
S'line'
p52
sS'x'
F811
sg18
I00
sS'y'
F608
s(dp53
g16
S'line'
p54
sS'x'
F811
sg18
I00
sS'y'
F757
s(dp55
g16
S'line'
p56
sS'x'
F1356
sg18
I00
sS'y'
F757
s(dp57
g16
S'line'
p58
sS'x'
F1356
sg18
I00
sS'y'
F81
s(dp59
S'y'
F6
sS'x'
F1195
sg18
I00
s(dp60
S'y'
F-23
sS'x'
F1012
sg18
I00
stp61
stp62
sS'components'
p63
(tsS'anchors'
p64
(tsss."
AnchorPoint: "top" 407 711 basechar 0
LayerCount: 2
Fore
SplineSet
412 -11 m 256
 179 -11 53 130 53 344 c 256
 53 565 202 724 420 724 c 256
 514 724 591 699 654 652 c 257
 617 587 l 257
 560 626 496 645 422 645 c 256
 256 645 149 519 149 348 c 256
 149 182 238 68 416 68 c 256
 467 68 526 76 571 93 c 257
 571 294 l 257
 392 294 l 257
 392 374 l 257
 664 374 l 257
 664 41 l 257
 583 4 495 -11 412 -11 c 256
EndSplineSet
EndChar

StartChar: H
Encoding: 72 72 60
Width: 761
VWidth: 0
Flags: HW
PickledData: "(dp1
S'org.robofab.postScriptHintData'
p2
(dp3
sS'com.typemytype.robofont.layerData'
p4
(dp5
S'b'
(dp6
S'name'
p7
S'H'
sS'lib'
p8
(dp9
sS'unicodes'
p10
(tsS'width'
p11
F1576.45
sS'contours'
p12
(tsS'components'
p13
(tsS'anchors'
p14
(tsss."
AnchorPoint: "top" 381 711 basechar 0
LayerCount: 2
Fore
SplineSet
99 0 m 257
 99 711 l 257
 192 711 l 257
 192 404 l 257
 570 404 l 257
 570 711 l 257
 663 711 l 257
 663 0 l 257
 570 0 l 257
 570 325 l 257
 192 325 l 257
 192 0 l 257
 99 0 l 257
EndSplineSet
EndChar

StartChar: Hbar
Encoding: 294 294 61
Width: 764
VWidth: 0
Flags: HW
PickledData: "(dp1
S'org.robofab.postScriptHintData'
p2
(dp3
sS'com.typemytype.robofont.layerData'
p4
(dp5
S'b'
(dp6
S'name'
p7
S'Hbar'
p8
sS'lib'
p9
(dp10
sS'unicodes'
p11
(tsS'width'
p12
F1532.55
sS'contours'
p13
(tsS'components'
p14
(tsS'anchors'
p15
(tsss."
LayerCount: 2
Fore
SplineSet
48 567 m 257
 47 620 l 257
 714 620 l 257
 714 567 l 257
 48 567 l 257
EndSplineSet
Refer: 60 72 N 1 0 0 1 0 0 2
EndChar

StartChar: I
Encoding: 73 73 63
Width: 293
VWidth: 0
Flags: HW
PickledData: "(dp1
S'org.robofab.postScriptHintData'
p2
(dp3
sS'com.typemytype.robofont.layerData'
p4
(dp5
s."
AnchorPoint: "top" 157 711 basechar 0
LayerCount: 2
Fore
SplineSet
106 0 m 257
 106 711 l 257
 200 711 l 257
 200 0 l 257
 106 0 l 257
EndSplineSet
EndChar

StartChar: J
Encoding: 74 74 77
Width: 383
VWidth: 0
Flags: HW
PickledData: "(dp1
S'org.robofab.postScriptHintData'
p2
(dp3
sS'com.typemytype.robofont.layerData'
p4
(dp5
S'b'
(dp6
S'name'
p7
S'J'
sS'lib'
p8
(dp9
sS'unicodes'
p10
(tsS'width'
p11
F731.54999999999995
sS'contours'
p12
(tsS'components'
p13
(tsS'anchors'
p14
(tsss."
AnchorPoint: "top" 238 711 basechar 0
LayerCount: 2
Fore
SplineSet
112 -159 m 256
 70 -159 28 -149 -3 -139 c 257
 10 -65 l 257
 35 -72 68 -81 100 -81 c 256
 175 -81 194 -38 194 59 c 258
 194 711 l 257
 287 711 l 257
 287 59 l 258
 287 -94 226 -159 112 -159 c 256
EndSplineSet
EndChar

StartChar: K
Encoding: 75 75 79
Width: 632
VWidth: 0
Flags: HW
PickledData: "(dp1
S'org.robofab.postScriptHintData'
p2
(dp3
sS'com.typemytype.robofont.layerData'
p4
(dp5
S'b'
(dp6
S'name'
p7
S'K'
sS'lib'
p8
(dp9
sS'unicodes'
p10
(tsS'width'
p11
F1289.95
sS'contours'
p12
(tsS'components'
p13
(tsS'anchors'
p14
(tsss."
AnchorPoint: "top" 328 711 basechar 0
LayerCount: 2
Fore
SplineSet
99 0 m 257
 99 711 l 257
 192 711 l 257
 192 391 l 257
 498 711 l 257
 614 711 l 257
 285 369 l 257
 637 0 l 257
 519 0 l 257
 192 338 l 257
 192 0 l 257
 99 0 l 257
EndSplineSet
EndChar

StartChar: L
Encoding: 76 76 82
Width: 541
VWidth: 0
Flags: HW
PickledData: "(dp1
S'org.robofab.postScriptHintData'
p2
(dp3
sS'com.typemytype.robofont.layerData'
p4
(dp5
s."
AnchorPoint: "caron.alt" 153 501 basechar 0
AnchorPoint: "top" 152 711 basechar 0
LayerCount: 2
Fore
SplineSet
99 0 m 257
 99 711 l 257
 192 711 l 257
 192 79 l 257
 522 79 l 257
 522 0 l 257
 99 0 l 257
EndSplineSet
EndChar

StartChar: Lslash
Encoding: 321 321 88
Width: 552
VWidth: 0
Flags: HW
PickledData: "(dp1
S'org.robofab.postScriptHintData'
p2
(dp3
sS'com.typemytype.robofont.layerData'
p4
(dp5
s."
LayerCount: 2
Fore
SplineSet
25 230 m 257
 25 308 l 257
 336 507 l 257
 336 429 l 257
 25 230 l 257
EndSplineSet
Refer: 82 76 N 1 0 0 1 0 0 2
EndChar

StartChar: M
Encoding: 77 77 89
Width: 938
VWidth: 0
Flags: HW
PickledData: "(dp1
S'org.robofab.postScriptHintData'
p2
(dp3
sS'com.typemytype.robofont.layerData'
p4
(dp5
S'b'
(dp6
S'name'
p7
S'M'
sS'lib'
p8
(dp9
sS'unicodes'
p10
(tsS'width'
p11
F1905.0999999999999
sS'contours'
p12
(tsS'components'
p13
(tsS'anchors'
p14
(tsss."
AnchorPoint: "top" 473 711 basechar 0
LayerCount: 2
Fore
SplineSet
99 0 m 257
 99 711 l 257
 212 711 l 257
 298 514 385 319 470 121 c 257
 555 319 643 514 729 711 c 257
 840 711 l 257
 840 0 l 257
 751 0 l 257
 751 559 l 257
 670 371 586 187 503 0 c 257
 436 0 l 257
 225 475 l 257
 188 563 l 257
 188 0 l 257
 99 0 l 257
EndSplineSet
EndChar

StartChar: N
Encoding: 78 78 91
Width: 780
VWidth: 0
Flags: HW
PickledData: "(dp1
S'org.robofab.postScriptHintData'
p2
(dp3
sS'com.typemytype.robofont.layerData'
p4
(dp5
S'b'
(dp6
S'name'
p7
S'N'
sS'lib'
p8
(dp9
sS'unicodes'
p10
(tsS'width'
p11
F1578.1500000000001
sS'contours'
p12
(tsS'components'
p13
(tsS'anchors'
p14
(tsss."
AnchorPoint: "top" 395 711 basechar 0
LayerCount: 2
Fore
SplineSet
99 0 m 257
 99 711 l 257
 198 711 l 257
 541 211 l 257
 593 128 l 257
 593 711 l 257
 682 711 l 257
 682 0 l 257
 583 0 l 257
 249 481 l 257
 186 579 l 257
 186 0 l 257
 99 0 l 257
EndSplineSet
EndChar

StartChar: O
Encoding: 79 79 98
Width: 793
VWidth: 0
Flags: HW
PickledData: "(dp1
S'org.robofab.postScriptHintData'
p2
(dp3
sS'com.typemytype.robofont.guides'
p4
((dp5
S'y'
I727
sS'x'
I231
sS'magnetic'
p6
I5
sS'angle'
p7
I0
sS'isGlobal'
p8
I00
s(dp9
S'y'
I1254
sS'x'
I804
sg6
I5
sg7
F90
sg8
I00
stp10
sS'com.typemytype.robofont.layerData'
p11
(dp12
S'b'
(dp13
S'name'
p14
S'O'
sS'lib'
p15
(dp16
sS'unicodes'
p17
(tsS'width'
p18
F1630.8
sS'contours'
p19
(tsS'components'
p20
(tsS'anchors'
p21
(tsss."
AnchorPoint: "top" 399 711 basechar 0
LayerCount: 2
Fore
SplineSet
398 -11 m 256
 182 -11 52 133 52 356 c 256
 52 574 181 724 399 724 c 256
 610 724 742 574 742 356 c 256
 742 133 613 -11 398 -11 c 256
397 68 m 256
 559 68 641 182 641 356 c 256
 641 525 560 645 398 645 c 256
 238 645 152 525 152 356 c 256
 152 181 236 68 397 68 c 256
EndSplineSet
EndChar

StartChar: OE
Encoding: 338 338 99
Width: 1000
VWidth: 0
Flags: HW
PickledData: "(dp1
S'org.robofab.postScriptHintData'
p2
(dp3
sS'com.typemytype.robofont.layerData'
p4
(dp5
S'b'
(dp6
S'name'
p7
S'OE'
p8
sS'lib'
p9
(dp10
sS'unicodes'
p11
(tsS'width'
p12
F2049.1500000000001
sS'contours'
p13
(tsS'components'
p14
(tsS'anchors'
p15
(tsss."
LayerCount: 2
Fore
SplineSet
397 64 m 256
 483 64 532 99 552 124 c 257
 552 592 l 257
 526 618 478 644 405 644 c 256
 244 644 152 525 152 354 c 256
 152 188 233 64 397 64 c 256
552 46 m 257
 531 23 469 -11 385 -11 c 256
 181 -11 53 128 53 356 c 256
 53 575 189 724 393 724 c 256
 477 724 531 694 552 674 c 257
 552 711 l 257
 948 711 l 257
 948 630 l 257
 646 630 l 257
 646 405 l 257
 929 405 l 257
 929 324 l 257
 646 324 l 257
 646 81 l 257
 962 81 l 257
 962 0 l 257
 552 0 l 257
 552 46 l 257
EndSplineSet
EndChar

StartChar: uni03A9
Encoding: 937 937 111
Width: 782
VWidth: 0
Flags: HW
PickledData: "(dp1
S'org.robofab.postScriptHintData'
p2
(dp3
sS'com.typemytype.robofont.layerData'
p4
(dp5
s."
LayerCount: 2
Fore
SplineSet
50 0 m 257
 40 70 l 257
 202 70 l 257
 115 139 52 260 52 390 c 256
 52 590 198 718 392 718 c 256
 594 718 721 575 721 387 c 256
 721 253 646 135 568 70 c 257
 721 70 l 257
 713 0 l 257
 454 0 l 257
 454 65 l 257
 552 131 624 251 624 379 c 256
 624 519 545 639 390 639 c 256
 248 639 149 535 149 381 c 256
 149 253 217 130 317 65 c 257
 317 0 l 257
 50 0 l 257
EndSplineSet
EndChar

StartChar: Oslash
Encoding: 216 216 113
Width: 793
VWidth: 0
Flags: HW
PickledData: "(dp1
S'org.robofab.postScriptHintData'
p2
(dp3
sS'com.typemytype.robofont.layerData'
p4
(dp5
S'b'
(dp6
S'name'
p7
S'Oslash'
p8
sS'lib'
p9
(dp10
sS'unicodes'
p11
(tsS'width'
p12
F1663
sS'contours'
p13
(tsS'components'
p14
(tsS'anchors'
p15
(tsss."
LayerCount: 2
Fore
SplineSet
398 -11 m 256
 613 -11 742 133 742 356 c 256
 742 494 689 604 597 667 c 257
 639 745 l 257
 594 768 l 257
 553 692 l 257
 508 713 457 724 399 724 c 256
 181 724 52 574 52 356 c 256
 52 211 107 100 204 40 c 257
 161 -41 l 257
 207 -64 l 257
 250 17 l 257
 293 -1 342 -11 398 -11 c 256
556 590 m 257
 612 539 641 456 641 356 c 256
 641 182 559 68 397 68 c 256
 356 68 320 75 289 89 c 257
 556 590 l 257
514 619 m 257
 245 116 l 257
 184 165 152 249 152 356 c 256
 152 525 238 645 398 645 c 256
 443 645 482 636 514 619 c 257
EndSplineSet
EndChar

StartChar: P
Encoding: 80 80 116
Width: 615
VWidth: 0
Flags: HW
PickledData: "(dp1
S'org.robofab.postScriptHintData'
p2
(dp3
sS'com.typemytype.robofont.layerData'
p4
(dp5
S'b'
(dp6
S'name'
p7
S'P'
sS'lib'
p8
(dp9
sS'unicodes'
p10
(tsS'width'
p11
F1252.6500000000001
sS'contours'
p12
((dp13
S'points'
p14
((dp15
S'segmentType'
p16
S'line'
p17
sS'x'
F360
sS'smooth'
p18
I00
sS'y'
F828
s(dp19
g16
S'line'
p20
sS'x'
F580
sg18
I01
sS'y'
F828
s(dp21
S'y'
F828
sS'x'
F775
sg18
I00
s(dp22
S'y'
F881
sS'x'
F973
sg18
I00
s(dp23
g16
S'curve'
p24
sS'x'
F973
sg18
I01
sS'y'
F1077
s(dp25
S'y'
F1272
sS'x'
F973
sg18
I00
s(dp26
S'y'
F1308
sS'x'
F807
sg18
I00
s(dp27
g16
S'curve'
p28
sS'x'
F592
sg18
I01
sS'y'
F1308
s(dp29
g16
S'line'
p30
sS'x'
F360
sg18
I00
sS'y'
F1308
stp31
s(dp32
g14
((dp33
g16
S'line'
p34
sS'x'
F360
sg18
I00
sS'y'
F148
s(dp35
g16
S'line'
p36
sS'x'
F667
sg18
I01
sS'y'
F148
s(dp37
S'y'
F148
sS'x'
F906
sg18
I00
s(dp38
S'y'
F230
sS'x'
F1041
sg18
I00
s(dp39
g16
S'curve'
p40
sS'x'
F1041
sg18
I01
sS'y'
F406
s(dp41
S'y'
F617
sS'x'
F1041
sg18
I00
s(dp42
S'y'
F680
sS'x'
F889
sg18
I00
s(dp43
g16
S'curve'
p44
sS'x'
F610
sg18
I01
sS'y'
F680
s(dp45
g16
S'line'
p46
sS'x'
F360
sg18
I00
sS'y'
F680
stp47
s(dp48
g14
((dp49
g16
S'line'
p50
sS'x'
F188
sg18
I00
sS'y'
F0
s(dp51
g16
S'line'
p52
sS'x'
F188
sg18
I00
sS'y'
F1456
s(dp53
g16
S'line'
p54
sS'x'
F502
sg18
I01
sS'y'
F1456
s(dp55
S'y'
F1456
sS'x'
F765
sg18
I00
s(dp56
S'y'
F1443
sS'x'
F1154
sg18
I00
s(dp57
g16
S'curve'
p58
sS'x'
F1154
sg18
I01
sS'y'
F1105
s(dp59
S'y'
F944
sS'x'
F1154
sg18
I00
s(dp60
S'y'
F814
sS'x'
F1045
sg18
I00
s(dp61
g16
S'curve'
p62
sS'x'
F889
sg18
I00
sS'y'
F769
s(dp63
S'y'
F734
sS'x'
F1086
sg18
I00
s(dp64
S'y'
F605
sS'x'
F1223
sg18
I00
s(dp65
g16
S'curve'
p66
sS'x'
F1223
sg18
I01
sS'y'
F403
s(dp67
S'y'
F189
sS'x'
F1223
sg18
I00
s(dp68
S'y'
F0
sS'x'
F1059
sg18
I00
s(dp69
g16
S'curve'
p70
sS'x'
F739
sg18
I01
sS'y'
F0
stp71
stp72
sS'components'
p73
(tsS'anchors'
p74
(tsss."
AnchorPoint: "top" 316 711 basechar 0
LayerCount: 2
Fore
SplineSet
192 401 m 257
 321 401 l 258
 428 401 487 427 487 516 c 256
 487 613 426 632 314 632 c 256
 311 632 308 632 305 632 c 258
 192 632 l 257
 192 401 l 257
99 0 m 257
 99 711 l 257
 303 711 l 258
 470 711 582 680 582 516 c 256
 582 370 484 322 323 322 c 258
 192 322 l 257
 192 0 l 257
 99 0 l 257
EndSplineSet
EndChar

StartChar: Q
Encoding: 81 81 118
Width: 793
VWidth: 0
Flags: HW
PickledData: "(dp1
S'org.robofab.postScriptHintData'
p2
(dp3
sS'com.typemytype.robofont.layerData'
p4
(dp5
S'b'
(dp6
S'name'
p7
S'Q'
sS'lib'
p8
(dp9
sS'unicodes'
p10
(tsS'width'
p11
F1628.2
sS'contours'
p12
(tsS'components'
p13
(tsS'anchors'
p14
(tsss."
LayerCount: 2
Fore
SplineSet
397 68 m 256
 559 68 641 182 641 356 c 256
 641 525 560 645 398 645 c 256
 238 645 152 525 152 356 c 256
 152 181 236 68 397 68 c 256
398 -11 m 256
 182 -11 52 133 52 356 c 256
 52 574 181 724 399 724 c 256
 610 724 742 574 742 356 c 256
 742 182 664 57 528 10 c 257
 575 -70 652 -151 652 -151 c 257
 597 -209 l 257
 597 -209 503 -111 445 -8 c 257
 430 -10 414 -11 398 -11 c 256
EndSplineSet
EndChar

StartChar: R
Encoding: 82 82 119
Width: 665
VWidth: 0
Flags: HW
PickledData: "(dp1
S'org.robofab.postScriptHintData'
p2
(dp3
sS'com.typemytype.robofont.guides'
p4
(tsS'com.typemytype.robofont.layerData'
p5
(dp6
S'b'
(dp7
S'name'
p8
S'R'
sS'lib'
p9
(dp10
sS'unicodes'
p11
(tsS'width'
p12
F1341
sS'contours'
p13
((dp14
S'points'
p15
((dp16
S'segmentType'
p17
S'line'
p18
sS'x'
F360
sS'smooth'
p19
I00
sS'y'
F799
s(dp20
g17
S'line'
p21
sS'x'
F615
sg19
I01
sS'y'
F799
s(dp22
S'y'
F799
sS'x'
F795
sg19
I00
s(dp23
S'y'
F854
sS'x'
F932
sg19
I00
s(dp24
g17
S'curve'
p25
sS'x'
F932
sg19
I01
sS'y'
F1058
s(dp26
S'y'
F1259
sS'x'
F932
sg19
I00
s(dp27
S'y'
F1308
sS'x'
F833
sg19
I00
s(dp28
g17
S'curve'
p29
sS'x'
F626
sg19
I01
sS'y'
F1308
s(dp30
g17
S'line'
p31
sS'x'
F360
sg19
I00
sS'y'
F1308
stp32
s(dp33
g15
((dp34
g17
S'line'
p35
sS'x'
F188
sg19
I00
sS'y'
F0
s(dp36
g17
S'line'
p37
sS'x'
F188
sg19
I00
sS'y'
F1456
s(dp38
g17
S'line'
p39
sS'x'
F533
sg19
I01
sS'y'
F1456
s(dp40
S'y'
F1456
sS'x'
F771
sg19
I00
s(dp41
S'y'
F1452
sS'x'
F1114
sg19
I00
s(dp42
g17
S'curve'
p43
sS'x'
F1114
sg19
I01
sS'y'
F1074
s(dp44
S'y'
F890
sS'x'
F1114
sg19
I00
s(dp45
S'y'
F762
sS'x'
F1035
sg19
I00
s(dp46
g17
S'curve'
p47
sS'x'
F847
sg19
I00
sS'y'
F715
s(dp48
g17
S'line'
p49
sS'x'
F848
sg19
I00
sS'y'
F715
s(dp50
S'y'
F662
sS'x'
F1012
sg19
I00
s(dp51
S'y'
F510
sS'x'
F1039
sg19
I00
s(dp52
g17
S'curve'
p53
sS'x'
F1159
sg19
I01
sS'y'
F214
s(dp54
g17
S'line'
p55
sS'x'
F1246
sg19
I00
sS'y'
F0
s(dp56
g17
S'line'
p57
sS'x'
F1061
sg19
I00
sS'y'
F0
s(dp58
g17
S'line'
p59
sS'x'
F896
sg19
I01
sS'y'
F419
s(dp60
S'y'
F600
sS'x'
F825
sg19
I00
s(dp61
S'y'
F652
sS'x'
F797
sg19
I00
s(dp62
g17
S'curve'
p63
sS'x'
F619
sg19
I01
sS'y'
F652
s(dp64
g17
S'line'
p65
sS'x'
F360
sg19
I00
sS'y'
F652
s(dp66
g17
S'line'
p67
sS'x'
F360
sg19
I00
sS'y'
F0
stp68
stp69
sS'components'
p70
(tsS'anchors'
p71
(tsss."
AnchorPoint: "top" 318 711 basechar 0
LayerCount: 2
Fore
SplineSet
191 395 m 257
 324 395 l 258
 411 395 473 424 473 517 c 256
 473 607 428 632 334 632 c 256
 332 632 330 632 328 632 c 258
 191 632 l 257
 191 395 l 257
99 0 m 257
 99 711 l 257
 326 711 l 258
 464 711 570 677 570 522 c 256
 570 437 529 371 432 351 c 257
 490 332 514 285 542 215 c 258
 626 0 l 257
 526 0 l 257
 448 209 l 258
 417 292 398 316 319 316 c 258
 192 316 l 257
 192 0 l 257
 99 0 l 257
EndSplineSet
EndChar

StartChar: S
Encoding: 83 83 125
Width: 592
VWidth: 0
Flags: HW
PickledData: "(dp1
S'org.robofab.postScriptHintData'
p2
(dp3
sS'com.typemytype.robofont.layerData'
p4
(dp5
S'b'
(dp6
S'name'
p7
S'S'
sS'lib'
p8
(dp9
sS'unicodes'
p10
(tsS'width'
p11
F1211
sS'contours'
p12
((dp13
S'points'
p14
((dp15
S'segmentType'
p16
S'curve'
p17
sS'x'
F596
sS'smooth'
p18
I01
sS'y'
F-23
s(dp19
S'y'
F-23
sS'x'
F321
sg18
I00
s(dp20
S'y'
F120
sS'x'
F158
sg18
I00
s(dp21
g16
S'curve'
p22
sS'x'
F140
sg18
I00
sS'y'
F141
s(dp23
g16
S'line'
p24
sS'x'
F219
sg18
I00
sS'y'
F271
s(dp25
S'y'
F243
sS'x'
F256
sg18
I00
s(dp26
S'y'
F125
sS'x'
F393
sg18
I00
s(dp27
g16
S'curve'
p28
sS'x'
F595
sg18
I01
sS'y'
F125
s(dp29
S'y'
F125
sS'x'
F797
sg18
I00
s(dp30
S'y'
F204
sS'x'
F898
sg18
I00
s(dp31
g16
S'curve'
p32
sS'x'
F898
sg18
I01
sS'y'
F360
s(dp33
S'y'
F536
sS'x'
F898
sg18
I00
s(dp34
S'y'
F601
sS'x'
F709
sg18
I00
s(dp35
g16
S'curve'
p36
sS'x'
F521
sg18
I01
sS'y'
F681
s(dp37
S'y'
F761
sS'x'
F333
sg18
I00
s(dp38
S'y'
F857
sS'x'
F145
sg18
I00
s(dp39
g16
S'curve'
p40
sS'x'
F145
sg18
I01
sS'y'
F1095
s(dp41
S'y'
F1350
sS'x'
F145
sg18
I00
s(dp42
S'y'
F1483
sS'x'
F357
sg18
I00
s(dp43
g16
S'curve'
p44
sS'x'
F620
sg18
I01
sS'y'
F1483
s(dp45
S'y'
F1483
sS'x'
F891
sg18
I00
s(dp46
S'y'
F1362
sS'x'
F1009
sg18
I00
s(dp47
g16
S'curve'
p48
sS'x'
F1034
sg18
I00
sS'y'
F1335
s(dp49
g16
S'line'
p50
sS'x'
F951
sg18
I00
sS'y'
F1217
s(dp51
S'y'
F1242
sS'x'
F921
sg18
I00
s(dp52
S'y'
F1334
sS'x'
F819
sg18
I00
s(dp53
g16
S'curve'
p54
sS'x'
F640
sg18
I01
sS'y'
F1334
s(dp55
S'y'
F1334
sS'x'
F478
sg18
I00
s(dp56
S'y'
F1270
sS'x'
F328
sg18
I00
s(dp57
g16
S'curve'
p58
sS'x'
F328
sg18
I01
sS'y'
F1105
s(dp59
S'y'
F934
sS'x'
F328
sg18
I00
s(dp60
S'y'
F868
sS'x'
F515
sg18
I00
s(dp61
g16
S'curve'
p62
sS'x'
F703
sg18
I01
sS'y'
F785
s(dp63
S'y'
F702
sS'x'
F891
sg18
I00
s(dp64
S'y'
F602
sS'x'
F1078
sg18
I00
s(dp65
g16
S'curve'
p66
sS'x'
F1078
sg18
I01
sS'y'
F364
s(dp67
S'y'
F78
sS'x'
F1078
sg18
I00
s(dp68
S'y'
F-23
sS'x'
F868
sg18
I00
stp69
stp70
sS'components'
p71
(tsS'anchors'
p72
(tsss."
AnchorPoint: "top" 304 711 basechar 0
LayerCount: 2
Fore
SplineSet
293 68 m 256
 391 68 440 113 440 190 c 256
 440 255 417 285 304 320 c 256
 295 323 271 330 261 333 c 256
 133 370 65 418 65 536 c 256
 65 660 167 724 301 724 c 256
 432 724 490 679 521 649 c 257
 474 586 l 257
 445 614 387 645 312 645 c 256
 226 645 165 611 165 539 c 256
 165 471 185 448 285 417 c 256
 294 415 316 407 326 405 c 256
 491 356 538 301 538 187 c 256
 538 53 430 -11 297 -11 c 256
 177 -11 91 42 63 69 c 257
 104 137 l 257
 135 112 210 68 293 68 c 256
EndSplineSet
EndChar

StartChar: T
Encoding: 84 84 132
Width: 559
VWidth: 0
Flags: HW
PickledData: "(dp1
S'org.robofab.postScriptHintData'
p2
(dp3
sS'com.typemytype.robofont.layerData'
p4
(dp5
s."
AnchorPoint: "top" 279 711 basechar 0
LayerCount: 2
Fore
SplineSet
232 0 m 257
 232 632 l 257
 5 632 l 257
 5 711 l 257
 554 711 l 257
 554 632 l 257
 325 632 l 257
 325 0 l 257
 232 0 l 257
EndSplineSet
EndChar

StartChar: Thorn
Encoding: 222 222 137
Width: 625
VWidth: 0
Flags: HW
PickledData: "(dp1
S'org.robofab.postScriptHintData'
p2
(dp3
sS'com.typemytype.robofont.layerData'
p4
(dp5
s."
LayerCount: 2
Fore
SplineSet
191 248 m 257
 317 248 l 258
 419 248 488 288 488 379 c 256
 488 487 416 513 298 513 c 258
 191 513 l 257
 191 248 l 257
98 0 m 257
 98 711 l 257
 191 711 l 257
 191 592 l 257
 292 592 l 258
 458 592 588 556 588 379 c 256
 588 230 468 169 313 169 c 258
 191 169 l 257
 191 0 l 257
 98 0 l 257
EndSplineSet
EndChar

StartChar: U
Encoding: 85 85 138
Width: 729
VWidth: 0
Flags: HW
PickledData: "(dp1
S'org.robofab.postScriptHintData'
p2
(dp3
sS'com.typemytype.robofont.layerData'
p4
(dp5
S'b'
(dp6
S'name'
p7
S'U'
sS'lib'
p8
(dp9
sS'unicodes'
p10
(tsS'width'
p11
F1496.9000000000001
sS'contours'
p12
(tsS'components'
p13
(tsS'anchors'
p14
(tsss."
AnchorPoint: "top" 365 711 basechar 0
LayerCount: 2
Fore
SplineSet
363 -11 m 256
 152 -11 83 109 83 273 c 258
 83 711 l 257
 176 711 l 257
 176 271 l 258
 176 130 241 68 364 68 c 256
 483 68 553 130 553 270 c 258
 553 711 l 257
 646 711 l 257
 646 274 l 258
 646 106 568 -11 363 -11 c 256
EndSplineSet
EndChar

StartChar: V
Encoding: 86 86 152
Width: 658
VWidth: 0
Flags: HW
PickledData: "(dp1
S'org.robofab.postScriptHintData'
p2
(dp3
sS'com.typemytype.robofont.layerData'
p4
(dp5
S'b'
(dp6
S'name'
p7
S'V'
sS'lib'
p8
(dp9
sS'unicodes'
p10
(tsS'width'
p11
F1320.1500000000001
sS'contours'
p12
(tsS'components'
p13
(tsS'anchors'
p14
(tsss."
LayerCount: 2
Fore
SplineSet
281 0 m 257
 15 711 l 257
 119 711 l 257
 190 511 260 310 332 111 c 257
 403 312 474 511 545 711 c 257
 644 711 l 257
 379 0 l 257
 281 0 l 257
EndSplineSet
EndChar

StartChar: W
Encoding: 87 87 153
Width: 987
VWidth: 0
Flags: HW
PickledData: "(dp1
S'org.robofab.postScriptHintData'
p2
(dp3
sS'com.typemytype.robofont.layerData'
p4
(dp5
S'b'
(dp6
S'name'
p7
S'W'
sS'lib'
p8
(dp9
sS'unicodes'
p10
(tsS'width'
p11
F1988.8499999999999
sS'contours'
p12
(tsS'components'
p13
(tsS'anchors'
p14
(tsss."
AnchorPoint: "top" 499 711 basechar 0
LayerCount: 2
Fore
SplineSet
215 0 m 257
 21 711 l 257
 121 711 l 257
 246 221 l 257
 272 106 l 257
 327 312 392 509 451 711 c 257
 544 711 l 257
 604 510 666 311 724 107 c 257
 770 311 822 510 871 711 c 257
 967 711 l 257
 778 0 l 257
 669 0 l 257
 496 585 l 257
 322 0 l 257
 215 0 l 257
EndSplineSet
EndChar

StartChar: X
Encoding: 88 88 158
Width: 635
VWidth: 0
Flags: HW
PickledData: "(dp1
S'org.robofab.postScriptHintData'
p2
(dp3
sS'com.typemytype.robofont.layerData'
p4
(dp5
S'b'
(dp6
S'name'
p7
S'X'
sS'lib'
p8
(dp9
sS'unicodes'
p10
(tsS'width'
p11
F1257.7
sS'contours'
p12
(tsS'components'
p13
(tsS'anchors'
p14
(tsss."
LayerCount: 2
Fore
SplineSet
17 0 m 257
 266 361 l 257
 28 711 l 257
 141 711 l 257
 323 438 l 257
 506 711 l 257
 612 711 l 257
 376 365 l 257
 621 0 l 257
 510 0 l 257
 320 288 l 257
 125 0 l 257
 17 0 l 257
EndSplineSet
EndChar

StartChar: Y
Encoding: 89 89 159
Width: 604
VWidth: 0
Flags: HW
PickledData: "(dp1
S'org.robofab.postScriptHintData'
p2
(dp3
sS'com.typemytype.robofont.layerData'
p4
(dp5
S'b'
(dp6
S'name'
p7
S'Y'
sS'lib'
p8
(dp9
sS'unicodes'
p10
(tsS'width'
p11
F1225.45
sS'contours'
p12
(tsS'components'
p13
(tsS'anchors'
p14
(tsss."
AnchorPoint: "top" 312 711 basechar 0
LayerCount: 2
Fore
SplineSet
255 0 m 257
 255 281 l 257
 10 711 l 257
 114 711 l 257
 304 363 l 257
 495 711 l 257
 599 711 l 257
 349 282 l 257
 349 0 l 257
 255 0 l 257
EndSplineSet
EndChar

StartChar: Z
Encoding: 90 90 166
Width: 578
VWidth: 0
Flags: HW
PickledData: "(dp1
S'org.robofab.postScriptHintData'
p2
(dp3
sS'com.typemytype.robofont.layerData'
p4
(dp5
S'b'
(dp6
S'name'
p7
S'Z'
sS'lib'
p8
(dp9
sS'unicodes'
p10
(tsS'width'
p11
F1179.45
sS'contours'
p12
(tsS'components'
p13
(tsS'anchors'
p14
(tsss."
AnchorPoint: "top" 298 711 basechar 0
LayerCount: 2
Fore
SplineSet
47 0 m 257
 47 50 l 257
 408 632 l 257
 62 632 l 257
 62 711 l 257
 533 711 l 257
 533 663 l 257
 169 79 l 257
 531 79 l 257
 531 0 l 257
 47 0 l 257
EndSplineSet
EndChar

StartChar: a
Encoding: 97 97 170
Width: 621
VWidth: 0
Flags: HW
PickledData: "(dp1
S'org.robofab.postScriptHintData'
p2
(dp3
sS'com.typemytype.robofont.layerData'
p4
(dp5
S'b'
(dp6
S'name'
p7
S'a'
sS'lib'
p8
(dp9
sS'unicodes'
p10
(tsS'width'
p11
I1268
sS'contours'
p12
((dp13
S'points'
p14
((dp15
S'segmentType'
p16
S'curve'
p17
sS'x'
F595
sS'smooth'
p18
I01
sS'y'
F-22
s(dp19
S'y'
F-22
sS'x'
F262
sg18
I00
s(dp20
S'y'
F221
sS'x'
F100
sg18
I00
s(dp21
g16
S'curve'
p22
sS'x'
F100
sg18
I01
sS'y'
F518
s(dp23
S'y'
F824
sS'x'
F100
sg18
I00
s(dp24
S'y'
F1052
sS'x'
F287
sg18
I00
s(dp25
g16
S'curve'
p26
sS'x'
F603
sg18
I01
sS'y'
F1052
s(dp27
S'y'
F1052
sS'x'
F816
sg18
I00
s(dp28
S'y'
F903
sS'x'
F905
sg18
I00
s(dp29
g16
S'curve'
p30
sS'x'
F928
sg18
I00
sS'y'
F847
s(dp31
g16
S'line'
p32
sS'x'
F928
sg18
I00
sS'y'
F1026
s(dp33
g16
S'line'
p34
sS'x'
F1092
sg18
I00
sS'y'
F1026
s(dp35
g16
S'line'
p36
sS'x'
F1092
sg18
I00
sS'y'
F0
s(dp37
g16
S'line'
p38
sS'x'
F928
sg18
I00
sS'y'
F0
s(dp39
g16
S'line'
p40
sS'x'
F928
sg18
I00
sS'y'
F185
s(dp41
S'y'
F82
sS'x'
F881
sg18
I00
s(dp42
S'y'
F-22
sS'x'
F769
sg18
I00
stp43
s(dp44
g14
((dp45
g16
S'curve'
p46
sS'x'
F608
sg18
I01
sS'y'
F918
s(dp47
S'y'
F918
sS'x'
F359
sg18
I00
s(dp48
S'y'
F725
sS'x'
F270
sg18
I00
s(dp49
g16
S'curve'
p50
sS'x'
F270
sg18
I01
sS'y'
F516
s(dp51
S'y'
F308
sS'x'
F270
sg18
I00
s(dp52
S'y'
F112
sS'x'
F364
sg18
I00
s(dp53
g16
S'curve'
p54
sS'x'
F609
sg18
I01
sS'y'
F112
s(dp55
S'y'
F112
sS'x'
F813
sg18
I00
s(dp56
S'y'
F277
sS'x'
F934
sg18
I00
s(dp57
g16
S'curve'
p58
sS'x'
F934
sg18
I01
sS'y'
F526
s(dp59
S'y'
F734
sS'x'
F934
sg18
I00
s(dp60
S'y'
F918
sS'x'
F826
sg18
I00
stp61
stp62
sS'components'
p63
(tsS'anchors'
p64
(tsss."
AnchorPoint: "top" 290 501 basechar 0
LayerCount: 2
Fore
SplineSet
300 62 m 256
 403 62 454 140 454 254 c 256
 454 360 402 440 299 440 c 256
 191 440 140 359 140 253 c 256
 140 147 191 62 300 62 c 256
288 -11 m 256
 134 -11 49 109 49 250 c 256
 49 396 141 514 288 514 c 256
 361 514 422 473 451 421 c 257
 451 501 l 257
 540 501 l 257
 540 0 l 257
 450 0 l 257
 450 85 l 257
 422 26 363 -11 288 -11 c 256
EndSplineSet
EndChar

StartChar: acute
Encoding: 180 180 175
Width: 296
VWidth: 0
Flags: HW
PickledData: "(dp1
S'org.robofab.postScriptHintData'
p2
(dp3
s."
AnchorPoint: "top" 69 501 mark 0
LayerCount: 2
Fore
SplineSet
36 572 m 257
 151 748 l 257
 267 748 l 257
 111 572 l 257
 36 572 l 257
EndSplineSet
EndChar

StartChar: ae
Encoding: 230 230 179
Width: 874
VWidth: 0
Flags: HW
PickledData: "(dp1
S'org.robofab.postScriptHintData'
p2
(dp3
sS'com.typemytype.robofont.layerData'
p4
(dp5
S'b'
(dp6
S'name'
p7
S'ae'
p8
sS'lib'
p9
(dp10
sS'unicodes'
p11
(tsS'width'
p12
F1790.05
sS'contours'
p13
(tsS'components'
p14
((dp15
S'transformation'
p16
(I1
I0
I0
I1
I642
I0
tp17
sS'baseGlyph'
p18
S'e'
stp19
sS'anchors'
p20
(tsss."
AnchorPoint: "top" 440 501 basechar 0
LayerCount: 2
Fore
SplineSet
478 299 m 257
 748 299 l 257
 747 307 l 257
 740 384 693 442 616 442 c 256
 532 442 487 374 478 299 c 257
235 62 m 256
 343 62 385 148 386 237 c 257
 312 237 l 258
 210 237 131 218 131 144 c 256
 131 84 180 62 235 62 c 256
627 -11 m 256
 535 -11 464 36 430 110 c 257
 398 41 326 -12 229 -12 c 256
 119 -12 42 44 42 139 c 256
 42 279 164 300 352 300 c 258
 385 300 l 257
 385 383 342 441 259 441 c 256
 196 441 134 416 102 401 c 257
 75 465 l 257
 88 472 163 514 272 514 c 256
 339 514 413 478 438 410 c 257
 474 473 536 514 614 514 c 256
 753 514 827 407 827 255 c 256
 827 250 826 237 826 237 c 257
 477 237 l 257
 477 224 l 257
 481 128 527 62 631 62 c 256
 721 62 785 117 785 117 c 257
 812 51 l 257
 812 51 744 -11 627 -11 c 256
EndSplineSet
EndChar

StartChar: ampersand
Encoding: 38 38 185
Width: 750
VWidth: 0
Flags: HW
PickledData: "(dp1
S'org.robofab.postScriptHintData'
p2
(dp3
sS'com.typemytype.robofont.layerData'
p4
(dp5
S'b'
(dp6
S'name'
p7
S'ampersand'
p8
sS'lib'
p9
(dp10
sS'unicodes'
p11
(tsS'width'
p12
F1539.95
sS'contours'
p13
(tsS'components'
p14
(tsS'anchors'
p15
(tsss."
LayerCount: 2
Fore
SplineSet
291 449 m 257
 341 480 391 523 391 574 c 256
 391 627 348 647 311 647 c 256
 266 647 231 623 231 574 c 256
 231 528 253 487 291 449 c 257
306 67 m 256
 382 67 430 98 473 143 c 257
 274 356 l 257
 210 320 156 281 156 202 c 256
 156 124 217 67 306 67 c 256
307 -12 m 256
 169 -12 63 67 63 201 c 256
 63 309 141 363 224 413 c 257
 178 464 144 511 144 576 c 256
 144 672 218 721 308 721 c 256
 392 721 477 676 477 579 c 256
 477 503 413 440 343 398 c 257
 518 207 l 257
 557 271 581 359 581 441 c 257
 664 427 l 257
 661 327 629 220 576 143 c 257
 604 114 661 66 729 49 c 257
 669 -4 l 257
 610 5 552 58 525 85 c 257
 473 30 403 -12 307 -12 c 256
EndSplineSet
EndChar

StartChar: approxequal
Encoding: 8776 8776 187
Width: 659
VWidth: 0
Flags: HW
PickledData: "(dp1
S'org.robofab.postScriptHintData'
p2
(dp3
sS'com.typemytype.robofont.layerData'
p4
(dp5
s."
LayerCount: 2
Fore
SplineSet
151 123 m 257
 85 141 l 257
 105 222 159 271 235 271 c 256
 280 271 322 250 361 229 c 256
 397 211 428 191 452 191 c 256
 490 191 512 221 531 272 c 257
 595 256 l 257
 577 178 531 125 449 125 c 256
 409 125 370 142 318 173 c 256
 287 191 259 204 234 204 c 256
 191 204 165 172 151 123 c 257
151 322 m 257
 84 337 l 257
 102 418 156 468 234 468 c 256
 276 468 313 452 357 426 c 256
 398 402 428 389 451 389 c 256
 488 389 512 418 530 470 c 257
 594 454 l 257
 577 375 530 324 448 324 c 256
 406 324 369 339 316 370 c 256
 285 389 257 403 232 403 c 256
 190 403 165 370 151 322 c 257
EndSplineSet
EndChar

StartChar: asciicircum
Encoding: 94 94 190
Width: 794
VWidth: 0
Flags: HW
PickledData: "(dp1
S'org.robofab.postScriptHintData'
p2
(dp3
sS'com.typemytype.robofont.layerData'
p4
(dp5
S'b'
(dp6
S'name'
p7
S'asciicircum'
p8
sS'lib'
p9
(dp10
sS'unicodes'
p11
(tsS'width'
p12
F1623.3499999999999
sS'contours'
p13
(tsS'components'
p14
(tsS'anchors'
p15
(tsss."
LayerCount: 2
Fore
SplineSet
132 275 m 257
 368 711 l 257
 424 711 l 257
 663 275 l 257
 576 275 l 257
 395 613 l 257
 221 275 l 257
 132 275 l 257
EndSplineSet
EndChar

StartChar: asciitilde
Encoding: 126 126 191
Width: 611
VWidth: 0
Flags: HW
PickledData: "(dp1
S'org.robofab.postScriptHintData'
p2
(dp3
sS'com.typemytype.robofont.layerData'
p4
(dp5
s."
LayerCount: 2
Fore
SplineSet
128 182 m 257
 62 213 l 257
 77 283 123 337 206 337 c 256
 245 337 291 318 333 301 c 256
 362 290 405 271 426 271 c 256
 465 271 491 313 501 357 c 257
 573 335 l 257
 555 254 506 196 426 196 c 256
 396 196 355 212 315 230 c 256
 287 241 236 264 208 264 c 256
 161 264 139 228 128 182 c 257
EndSplineSet
EndChar

StartChar: asterisk
Encoding: 42 42 192
Width: 542
VWidth: 0
Flags: HW
PickledData: "(dp1
S'org.robofab.postScriptHintData'
p2
(dp3
sS'com.typemytype.robofont.guides'
p4
((dp5
S'y'
I1149
sS'x'
I567
sS'magnetic'
p6
I5
sS'angle'
p7
I0
sS'isGlobal'
p8
I00
stp9
sS'com.typemytype.robofont.layerData'
p10
(dp11
S'b'
(dp12
S'name'
p13
S'asterisk'
p14
sS'lib'
p15
(dp16
sS'unicodes'
p17
(tsS'width'
p18
F1107.9000000000001
sS'contours'
p19
(tsS'components'
p20
(tsS'anchors'
p21
(tsss."
LayerCount: 2
Fore
SplineSet
351 347 m 257
 271 476 l 257
 194 350 l 257
 126 394 l 257
 221 510 l 257
 89 553 l 257
 116 623 l 257
 240 564 l 257
 225 711 l 257
 308 711 l 257
 301 564 l 257
 416 623 l 257
 449 553 l 257
 320 510 l 257
 419 390 l 257
 351 347 l 257
EndSplineSet
EndChar

StartChar: at
Encoding: 64 64 193
Width: 863
VWidth: 0
Flags: HW
PickledData: "(dp1
S'org.robofab.postScriptHintData'
p2
(dp3
sS'com.typemytype.robofont.layerData'
p4
(dp5
S'b'
(dp6
S'name'
p7
S'at'
p8
sS'lib'
p9
(dp10
sS'unicodes'
p11
(tsS'width'
p12
F1771.2
sS'contours'
p13
(tsS'components'
p14
(tsS'anchors'
p15
(tsss."
LayerCount: 2
Fore
SplineSet
536 401 m 256
 536 456 507 493 459 493 c 256
 375 493 319 388 319 291 c 256
 319 235 350 198 398 198 c 256
 474 198 536 295 536 401 c 256
451 558 m 256
 505 558 548 533 560 484 c 257
 573 544 l 257
 649 544 l 257
 596 295 l 258
 588 257 584 237 584 216 c 256
 584 195 596 175 620 175 c 256
 681 175 747 269 747 392 c 256
 747 562 617 662 458 662 c 256
 275 662 128 541 128 330 c 256
 128 124 279 17 457 17 c 256
 545 17 637 44 699 95 c 257
 733 55 l 257
 670 -9 562 -43 452 -43 c 256
 223 -43 53 100 53 331 c 256
 53 572 234 722 456 722 c 256
 659 722 810 586 810 390 c 256
 810 246 723 126 625 126 c 256
 565 126 531 159 531 218 c 256
 531 220 531 224 531 226 c 257
 510 173 458 130 389 130 c 256
 312 130 235 189 235 300 c 256
 235 448 344 558 451 558 c 256
EndSplineSet
EndChar

StartChar: b
Encoding: 98 98 195
Width: 622
VWidth: 0
Flags: HW
PickledData: "(dp1
S'org.robofab.postScriptHintData'
p2
(dp3
sS'com.typemytype.robofont.layerData'
p4
(dp5
S'b'
(dp6
S'name'
p7
S'b'
sS'lib'
p8
(dp9
sS'unicodes'
p10
(tsS'width'
p11
F1270.0999999999999
sS'contours'
p12
(tsS'components'
p13
(tsS'anchors'
p14
(tsss."
AnchorPoint: "top" 345 501 basechar 0
LayerCount: 2
Fore
SplineSet
332 62 m 256
 430 62 479 141 479 256 c 256
 479 363 426 440 331 440 c 256
 231 440 170 363 170 252 c 256
 170 140 231 62 332 62 c 256
343 -11 m 256
 260 -11 196 33 172 85 c 257
 172 0 l 257
 80 0 l 257
 81 49 83 110 83 132 c 258
 83 726 l 257
 174 726 l 257
 174 416 l 257
 195 462 254 514 345 514 c 256
 484 514 572 412 572 257 c 256
 572 94 475 -11 343 -11 c 256
EndSplineSet
EndChar

StartChar: backslash
Encoding: 92 92 196
Width: 407
VWidth: 0
Flags: HW
PickledData: "(dp1
S'org.robofab.postScriptHintData'
p2
(dp3
sS'com.typemytype.robofont.layerData'
p4
(dp5
s."
LayerCount: 2
Fore
SplineSet
299 6 m 257
 26 711 l 257
 107 711 l 257
 383 6 l 257
 299 6 l 257
EndSplineSet
EndChar

StartChar: bar
Encoding: 124 124 197
Width: 463
VWidth: 0
Flags: HW
PickledData: "(dp1
S'org.robofab.postScriptHintData'
p2
(dp3
sS'com.typemytype.robofont.layerData'
p4
(dp5
s."
LayerCount: 2
Fore
SplineSet
189 -235 m 257
 189 750 l 257
 275 750 l 257
 275 -235 l 257
 189 -235 l 257
EndSplineSet
EndChar

StartChar: braceleft
Encoding: 123 123 199
Width: 385
VWidth: 0
Flags: HW
PickledData: "(dp1
S'org.robofab.postScriptHintData'
p2
(dp3
sS'com.typemytype.robofont.layerData'
p4
(dp5
s."
LayerCount: 2
Fore
SplineSet
246 552 m 258
 246 424 l 258
 246 360 209 322 161 305 c 257
 212 284 246 239 246 173 c 258
 246 48 l 258
 246 -21 276 -38 341 -38 c 257
 341 -108 l 257
 201 -107 155 -50 155 41 c 258
 155 161 l 258
 155 232 132 270 62 276 c 257
 62 337 l 257
 127 342 155 378 155 444 c 257
 155 564 l 258
 155 652 194 720 342 720 c 257
 342 650 l 257
 266 650 246 616 246 552 c 258
EndSplineSet
EndChar

StartChar: braceright
Encoding: 125 125 200
Width: 384
VWidth: 0
Flags: HW
PickledData: "(dp1
S'org.robofab.postScriptHintData'
p2
(dp3
sS'com.typemytype.robofont.layerData'
p4
(dp5
s."
LayerCount: 2
Fore
SplineSet
52 -108 m 257
 52 -38 l 257
 128 -38 148 -3 148 61 c 258
 148 189 l 258
 148 253 186 291 234 308 c 257
 183 329 148 374 148 440 c 258
 148 565 l 258
 148 634 118 651 53 651 c 257
 53 720 l 257
 193 719 239 663 239 572 c 258
 239 452 l 258
 239 381 263 343 333 337 c 257
 333 275 l 257
 268 270 239 234 239 168 c 257
 239 49 l 258
 239 -39 201 -108 52 -108 c 257
EndSplineSet
EndChar

StartChar: bracketleft
Encoding: 91 91 201
Width: 322
VWidth: 0
Flags: HW
PickledData: "(dp1
S'org.robofab.postScriptHintData'
p2
(dp3
sS'com.typemytype.robofont.layerData'
p4
(dp5
s."
LayerCount: 2
Fore
SplineSet
84 -111 m 257
 84 718 l 257
 284 718 l 257
 284 650 l 257
 172 650 l 257
 172 -43 l 257
 285 -43 l 257
 285 -111 l 257
 84 -111 l 257
EndSplineSet
EndChar

StartChar: bracketright
Encoding: 93 93 202
Width: 322
VWidth: 0
Flags: HW
PickledData: "(dp1
S'org.robofab.postScriptHintData'
p2
(dp3
sS'com.typemytype.robofont.layerData'
p4
(dp5
s."
LayerCount: 2
Fore
SplineSet
61 -111 m 257
 61 -43 l 257
 171 -43 l 257
 171 650 l 257
 60 650 l 257
 60 718 l 257
 260 718 l 257
 260 -111 l 257
 61 -111 l 257
EndSplineSet
EndChar

StartChar: breve
Encoding: 728 728 203
Width: 300
VWidth: 0
Flags: HW
PickledData: "(dp1
S'org.robofab.postScriptHintData'
p2
(dp3
sS'com.typemytype.robofont.layerData'
p4
(dp5
S'b'
(dp6
S'name'
p7
S'breve'
p8
sS'lib'
p9
(dp10
sS'unicodes'
p11
(tsS'width'
p12
F621.60000000000002
sS'contours'
p13
(tsS'components'
p14
(tsS'anchors'
p15
(tsss."
AnchorPoint: "top" 154 501 mark 0
LayerCount: 2
Fore
SplineSet
151 576 m 256
 68 576 22 615 16 703 c 257
 80 703 l 257
 83 655 110 641 151 641 c 256
 192 641 217 657 222 703 c 257
 285 703 l 257
 279 616 232 576 151 576 c 256
EndSplineSet
EndChar

StartChar: brokenbar
Encoding: 166 166 204
Width: 244
VWidth: 0
Flags: HW
PickledData: "(dp1
S'org.robofab.postScriptHintData'
p2
(dp3
sS'com.typemytype.robofont.layerData'
p4
(dp5
s."
LayerCount: 2
Fore
SplineSet
96 316 m 257
 96 750 l 257
 174 750 l 257
 174 316 l 257
 96 316 l 257
97 -235 m 257
 97 195 l 257
 175 195 l 257
 175 -235 l 257
 97 -235 l 257
EndSplineSet
EndChar

StartChar: bullet
Encoding: 8226 8226 205
Width: 482
VWidth: 0
Flags: HW
PickledData: "(dp1
S'org.robofab.postScriptHintData'
p2
(dp3
sS'com.typemytype.robofont.layerData'
p4
(dp5
S'b'
(dp6
S'name'
p7
S'bullet'
p8
sS'lib'
p9
(dp10
sS'unicodes'
p11
(tsS'width'
p12
F989.64999999999998
sS'contours'
p13
(tsS'components'
p14
(tsS'anchors'
p15
(tsss."
LayerCount: 2
Fore
SplineSet
245 185 m 256
 152 185 86 254 86 337 c 256
 86 421 155 493 245 493 c 256
 337 493 406 420 406 337 c 256
 406 253 336 185 245 185 c 256
EndSplineSet
EndChar

StartChar: c
Encoding: 99 99 207
Width: 519
VWidth: 0
Flags: HW
PickledData: "(dp1
S'org.robofab.postScriptHintData'
p2
(dp3
sS'com.typemytype.robofont.layerData'
p4
(dp5
S'b'
(dp6
S'name'
p7
S'c'
sS'lib'
p8
(dp9
sS'unicodes'
p10
(tsS'width'
p11
F1035.55
sS'contours'
p12
((dp13
S'points'
p14
((dp15
S'segmentType'
p16
S'curve'
p17
sS'x'
F605
sS'smooth'
p18
I01
sS'y'
F-22
s(dp19
S'y'
F-22
sS'x'
F302
sg18
I00
s(dp20
S'y'
F180
sS'x'
F98
sg18
I00
s(dp21
g16
S'curve'
p22
sS'x'
F98
sg18
I01
sS'y'
F503
s(dp23
S'y'
F840
sS'x'
F98
sg18
I00
s(dp24
S'y'
F1052
sS'x'
F301
sg18
I00
s(dp25
g16
S'curve'
p26
sS'x'
F624
sg18
I01
sS'y'
F1052
s(dp27
S'y'
F1052
sS'x'
F750
sg18
I00
s(dp28
S'y'
F1001
sS'x'
F871
sg18
I00
s(dp29
g16
S'curve'
p30
sS'x'
F938
sg18
I00
sS'y'
F922
s(dp31
g16
S'line'
p32
sS'x'
F890
sg18
I00
sS'y'
F805
s(dp33
S'y'
F874
sS'x'
F825
sg18
I00
s(dp34
S'y'
F918
sS'x'
F721
sg18
I00
s(dp35
g16
S'curve'
p36
sS'x'
F619
sg18
I01
sS'y'
F918
s(dp37
S'y'
F918
sS'x'
F406
sg18
I00
s(dp38
S'y'
F756
sS'x'
F268
sg18
I00
s(dp39
g16
S'curve'
p40
sS'x'
F268
sg18
I01
sS'y'
F505
s(dp41
S'y'
F260
sS'x'
F268
sg18
I00
s(dp42
S'y'
F112
sS'x'
F407
sg18
I00
s(dp43
g16
S'curve'
p44
sS'x'
F611
sg18
I01
sS'y'
F112
s(dp45
S'y'
F112
sS'x'
F716
sg18
I00
s(dp46
S'y'
F145
sS'x'
F827
sg18
I00
s(dp47
g16
S'curve'
p48
sS'x'
F901
sg18
I00
sS'y'
F202
s(dp49
g16
S'line'
p50
sS'x'
F953
sg18
I00
sS'y'
F87
s(dp51
S'y'
F19
sS'x'
F873
sg18
I00
s(dp52
S'y'
F-22
sS'x'
F747
sg18
I00
stp53
stp54
sS'components'
p55
(tsS'anchors'
p56
(tsss."
AnchorPoint: "top" 294 501 basechar 0
LayerCount: 2
Fore
SplineSet
305 -11 m 256
 148 -11 49 99 49 248 c 256
 49 406 152 514 307 514 c 256
 375 514 433 493 472 454 c 257
 440 395 l 257
 410 421 366 440 313 440 c 256
 214 440 142 373 142 248 c 256
 142 135 208 62 312 62 c 256
 372 62 418 86 448 109 c 257
 477 44 l 257
 431 8 374 -11 305 -11 c 256
EndSplineSet
EndChar

StartChar: caron
Encoding: 711 711 209
Width: 341
VWidth: 0
Flags: HW
PickledData: "(dp1
S'org.robofab.postScriptHintData'
p2
(dp3
s."
AnchorPoint: "top" 170 501 mark 0
LayerCount: 2
Fore
SplineSet
131 563 m 257
 10 735 l 257
 90 735 l 257
 169 623 l 257
 249 735 l 257
 331 735 l 257
 211 563 l 257
 131 563 l 257
EndSplineSet
EndChar

StartChar: caron.alt
Encoding: 65537 -1 210
Width: 292
VWidth: 0
Flags: HW
PickledData: "(dp1
S'org.robofab.postScriptHintData'
p2
(dp3
s."
AnchorPoint: "caron.alt" 23 501 mark 0
LayerCount: 2
Fore
SplineSet
159 485 m 257
 212 717 l 257
 314 717 l 257
 232 485 l 257
 159 485 l 257
EndSplineSet
EndChar

StartChar: cedilla
Encoding: 184 184 215
Width: 258
VWidth: 0
Flags: HW
PickledData: "(dp1
S'org.robofab.postScriptHintData'
p2
(dp3
sS'com.typemytype.robofont.layerData'
p4
(dp5
S'b'
(dp6
S'name'
p7
S'cedilla'
p8
sS'lib'
p9
(dp10
sS'unicodes'
p11
(tsS'width'
p12
I529
sS'contours'
p13
(tsS'components'
p14
(tsS'anchors'
p15
(tsss."
LayerCount: 2
Fore
SplineSet
108 -218 m 256
 76 -218 38 -210 22 -205 c 257
 28 -157 l 257
 40 -162 76 -170 104 -170 c 256
 105 -170 104 -170 105 -170 c 256
 138 -170 158 -157 158 -134 c 256
 158 -115 139 -91 80 -91 c 258
 69 -91 l 257
 84 4 l 257
 132 4 l 257
 122 -58 l 257
 189 -64 233 -92 233 -136 c 256
 233 -190 179 -218 110 -218 c 256
 109 -218 109 -218 108 -218 c 256
EndSplineSet
EndChar

StartChar: cent
Encoding: 162 162 216
Width: 502
VWidth: 0
Flags: HW
PickledData: "(dp1
S'org.robofab.postScriptHintData'
p2
(dp3
sS'com.typemytype.robofont.layerData'
p4
(dp5
S'b'
(dp6
S'name'
p7
S'cent'
p8
sS'lib'
p9
(dp10
sS'unicodes'
p11
(tsS'width'
p12
F1033.2
sS'contours'
p13
(tsS'components'
p14
(tsS'anchors'
p15
(tsss."
LayerCount: 2
Fore
SplineSet
327 -10 m 257
 327 -104 l 257
 286 -104 l 257
 286 -10 l 257
 140 -2 49 105 49 248 c 256
 49 399 142 504 286 513 c 257
 286 611 l 257
 327 611 l 257
 327 513 l 257
 386 509 437 489 472 454 c 257
 440 395 l 257
 412 419 374 437 327 440 c 257
 327 63 l 257
 379 67 421 88 448 109 c 257
 477 44 l 257
 436 12 386 -6 327 -10 c 257
286 64 m 257
 286 438 l 257
 201 427 142 362 142 248 c 256
 142 144 197 75 286 64 c 257
EndSplineSet
EndChar

StartChar: circumflex
Encoding: 710 710 217
Width: 341
VWidth: 0
Flags: HW
PickledData: "(dp1
S'org.robofab.postScriptHintData'
p2
(dp3
sS'com.typemytype.robofont.layerData'
p4
(dp5
S'b'
(dp6
S'name'
p7
S'circumflex'
p8
sS'lib'
p9
(dp10
sS'unicodes'
p11
(tsS'width'
p12
I699
sS'contours'
p13
(tsS'components'
p14
(tsS'anchors'
p15
(tsss."
AnchorPoint: "top" 169 501 mark 0
LayerCount: 2
Fore
SplineSet
17 563 m 257
 131 733 l 257
 210 733 l 257
 325 563 l 257
 249 563 l 257
 170 670 l 257
 90 563 l 257
 17 563 l 257
EndSplineSet
EndChar

StartChar: colon
Encoding: 58 58 218
Width: 264
VWidth: 0
Flags: HW
PickledData: "(dp1
S'org.robofab.postScriptHintData'
p2
(dp3
sS'com.typemytype.robofont.layerData'
p4
(dp5
S'b'
(dp6
S'name'
p7
S'colon'
p8
sS'lib'
p9
(dp10
sS'unicodes'
p11
(tsS'width'
p12
F544.60000000000002
sS'contours'
p13
(tsS'components'
p14
(tsS'anchors'
p15
(tsss."
LayerCount: 2
Fore
SplineSet
84 406 m 257
 84 517 l 257
 191 517 l 257
 191 406 l 257
 84 406 l 257
84 0 m 257
 84 111 l 257
 191 111 l 257
 191 0 l 257
 84 0 l 257
EndSplineSet
EndChar

StartChar: comma
Encoding: 44 44 219
Width: 237
VWidth: 0
Flags: HW
PickledData: "(dp1
S'org.robofab.postScriptHintData'
p2
(dp3
sS'com.typemytype.robofont.layerData'
p4
(dp5
S'b'
(dp6
S'name'
p7
S'comma'
p8
sS'lib'
p9
(dp10
sS'unicodes'
p11
(tsS'width'
p12
F491.10000000000002
sS'contours'
p13
(tsS'components'
p14
(tsS'anchors'
p15
(tsss."
LayerCount: 2
Fore
SplineSet
35 -129 m 257
 88 108 l 257
 190 108 l 257
 108 -129 l 257
 35 -129 l 257
EndSplineSet
EndChar

StartChar: copyright
Encoding: 169 169 220
Width: 843
VWidth: 0
Flags: HW
PickledData: "(dp1
S'org.robofab.postScriptHintData'
p2
(dp3
sS'com.typemytype.robofont.layerData'
p4
(dp5
S'b'
(dp6
S'name'
p7
S'copyright'
p8
sS'lib'
p9
(dp10
sS'unicodes'
p11
(tsS'width'
p12
I1733
sS'contours'
p13
(tsS'components'
p14
(tsS'anchors'
p15
(tsss."
LayerCount: 2
Fore
SplineSet
421 -12 m 256
 218 -12 53 152 53 355 c 256
 53 558 218 724 421 724 c 256
 625 724 792 558 792 355 c 256
 792 152 625 -12 421 -12 c 256
422 37 m 256
 594 37 734 181 734 354 c 256
 734 527 594 674 422 674 c 256
 249 674 110 527 110 354 c 256
 110 181 249 37 422 37 c 256
433 140 m 256
 313 140 221 225 221 351 c 256
 221 485 308 573 434 573 c 256
 488 573 536 555 568 523 c 257
 542 474 l 257
 517 495 479 511 438 511 c 256
 364 511 298 463 298 351 c 256
 298 254 357 201 436 201 c 256
 478 201 519 216 549 239 c 257
 573 186 l 257
 533 156 486 140 433 140 c 256
EndSplineSet
EndChar

StartChar: currency
Encoding: 164 164 221
Width: 594
VWidth: 0
Flags: HW
PickledData: "(dp1
S'org.robofab.postScriptHintData'
p2
(dp3
s."
LayerCount: 2
Fore
SplineSet
297 348 m 256
 382 348 445 415 445 500 c 256
 445 585 382 651 297 651 c 256
 212 651 150 585 150 500 c 256
 150 415 212 348 297 348 c 256
83 266 m 257
 59 291 l 257
 150 382 l 257
 123 414 107 456 107 501 c 256
 107 548 124 591 153 624 c 257
 58 719 l 257
 83 744 l 257
 179 648 l 257
 211 673 253 689 298 689 c 256
 343 689 384 674 417 649 c 257
 512 744 l 257
 537 719 l 257
 442 625 l 257
 471 592 489 549 489 501 c 256
 489 456 473 414 446 381 c 257
 537 291 l 257
 512 266 l 257
 421 357 l 257
 388 330 345 313 298 313 c 256
 251 313 208 329 175 357 c 257
 83 266 l 257
EndSplineSet
EndChar

StartChar: d
Encoding: 100 100 222
Width: 617
VWidth: 0
Flags: HW
PickledData: "(dp1
S'org.robofab.postScriptHintData'
p2
(dp3
sS'com.typemytype.robofont.layerData'
p4
(dp5
S'b'
(dp6
S'name'
p7
S'd'
sS'lib'
p8
(dp9
sS'unicodes'
p10
(tsS'width'
p11
F1265.05
sS'contours'
p12
(tsS'components'
p13
(tsS'anchors'
p14
(tsss."
AnchorPoint: "caron.alt" 438 501 basechar 0
AnchorPoint: "top" 270 501 basechar 0
LayerCount: 2
Fore
SplineSet
292 62 m 256
 393 62 445 140 445 255 c 256
 445 362 391 440 293 440 c 256
 196 440 143 362 143 251 c 256
 143 141 194 62 292 62 c 256
278 -11 m 256
 146 -11 49 90 49 249 c 256
 49 402 135 514 283 514 c 256
 365 514 423 470 443 426 c 257
 443 726 l 257
 534 726 l 257
 534 130 l 257
 534 100 535 62 537 0 c 257
 446 0 l 257
 444 85 l 257
 426 38 369 -11 278 -11 c 256
EndSplineSet
EndChar

StartChar: dagger
Encoding: 8224 8224 223
Width: 499
VWidth: 0
Flags: HW
PickledData: "(dp1
S'org.robofab.postScriptHintData'
p2
(dp3
sS'com.typemytype.robofont.layerData'
p4
(dp5
s."
LayerCount: 2
Fore
SplineSet
217 0 m 257
 217 441 l 257
 57 441 l 257
 57 505 l 257
 217 505 l 257
 217 712 l 257
 294 712 l 257
 294 505 l 257
 458 505 l 257
 458 441 l 257
 292 441 l 257
 292 0 l 257
 217 0 l 257
EndSplineSet
EndChar

StartChar: daggerdbl
Encoding: 8225 8225 224
Width: 530
VWidth: 0
Flags: HW
PickledData: "(dp1
S'org.robofab.postScriptHintData'
p2
(dp3
sS'com.typemytype.robofont.layerData'
p4
(dp5
S'b'
(dp6
S'name'
p7
S'daggerdbl'
p8
sS'lib'
p9
(dp10
sS'unicodes'
p11
(tsS'width'
p12
F1092.6500000000001
sS'contours'
p13
(tsS'components'
p14
(tsS'anchors'
p15
(tsss."
LayerCount: 2
Fore
SplineSet
62 505 m 257
 226 505 l 257
 226 712 l 257
 306 712 l 257
 306 505 l 257
 469 505 l 257
 469 449 l 257
 306 449 l 257
 306 249 l 257
 466 249 l 257
 466 195 l 257
 306 195 l 257
 306 0 l 257
 226 0 l 257
 226 195 l 257
 60 195 l 257
 60 249 l 257
 226 249 l 257
 226 449 l 257
 62 449 l 257
 62 505 l 257
EndSplineSet
EndChar

StartChar: degree
Encoding: 176 176 228
Width: 416
VWidth: 0
Flags: HW
PickledData: "(dp1
S'org.robofab.postScriptHintData'
p2
(dp3
sS'com.typemytype.robofont.layerData'
p4
(dp5
S'b'
(dp6
S'name'
p7
S'degree'
p8
sS'lib'
p9
(dp10
sS'unicodes'
p11
(tsS'width'
p12
F856.60000000000002
sS'contours'
p13
(tsS'components'
p14
(tsS'anchors'
p15
(tsss."
LayerCount: 2
Fore
SplineSet
208 417 m 256
 124 417 60 482 60 562 c 256
 60 643 124 708 208 708 c 256
 292 708 357 643 357 562 c 256
 357 482 292 417 208 417 c 256
208 473 m 256
 263 473 296 514 296 563 c 256
 296 612 262 652 208 652 c 256
 154 652 121 612 121 563 c 256
 121 514 153 473 208 473 c 256
EndSplineSet
EndChar

StartChar: dieresis
Encoding: 168 168 229
Width: 362
VWidth: 0
Flags: HW
PickledData: "(dp1
S'org.robofab.postScriptHintData'
p2
(dp3
s."
AnchorPoint: "top" 181 501 mark 0
LayerCount: 2
Fore
SplineSet
234 577 m 257
 234 669 l 257
 325 669 l 257
 325 577 l 257
 234 577 l 257
38 577 m 257
 38 669 l 257
 129 669 l 257
 129 577 l 257
 38 577 l 257
EndSplineSet
EndChar

StartChar: divide
Encoding: 247 247 230
Width: 627
VWidth: 0
Flags: HW
PickledData: "(dp1
S'org.robofab.postScriptHintData'
p2
(dp3
sS'com.typemytype.robofont.layerData'
p4
(dp5
s."
LayerCount: 2
Fore
SplineSet
256 422 m 257
 256 532 l 257
 372 532 l 257
 372 422 l 257
 256 422 l 257
77 232 m 257
 77 309 l 257
 548 309 l 257
 548 232 l 257
 77 232 l 257
256 5 m 257
 256 116 l 257
 372 116 l 257
 372 5 l 257
 256 5 l 257
EndSplineSet
EndChar

StartChar: dollar
Encoding: 36 36 232
Width: 584
VWidth: 0
Flags: HW
PickledData: "(dp1
S'org.robofab.postScriptHintData'
p2
(dp3
sS'com.typemytype.robofont.layerData'
p4
(dp5
S'b'
(dp6
S'name'
p7
S'dollar'
p8
sS'lib'
p9
(dp10
sS'unicodes'
p11
(tsS'width'
p12
F1200.0999999999999
sS'contours'
p13
(tsS'components'
p14
(tsS'anchors'
p15
(tsss."
LayerCount: 2
Fore
SplineSet
288 -99 m 257
 330 -99 l 257
 330 -9 l 257
 447 1 538 64 538 187 c 256
 538 300 492 355 330 404 c 257
 330 644 l 257
 396 640 447 612 474 586 c 257
 521 649 l 257
 493 677 441 717 330 723 c 257
 330 795 l 257
 288 795 l 257
 288 723 l 257
 160 719 65 655 65 536 c 256
 65 418 133 370 261 333 c 256
 267 331 278 328 288 325 c 257
 288 68 l 257
 207 70 134 113 104 137 c 257
 63 69 l 257
 91 42 173 -9 288 -11 c 257
 288 -99 l 257
330 70 m 257
 330 311 l 257
 421 279 440 250 440 190 c 256
 440 123 404 80 330 70 c 257
288 416 m 257
 187 445 165 472 165 539 c 256
 165 604 215 638 288 644 c 257
 288 416 l 257
EndSplineSet
EndChar

StartChar: dotaccent
Encoding: 729 729 233
Width: 255
VWidth: 0
Flags: HW
PickledData: "(dp1
S'org.robofab.postScriptHintData'
p2
(dp3
sS'com.typemytype.robofont.layerData'
p4
(dp5
S'b'
(dp6
S'name'
p7
S'dotaccent'
p8
sS'lib'
p9
(dp10
sS'unicodes'
p11
(tsS'width'
p12
F524
sS'contours'
p13
(tsS'components'
p14
(tsS'anchors'
p15
(tsss."
AnchorPoint: "top" 129 501 mark 0
LayerCount: 2
Fore
SplineSet
82 613 m 257
 82 702 l 257
 174 702 l 257
 174 613 l 257
 82 613 l 257
EndSplineSet
EndChar

StartChar: dotlessi
Encoding: 305 305 234
Width: 260
VWidth: 0
Flags: HW
PickledData: "(dp1
S'org.robofab.postScriptHintData'
p2
(dp3
sS'com.typemytype.robofont.layerData'
p4
(dp5
s."
AnchorPoint: "top" 131 501 basechar 0
LayerCount: 2
Fore
SplineSet
86 0 m 257
 86 501 l 257
 176 501 l 257
 177 0 l 257
 86 0 l 257
EndSplineSet
EndChar

StartChar: uni0237
Encoding: 567 567 235
Width: 245
VWidth: 0
Flags: HW
PickledData: "(dp1
S'org.robofab.postScriptHintData'
p2
(dp3
s."
AnchorPoint: "top" 126 501 basechar 0
LayerCount: 2
Fore
SplineSet
10 -207 m 256
 -9 -207 -29 -205 -52 -201 c 257
 -52 -127 l 257
 -33 -131 -19 -133 -9 -133 c 256
 52 -133 83 -86 83 18 c 258
 83 501 l 257
 167 501 l 257
 167 51 l 258
 167 -62 153 -207 10 -207 c 256
EndSplineSet
EndChar

StartChar: e
Encoding: 101 101 238
Width: 569
VWidth: 0
Flags: HW
PickledData: "(dp1
S'org.robofab.postScriptHintData'
p2
(dp3
sS'com.fontlab.hintData'
p4
(dp5
S'vhints'
p6
((dp7
S'position'
p8
I106
sS'width'
p9
I195
stp10
sS'hhints'
p11
((dp12
g8
I-22
sg9
I154
s(dp13
g8
I486
sg9
I131
s(dp14
g8
I901
sg9
I151
stp15
ssS'com.typemytype.robofont.layerData'
p16
(dp17
S'b'
(dp18
S'name'
p19
S'e'
sS'lib'
p20
(dp21
sS'unicodes'
p22
(tsg9
F1169.75
sS'contours'
p23
(tsS'components'
p24
(tsS'anchors'
p25
(tsssS'com.typemytype.robofont.guides'
p26
(ts."
HStem: -11 75 237 64 440 74
VStem: 52 95
AnchorPoint: "top" 289 501 basechar 0
LayerCount: 2
Fore
SplineSet
145 299 m 257
 432 299 l 257
 425 392 375 442 298 442 c 256
 216 442 158 388 145 299 c 257
310 -11 m 256
 150 -11 49 93 49 249 c 256
 49 401 146 514 296 514 c 256
 441 514 515 408 515 262 c 256
 515 260 514 248 513 238 c 257
 142 238 l 257
 144 123 214 62 314 62 c 256
 373 62 428 81 474 118 c 257
 500 52 l 257
 447 11 383 -11 310 -11 c 256
EndSplineSet
EndChar

StartChar: eight
Encoding: 56 56 247
Width: 601
VWidth: 0
Flags: HW
PickledData: "(dp1
S'org.robofab.postScriptHintData'
p2
(dp3
sS'com.typemytype.robofont.layerData'
p4
(dp5
S'b'
(dp6
S'name'
p7
S'eight'
p8
sS'lib'
p9
(dp10
sS'unicodes'
p11
(tsS'width'
p12
F1235.45
sS'contours'
p13
(tsS'components'
p14
(tsS'anchors'
p15
(tsss."
LayerCount: 2
Fore
SplineSet
302 412 m 257
 383 430 431 476 431 544 c 256
 431 613 371 651 303 651 c 256
 234 651 174 614 174 543 c 256
 174 476 222 429 302 412 c 257
302 64 m 256
 385 64 445 106 445 188 c 256
 445 262 385 315 303 333 c 257
 221 315 160 264 160 187 c 256
 160 107 219 64 302 64 c 256
303 -11 m 256
 178 -11 68 60 68 186 c 256
 68 274 122 341 213 373 c 257
 136 403 84 460 84 542 c 256
 84 656 179 724 302 724 c 256
 427 724 521 656 521 541 c 256
 521 459 471 401 393 373 c 257
 482 341 537 271 537 184 c 256
 537 59 427 -11 303 -11 c 256
EndSplineSet
EndChar

StartChar: ellipsis
Encoding: 8230 8230 249
Width: 791
VWidth: 0
Flags: HW
PickledData: "(dp1
S'org.robofab.postScriptHintData'
p2
(dp3
s."
LayerCount: 2
Fore
SplineSet
595 -5 m 257
 595 104 l 257
 711 104 l 257
 711 -5 l 257
 595 -5 l 257
334 -5 m 257
 334 104 l 257
 450 104 l 257
 450 -5 l 257
 334 -5 l 257
72 -5 m 257
 72 104 l 257
 188 104 l 257
 188 -5 l 257
 72 -5 l 257
EndSplineSet
EndChar

StartChar: emdash
Encoding: 8212 8212 251
Width: 1060
VWidth: 0
Flags: HW
PickledData: "(dp1
S'org.robofab.postScriptHintData'
p2
(dp3
s."
LayerCount: 2
Fore
SplineSet
8 234 m 257
 8 310 l 257
 1049 310 l 257
 1049 234 l 257
 8 234 l 257
EndSplineSet
EndChar

StartChar: endash
Encoding: 8211 8211 252
Width: 538
VWidth: 0
Flags: HW
PickledData: "(dp1
S'org.robofab.postScriptHintData'
p2
(dp3
sS'com.typemytype.robofont.layerData'
p4
(dp5
s."
LayerCount: 2
Fore
SplineSet
1 238 m 257
 1 310 l 257
 536 310 l 257
 536 238 l 257
 1 238 l 257
EndSplineSet
EndChar

StartChar: eng
Encoding: 331 331 253
Width: 603
VWidth: 0
Flags: HW
PickledData: "(dp1
S'org.robofab.postScriptHintData'
p2
(dp3
sS'com.typemytype.robofont.layerData'
p4
(dp5
s."
LayerCount: 2
Fore
SplineSet
294 -199 m 257
 294 -131 l 257
 407 -131 437 -71 437 49 c 258
 437 268 l 258
 437 375 422 439 326 439 c 256
 242 439 176 366 176 314 c 257
 176 0 l 257
 86 0 l 257
 86 362 l 258
 86 437 81 501 81 501 c 257
 175 501 l 257
 175 431 l 257
 212 486 275 513 343 513 c 256
 480 513 528 424 528 273 c 258
 528 63 l 258
 528 -103 464 -199 294 -199 c 257
EndSplineSet
EndChar

StartChar: equal
Encoding: 61 61 255
Width: 629
VWidth: 0
Flags: HW
PickledData: "(dp1
S'org.robofab.postScriptHintData'
p2
(dp3
sS'com.typemytype.robofont.layerData'
p4
(dp5
S'b'
(dp6
S'name'
p7
S'equal'
p8
sS'lib'
p9
(dp10
sS'unicodes'
p11
(tsS'width'
p12
I1229
sS'contours'
p13
(tsS'components'
p14
(tsS'anchors'
p15
(tsss."
LayerCount: 2
Fore
SplineSet
83 333 m 257
 83 409 l 257
 546 409 l 257
 546 333 l 257
 83 333 l 257
84 143 m 257
 84 217 l 257
 547 217 l 257
 547 143 l 257
 84 143 l 257
EndSplineSet
EndChar

StartChar: estimated
Encoding: 8494 8494 256
Width: 588
VWidth: 0
Flags: HW
PickledData: "(dp1
S'org.robofab.postScriptHintData'
p2
(dp3
s."
LayerCount: 2
Fore
SplineSet
154 348 m 257
 433 348 l 257
 433 506 365 557 297 557 c 256
 231 557 155 506 154 348 c 257
306 56 m 256
 167 56 52 143 52 318 c 256
 52 512 176 585 298 585 c 256
 413 585 520 525 520 342 c 256
 520 337 519 328 517 320 c 257
 154 320 l 257
 154 319 154 318 154 317 c 256
 154 157 233 86 330 86 c 256
 380 86 441 106 502 146 c 257
 516 121 l 257
 450 78 375 56 306 56 c 256
EndSplineSet
EndChar

StartChar: eth
Encoding: 240 240 257
Width: 597
VWidth: 0
Flags: HW
PickledData: "(dp1
S'org.robofab.postScriptHintData'
p2
(dp3
sS'com.typemytype.robofont.layerData'
p4
(dp5
S'b'
(dp6
S'name'
p7
S'eth'
p8
sS'lib'
p9
(dp10
sS'unicodes'
p11
(tsS'width'
p12
F1222.55
sS'contours'
p13
(tsS'components'
p14
(tsS'anchors'
p15
(tsss."
LayerCount: 2
Fore
SplineSet
293 67 m 256
 384 67 441 134 441 232 c 256
 441 314 369 367 291 367 c 256
 206 367 146 313 146 221 c 256
 146 126 209 67 293 67 c 256
292 -11 m 256
 145 -11 52 92 52 222 c 256
 52 352 151 442 289 442 c 256
 371 442 430 396 453 354 c 257
 452 400 414 521 333 591 c 257
 225 522 l 257
 193 572 l 257
 284 630 l 257
 239 660 188 683 131 697 c 257
 166 758 l 257
 229 744 293 714 351 672 c 257
 456 740 l 257
 488 690 l 257
 398 633 l 257
 481 555 540 445 540 304 c 256
 540 101 450 -11 292 -11 c 256
EndSplineSet
EndChar

StartChar: exclam
Encoding: 33 33 259
Width: 284
VWidth: 0
Flags: HW
PickledData: "(dp1
S'org.robofab.postScriptHintData'
p2
(dp3
sS'com.typemytype.robofont.layerData'
p4
(dp5
S'b'
(dp6
S'name'
p7
S'exclam'
p8
sS'lib'
p9
(dp10
sS'unicodes'
p11
(tsS'width'
p12
F590
sS'contours'
p13
(tsS'components'
p14
(tsS'anchors'
p15
(tsss."
LayerCount: 2
Fore
SplineSet
122 184 m 257
 95 711 l 257
 201 711 l 257
 174 184 l 257
 122 184 l 257
103 0 m 257
 103 107 l 257
 194 107 l 257
 194 0 l 257
 103 0 l 257
EndSplineSet
EndChar

StartChar: exclamdown
Encoding: 161 161 260
Width: 279
VWidth: 0
Flags: HW
PickledData: "(dp1
S'org.robofab.postScriptHintData'
p2
(dp3
sS'com.typemytype.robofont.layerData'
p4
(dp5
S'b'
(dp6
S'name'
p7
S'exclamdown'
p8
sS'lib'
p9
(dp10
sS'unicodes'
p11
(tsS'width'
p12
F614.5
sS'contours'
p13
(tsS'components'
p14
(tsS'anchors'
p15
(tsss."
LayerCount: 2
Fore
SplineSet
95 557 m 257
 186 557 l 257
 186 449 l 257
 95 449 l 257
 95 557 l 257
113 373 m 257
 166 373 l 257
 193 -154 l 257
 86 -154 l 257
 113 373 l 257
EndSplineSet
EndChar

StartChar: f
Encoding: 102 102 261
Width: 354
VWidth: 0
Flags: HW
PickledData: "(dp1
S'org.robofab.postScriptHintData'
p2
(dp3
sS'com.typemytype.robofont.layerData'
p4
(dp5
S'b'
(dp6
S'name'
p7
S'f'
sS'lib'
p8
(dp9
sS'unicodes'
p10
(tsS'width'
p11
F733.10000000000002
sS'contours'
p12
(tsS'components'
p13
(tsS'anchors'
p14
(tsss."
AnchorPoint: "top" 175 711 basechar 0
LayerCount: 2
Fore
SplineSet
123 0 m 257
 123 441 l 257
 34 441 l 257
 34 501 l 257
 123 501 l 257
 123 542 l 258
 123 669 144 725 315 725 c 258
 338 725 l 257
 336 655 l 257
 221 655 213 634 213 549 c 258
 213 501 l 257
 333 501 l 257
 333 441 l 257
 213 441 l 257
 213 0 l 257
 123 0 l 257
EndSplineSet
EndChar

StartChar: uniFB00
Encoding: 64256 64256 262
Width: 658
VWidth: 0
Flags: HW
PickledData: "(dp1
S'org.robofab.postScriptHintData'
p2
(dp3
sS'com.typemytype.robofont.layerData'
p4
(dp5
s."
LayerCount: 2
Fore
SplineSet
519 446 m 257
 519 0 l 257
 436 0 l 257
 436 446 l 257
 205 446 l 257
 205 0 l 257
 122 0 l 257
 122 446 l 257
 33 446 l 257
 33 501 l 257
 122 501 l 257
 122 544 l 258
 122 669 144 725 310 725 c 258
 333 725 l 257
 333 660 l 257
 214 660 205 636 205 555 c 258
 205 501 l 257
 436 501 l 257
 436 544 l 258
 436 669 458 725 624 725 c 258
 646 725 l 257
 646 660 l 257
 527 660 519 636 519 555 c 258
 519 501 l 257
 640 501 l 257
 640 446 l 257
 519 446 l 257
EndSplineSet
EndChar

StartChar: uniFB03
Encoding: 64259 64259 263
Width: 893
VWidth: 0
Flags: HW
PickledData: "(dp1
S'org.robofab.postScriptHintData'
p2
(dp3
sS'com.typemytype.robofont.layerData'
p4
(dp5
s."
LayerCount: 2
Fore
SplineSet
809 632 m 257
 726 632 l 257
 726 711 l 257
 809 711 l 257
 809 632 l 257
809 0 m 257
 726 0 l 257
 726 446 l 257
 510 446 l 257
 510 0 l 257
 427 0 l 257
 427 446 l 257
 205 446 l 257
 205 0 l 257
 122 0 l 257
 122 446 l 257
 33 446 l 257
 33 501 l 257
 122 501 l 257
 122 544 l 258
 122 669 144 725 310 725 c 258
 333 725 l 257
 333 659 l 257
 214 659 205 635 205 554 c 258
 205 501 l 257
 427 501 l 257
 427 544 l 258
 427 669 448 725 615 725 c 258
 637 725 l 257
 636 659 l 257
 518 659 510 635 510 554 c 258
 510 501 l 257
 809 501 l 257
 809 0 l 257
EndSplineSet
EndChar

StartChar: uniFB04
Encoding: 64260 64260 264
Width: 925
VWidth: 0
Flags: HW
PickledData: "(dp1
S'org.robofab.postScriptHintData'
p2
(dp3
sS'com.typemytype.robofont.layerData'
p4
(dp5
s."
AnchorPoint: "top" 175 711 basechar 0
LayerCount: 2
Fore
SplineSet
123 0 m 257
 123 446 l 257
 33 446 l 257
 33 501 l 257
 123 501 l 257
 123 541 l 258
 123 668 144 725 315 725 c 258
 338 725 l 257
 337 655 l 257
 222 655 213 632 213 549 c 258
 213 501 l 257
 332 501 l 257
 332 446 l 257
 213 446 l 257
 213 0 l 257
 123 0 l 257
EndSplineSet
Refer: 269 64258 N 1 0 0 1 274 0 2
EndChar

StartChar: uniFB01
Encoding: 64257 64257 266
Width: 597
VWidth: 0
Flags: HW
PickledData: "(dp1
S'org.robofab.postScriptHintData'
p2
(dp3
sS'com.typemytype.robofont.layerData'
p4
(dp5
S'b'
(dp6
S'name'
p7
S'fi'
p8
sS'lib'
p9
(dp10
sS'unicodes'
p11
(tsS'width'
p12
F1237.6500000000001
sS'contours'
p13
((dp14
S'points'
p15
((dp16
S'segmentType'
p17
S'line'
p18
sS'x'
F249
sS'smooth'
p19
I00
sS'y'
F0
s(dp20
g17
S'line'
p21
sS'x'
F249
sg19
I00
sS'y'
F919
s(dp22
g17
S'line'
p23
sS'x'
F68
sg19
I00
sS'y'
F919
s(dp24
g17
S'line'
p25
sS'x'
F68
sg19
I00
sS'y'
F1026
s(dp26
g17
S'line'
p27
sS'x'
F249
sg19
I00
sS'y'
F1026
s(dp28
g17
S'line'
p29
sS'x'
F249
sg19
I01
sS'y'
F1127
s(dp30
S'y'
F1378
sS'x'
F249
sg19
I00
s(dp31
S'y'
F1492
sS'x'
F295
sg19
I00
s(dp32
g17
S'curve'
p33
sS'x'
F630
sg19
I01
sS'y'
F1492
s(dp34
g17
S'line'
p35
sS'x'
F676
sg19
I00
sS'y'
F1492
s(dp36
g17
S'line'
p37
sS'x'
F676
sg19
I00
sS'y'
F1364
s(dp38
S'y'
F1364
sS'x'
F431
sg19
I00
s(dp39
S'y'
F1311
sS'x'
F413
sg19
I00
s(dp40
g17
S'curve'
p41
sS'x'
F413
sg19
I01
sS'y'
F1150
s(dp42
g17
S'line'
p43
sS'x'
F413
sg19
I00
sS'y'
F1026
s(dp44
g17
S'line'
p45
sS'x'
F662
sg19
I00
sS'y'
F1026
s(dp46
g17
S'line'
p47
sS'x'
F662
sg19
I00
sS'y'
F919
s(dp48
g17
S'line'
p49
sS'x'
F413
sg19
I00
sS'y'
F919
s(dp50
g17
S'line'
p51
sS'x'
F413
sg19
I00
sS'y'
F0
stp52
s(dp53
g15
((dp54
g17
S'line'
p55
sS'x'
F869
sg19
I00
sS'y'
F0
s(dp56
g17
S'line'
p57
sS'x'
F869
sg19
I00
sS'y'
F1026
s(dp58
g17
S'line'
p59
sS'x'
F1033
sg19
I00
sS'y'
F1026
s(dp60
g17
S'line'
p61
sS'x'
F1033
sg19
I00
sS'y'
F0
stp62
s(dp63
g15
((dp64
g17
S'line'
p65
sS'x'
F869
sg19
I00
sS'y'
F1307
s(dp66
g17
S'line'
p67
sS'x'
F869
sg19
I00
sS'y'
F1462
s(dp68
g17
S'line'
p69
sS'x'
F1033
sg19
I00
sS'y'
F1462
s(dp70
g17
S'line'
p71
sS'x'
F1033
sg19
I00
sS'y'
F1307
stp72
stp73
sS'components'
p74
(tsS'anchors'
p75
(tsss."
LayerCount: 2
Fore
SplineSet
122 0 m 257
 122 445 l 257
 34 445 l 257
 34 501 l 257
 122 501 l 257
 122 544 l 258
 122 669 144 725 311 725 c 258
 334 725 l 257
 333 659 l 257
 215 659 207 635 207 554 c 258
 207 501 l 257
 446 501 l 257
 446 445 l 257
 207 445 l 257
 207 0 l 257
 122 0 l 257
EndSplineSet
Refer: 295 105 N 1 0 0 1 344 0 2
EndChar

StartChar: five
Encoding: 53 53 267
Width: 601
VWidth: 0
Flags: HW
PickledData: "(dp1
S'org.robofab.postScriptHintData'
p2
(dp3
sS'com.typemytype.robofont.layerData'
p4
(dp5
s."
LayerCount: 2
Fore
SplineSet
294 -11 m 256
 217 -11 138 14 79 72 c 257
 124 141 l 257
 174 89 236 68 293 68 c 256
 384 68 445 130 445 229 c 256
 445 311 398 377 315 377 c 256
 271 377 225 361 204 329 c 257
 116 337 l 257
 118 711 l 257
 499 711 l 257
 499 631 l 257
 203 631 l 257
 195 410 l 257
 225 444 276 459 326 459 c 256
 453 459 541 360 541 227 c 256
 541 79 433 -11 294 -11 c 256
EndSplineSet
EndChar

StartChar: uniFB02
Encoding: 64258 64258 269
Width: 617
VWidth: 0
Flags: HW
PickledData: "(dp1
S'org.robofab.postScriptHintData'
p2
(dp3
sS'com.typemytype.robofont.layerData'
p4
(dp5
S'b'
(dp6
S'name'
p7
S'fl'
p8
sS'lib'
p9
(dp10
sS'unicodes'
p11
(tsS'width'
p12
F1252.7
sS'contours'
p13
(tsS'components'
p14
((dp15
S'transformation'
p16
(I1
I0
I0
I1
I20
I0
tp17
sS'baseGlyph'
p18
S'f'
s(dp19
g16
(I1
I0
I0
I1
I714
I0
tp20
sg18
S'l'
stp21
sS'anchors'
p22
(tsss."
LayerCount: 2
Fore
SplineSet
131 0 m 257
 131 446 l 257
 34 446 l 257
 34 501 l 257
 131 501 l 257
 131 540 l 258
 131 666 174 716 359 716 c 258
 534 716 l 257
 534 0 l 257
 449 0 l 257
 449 650 l 257
 362 650 l 258
 237 650 215 628 215 553 c 258
 215 501 l 257
 336 501 l 257
 336 446 l 257
 215 446 l 257
 215 0 l 257
 131 0 l 257
EndSplineSet
EndChar

StartChar: florin
Encoding: 402 402 270
Width: 522
VWidth: 0
Flags: HW
PickledData: "(dp1
S'org.robofab.postScriptHintData'
p2
(dp3
sS'com.typemytype.robofont.layerData'
p4
(dp5
S'b'
(dp6
S'name'
p7
S'florin'
p8
sS'lib'
p9
(dp10
sS'unicodes'
p11
(tsS'width'
p12
F1073.0999999999999
sS'contours'
p13
(tsS'components'
p14
(tsS'anchors'
p15
(tsss."
LayerCount: 2
Fore
SplineSet
98 -146 m 256
 88 -146 68 -144 47 -138 c 257
 54 -77 l 257
 63 -79 76 -82 88 -82 c 256
 130 -82 162 -55 175 17 c 258
 244 398 l 257
 169 398 l 257
 180 457 l 257
 254 457 l 257
 271 550 l 257
 285 632 317 717 435 717 c 256
 478 717 513 701 513 701 c 257
 505 641 l 257
 487 646 467 651 448 651 c 256
 397 651 372 624 360 565 c 258
 338 457 l 257
 443 457 l 257
 432 398 l 257
 328 398 l 257
 264 42 l 257
 243 -80 213 -146 98 -146 c 256
EndSplineSet
EndChar

StartChar: foundryicon
Encoding: 65539 -1 271
Width: 657
VWidth: 0
Flags: HW
PickledData: "(dp1
S'org.robofab.postScriptHintData'
p2
(dp3
s."
LayerCount: 2
Fore
SplineSet
137 1 m 257
 207 225 l 257
 17 369 l 257
 253 369 l 257
 327 593 l 257
 404 369 l 257
 641 369 l 257
 450 225 l 257
 521 1 l 257
 327 136 l 257
 137 1 l 257
237 198 m 257
 289 198 l 257
 289 270 l 257
 372 198 l 257
 423 198 l 257
 423 328 l 257
 372 328 l 257
 372 255 l 257
 289 328 l 257
 237 328 l 257
 237 198 l 257
EndSplineSet
EndChar

StartChar: four
Encoding: 52 52 272
Width: 601
VWidth: 0
Flags: HW
PickledData: "(dp1
S'org.robofab.postScriptHintData'
p2
(dp3
sS'com.typemytype.robofont.layerData'
p4
(dp5
S'b'
(dp6
S'name'
p7
S'four'
p8
sS'lib'
p9
(dp10
sS'unicodes'
p11
(tsS'width'
p12
F1234.0999999999999
sS'contours'
p13
(tsS'components'
p14
(tsS'anchors'
p15
(tsss."
LayerCount: 2
Fore
SplineSet
149 257 m 257
 367 257 l 257
 367 621 l 257
 296 498 222 378 149 257 c 257
367 0 m 257
 367 188 l 257
 51 188 l 257
 51 250 l 257
 343 711 l 257
 457 711 l 257
 457 257 l 257
 563 257 l 257
 563 188 l 257
 457 188 l 257
 457 0 l 257
 367 0 l 257
EndSplineSet
EndChar

StartChar: uni2074
Encoding: 8308 8308 273
Width: 569
VWidth: 0
Flags: HW
PickledData: "(dp1
S'org.robofab.postScriptHintData'
p2
(dp3
sS'com.typemytype.robofont.layerData'
p4
(dp5
s."
LayerCount: 2
Fore
SplineSet
209 465 m 257
 326 465 l 257
 326 630 l 257
 209 465 l 257
327 321 m 257
 327 413 l 257
 142 413 l 257
 142 458 l 257
 321 711 l 257
 389 711 l 257
 389 465 l 257
 441 465 l 257
 440 413 l 257
 388 413 l 257
 388 321 l 257
 327 321 l 257
EndSplineSet
EndChar

StartChar: fraction
Encoding: 8260 8260 274
Width: 523
VWidth: 0
Flags: HW
PickledData: "(dp1
S'org.robofab.postScriptHintData'
p2
(dp3
sS'com.typemytype.robofont.layerData'
p4
(dp5
S'b'
(dp6
S'name'
p7
S'fraction'
p8
sS'lib'
p9
(dp10
sS'unicodes'
p11
(tsS'width'
p12
F1077.8
sS'contours'
p13
(tsS'components'
p14
(tsS'anchors'
p15
(tsss."
LayerCount: 2
Fore
SplineSet
12 0 m 257
 451 711 l 257
 536 711 l 257
 97 0 l 257
 12 0 l 257
EndSplineSet
EndChar

StartChar: g
Encoding: 103 103 275
Width: 618
VWidth: 0
Flags: HW
PickledData: "(dp1
S'org.robofab.postScriptHintData'
p2
(dp3
sS'com.typemytype.robofont.layerData'
p4
(dp5
S'b'
(dp6
S'name'
p7
S'g'
sS'lib'
p8
(dp9
sS'unicodes'
p10
(tsS'width'
p11
I1254
sS'contours'
p12
((dp13
S'points'
p14
((dp15
S'segmentType'
p16
S'curve'
p17
sS'x'
F580
sS'smooth'
p18
I01
sS'y'
F134
s(dp19
S'y'
F134
sS'x'
F799
sg18
I00
s(dp20
S'y'
F295
sS'x'
F920
sg18
I00
s(dp21
g16
S'curve'
p22
sS'x'
F920
sg18
I01
sS'y'
F550
s(dp23
S'y'
F775
sS'x'
F920
sg18
I00
s(dp24
S'y'
F918
sS'x'
F796
sg18
I00
s(dp25
g16
S'curve'
p26
sS'x'
F600
sg18
I01
sS'y'
F918
s(dp27
S'y'
F918
sS'x'
F399
sg18
I00
s(dp28
S'y'
F762
sS'x'
F268
sg18
I00
s(dp29
g16
S'curve'
p30
sS'x'
F268
sg18
I01
sS'y'
F515
s(dp31
S'y'
F282
sS'x'
F268
sg18
I00
s(dp32
S'y'
F134
sS'x'
F389
sg18
I00
stp33
s(dp34
g14
((dp35
g16
S'curve'
p36
sS'x'
F534
sg18
I01
sS'y'
F-420
s(dp37
S'y'
F-420
sS'x'
F408
sg18
I00
s(dp38
S'y'
F-381
sS'x'
F289
sg18
I00
s(dp39
g16
S'curve'
p40
sS'x'
F189
sg18
I00
sS'y'
F-331
s(dp41
g16
S'line'
p42
sS'x'
F216
sg18
I00
sS'y'
F-187
s(dp43
S'y'
F-238
sS'x'
F300
sg18
I00
s(dp44
S'y'
F-282
sS'x'
F416
sg18
I00
s(dp45
g16
S'curve'
p46
sS'x'
F528
sg18
I01
sS'y'
F-282
s(dp47
S'y'
F-282
sS'x'
F790
sg18
I00
s(dp48
S'y'
F-183
sS'x'
F920
sg18
I00
s(dp49
g16
S'curve'
p50
sS'x'
F920
sg18
I01
sS'y'
F49
s(dp51
g16
S'line'
p52
sS'x'
F920
sg18
I00
sS'y'
F273
s(dp53
g16
S'line'
p54
sS'x'
F948
sg18
I00
sS'y'
F253
s(dp55
S'y'
F139
sS'x'
F905
sg18
I00
s(dp56
S'y'
F0
sS'x'
F802
sg18
I00
s(dp57
g16
S'curve'
p58
sS'x'
F579
sg18
I01
sS'y'
F0
s(dp59
S'y'
F0
sS'x'
F298
sg18
I00
s(dp60
S'y'
F201
sS'x'
F98
sg18
I00
s(dp61
g16
S'curve'
p62
sS'x'
F98
sg18
I01
sS'y'
F511
s(dp63
S'y'
F843
sS'x'
F98
sg18
I00
s(dp64
S'y'
F1052
sS'x'
F284
sg18
I00
s(dp65
g16
S'curve'
p66
sS'x'
F579
sg18
I01
sS'y'
F1052
s(dp67
S'y'
F1052
sS'x'
F820
sg18
I00
s(dp68
S'y'
F900
sS'x'
F903
sg18
I00
s(dp69
g16
S'curve'
p70
sS'x'
F958
sg18
I00
sS'y'
F798
s(dp71
g16
S'line'
p72
sS'x'
F919
sg18
I00
sS'y'
F787
s(dp73
g16
S'line'
p74
sS'x'
F926
sg18
I00
sS'y'
F1026
s(dp75
g16
S'line'
p76
sS'x'
F1090
sg18
I00
sS'y'
F1026
s(dp77
S'y'
F1026
sS'x'
F1090
sg18
I00
s(dp78
S'y'
F857
sS'x'
F1084
sg18
I00
s(dp79
g16
S'curve'
p80
sS'x'
F1084
sg18
I01
sS'y'
F773
s(dp81
g16
S'line'
p82
sS'x'
F1084
sg18
I01
sS'y'
F143
s(dp83
S'y'
F-255
sS'x'
F1084
sg18
I00
s(dp84
S'y'
F-420
sS'x'
F903
sg18
I00
stp85
stp86
sS'components'
p87
(tsS'anchors'
p88
(tsss."
AnchorPoint: "top" 270 501 basechar 0
LayerCount: 2
Fore
SplineSet
290 77 m 256
 395 77 445 153 445 260 c 256
 445 368 391 440 296 440 c 256
 199 440 143 363 143 253 c 256
 143 142 196 77 290 77 c 256
279 -204 m 256
 214 -204 154 -191 94 -162 c 257
 108 -84 l 257
 166 -117 218 -131 275 -131 c 256
 379 -131 443 -77 443 42 c 258
 443 94 l 257
 418 49 368 7 285 7 c 256
 149 7 49 99 49 252 c 256
 49 404 132 514 284 514 c 256
 366 514 417 473 443 427 c 257
 445 501 l 257
 538 501 l 257
 538 501 532 420 532 366 c 258
 532 68 l 258
 532 -88 458 -204 279 -204 c 256
EndSplineSet
EndChar

StartChar: germandbls
Encoding: 223 223 282
Width: 610
VWidth: 0
Flags: HW
PickledData: "(dp1
S'org.robofab.postScriptHintData'
p2
(dp3
sS'com.typemytype.robofont.layerData'
p4
(dp5
S'b'
(dp6
S'name'
p7
S'germandbls'
p8
sS'lib'
p9
(dp10
sS'unicodes'
p11
(tsS'width'
p12
F1250.95
sS'contours'
p13
(tsS'components'
p14
(tsS'anchors'
p15
(tsss."
LayerCount: 2
Fore
SplineSet
372 61 m 256
 434 61 479 95 479 162 c 256
 479 255 406 310 271 367 c 257
 271 435 l 257
 368 469 402 511 402 573 c 256
 402 627 359 662 294 662 c 256
 213 662 170 599 170 502 c 258
 170 0 l 257
 82 0 l 257
 81 501 l 258
 81 653 161 734 294 734 c 256
 417 734 496 671 496 577 c 256
 496 500 456 451 375 417 c 256
 368 413 351 406 343 404 c 257
 351 402 368 396 376 393 c 256
 477 356 575 290 575 167 c 256
 575 57 492 -12 390 -12 c 256
 310 -12 243 14 233 18 c 257
 247 89 l 257
 256 85 318 61 372 61 c 256
EndSplineSet
EndChar

StartChar: grave
Encoding: 96 96 283
Width: 291
VWidth: 0
Flags: HW
PickledData: "(dp1
S'org.robofab.postScriptHintData'
p2
(dp3
sS'com.typemytype.robofont.layerData'
p4
(dp5
s."
AnchorPoint: "top" 226 501 mark 0
LayerCount: 2
Fore
SplineSet
187 573 m 257
 22 749 l 257
 140 749 l 257
 262 573 l 257
 187 573 l 257
EndSplineSet
EndChar

StartChar: greater
Encoding: 62 62 284
Width: 613
VWidth: 0
Flags: HW
PickledData: "(dp1
S'org.robofab.postScriptHintData'
p2
(dp3
sS'com.typemytype.robofont.layerData'
p4
(dp5
S'b'
(dp6
S'name'
p7
S'greater'
p8
sS'lib'
p9
(dp10
sS'unicodes'
p11
(tsS'width'
p12
F1268.05
sS'contours'
p13
(tsS'components'
p14
(tsS'anchors'
p15
(tsss."
LayerCount: 2
Fore
SplineSet
105 33 m 257
 105 118 l 257
 446 273 l 257
 107 441 l 257
 107 525 l 257
 563 294 l 257
 563 246 l 257
 105 33 l 257
EndSplineSet
EndChar

StartChar: greaterequal
Encoding: 8805 8805 285
Width: 659
VWidth: 0
Flags: HW
PickledData: "(dp1
S'org.robofab.postScriptHintData'
p2
(dp3
sS'com.typemytype.robofont.layerData'
p4
(dp5
S'b'
(dp6
S'name'
p7
S'greaterequal'
p8
sS'lib'
p9
(dp10
sS'unicodes'
p11
(tsS'width'
p12
F1350.3499999999999
sS'contours'
p13
(tsS'components'
p14
(tsS'anchors'
p15
(tsss."
LayerCount: 2
Fore
SplineSet
92 0 m 257
 92 63 l 257
 568 63 l 257
 568 0 l 257
 92 0 l 257
97 104 m 257
 97 189 l 257
 441 346 l 257
 99 512 l 257
 99 596 l 257
 554 368 l 257
 554 321 l 257
 97 104 l 257
EndSplineSet
EndChar

StartChar: guillemotleft
Encoding: 171 171 286
Width: 545
VWidth: 0
Flags: HW
PickledData: "(dp1
S'org.robofab.postScriptHintData'
p2
(dp3
sS'com.typemytype.robofont.layerData'
p4
(dp5
S'b'
(dp6
S'name'
p7
S'guillemotright'
p8
sS'lib'
p9
(dp10
sS'unicodes'
p11
(tsS'width'
p12
F1122.45
sS'contours'
p13
(tsS'components'
p14
(tsS'anchors'
p15
(tsss."
LayerCount: 2
Fore
SplineSet
406 83 m 257
 274 265 l 257
 409 448 l 257
 489 448 l 257
 367 265 l 257
 485 83 l 257
 406 83 l 257
197 83 m 257
 64 265 l 257
 199 448 l 257
 278 448 l 257
 158 265 l 257
 274 83 l 257
 197 83 l 257
EndSplineSet
EndChar

StartChar: guillemotright
Encoding: 187 187 287
Width: 545
VWidth: 0
Flags: HW
PickledData: "(dp1
S'org.robofab.postScriptHintData'
p2
(dp3
sS'com.typemytype.robofont.layerData'
p4
(dp5
S'b'
(dp6
S'name'
p7
S'guillemotright'
p8
sS'lib'
p9
(dp10
sS'unicodes'
p11
(tsS'width'
p12
F1122.45
sS'contours'
p13
(tsS'components'
p14
(tsS'anchors'
p15
(tsss."
LayerCount: 2
Fore
SplineSet
276 82 m 257
 396 265 l 257
 280 447 l 257
 357 447 l 257
 490 265 l 257
 355 82 l 257
 276 82 l 257
66 82 m 257
 187 265 l 257
 70 447 l 257
 148 447 l 257
 280 265 l 257
 145 82 l 257
 66 82 l 257
EndSplineSet
EndChar

StartChar: guilsinglleft
Encoding: 8249 8249 288
Width: 334
VWidth: 0
Flags: HW
PickledData: "(dp1
S'org.robofab.postScriptHintData'
p2
(dp3
sS'com.typemytype.robofont.layerData'
p4
(dp5
S'b'
(dp6
S'name'
p7
S'guilsinglleft'
p8
sS'lib'
p9
(dp10
sS'unicodes'
p11
(tsS'width'
p12
F688.39999999999998
sS'contours'
p13
(tsS'components'
p14
(tsS'anchors'
p15
(tsss."
LayerCount: 2
Fore
SplineSet
200 82 m 257
 67 264 l 257
 203 447 l 257
 282 447 l 257
 161 264 l 257
 278 82 l 257
 200 82 l 257
EndSplineSet
EndChar

StartChar: guilsinglright
Encoding: 8250 8250 289
Width: 334
VWidth: 0
Flags: HW
PickledData: "(dp1
S'org.robofab.postScriptHintData'
p2
(dp3
sS'com.typemytype.robofont.layerData'
p4
(dp5
S'b'
(dp6
S'name'
p7
S'guilsinglleft'
p8
sS'lib'
p9
(dp10
sS'unicodes'
p11
(tsS'width'
p12
F688.39999999999998
sS'contours'
p13
(tsS'components'
p14
(tsS'anchors'
p15
(tsss."
LayerCount: 2
Fore
SplineSet
65 82 m 257
 186 265 l 257
 69 447 l 257
 146 447 l 257
 279 265 l 257
 144 82 l 257
 65 82 l 257
EndSplineSet
EndChar

StartChar: h
Encoding: 104 104 290
Width: 604
VWidth: 0
Flags: HW
PickledData: "(dp1
S'org.robofab.postScriptHintData'
p2
(dp3
sS'com.typemytype.robofont.layerData'
p4
(dp5
S'b'
(dp6
S'name'
p7
S'h'
sS'lib'
p8
(dp9
sS'unicodes'
p10
(tsS'width'
p11
F1237.95
sS'contours'
p12
((dp13
S'points'
p14
((dp15
S'segmentType'
p16
S'line'
p17
sS'x'
F178
sS'smooth'
p18
I00
sS'y'
F0
s(dp19
g16
S'line'
p20
sS'x'
F178
sg18
I01
sS'y'
F779
s(dp21
S'y'
F902
sS'x'
F178
sg18
I00
s(dp22
S'y'
F1026
sS'x'
F172
sg18
I00
s(dp23
g16
S'curve'
p24
sS'x'
F172
sg18
I00
sS'y'
F1026
s(dp25
g16
S'line'
p26
sS'x'
F339
sg18
I00
sS'y'
F1026
s(dp27
g16
S'line'
p28
sS'x'
F343
sg18
I00
sS'y'
F864
s(dp29
S'y'
F976
sS'x'
F423
sg18
I00
s(dp30
S'y'
F1051
sS'x'
F548
sg18
I00
s(dp31
g16
S'curve'
p32
sS'x'
F700
sg18
I01
sS'y'
F1051
s(dp33
S'y'
F1051
sS'x'
F999
sg18
I00
s(dp34
S'y'
F844
sS'x'
F1082
sg18
I00
s(dp35
g16
S'curve'
p36
sS'x'
F1082
sg18
I01
sS'y'
F550
s(dp37
g16
S'line'
p38
sS'x'
F1082
sg18
I00
sS'y'
F0
s(dp39
g16
S'line'
p40
sS'x'
F917
sg18
I00
sS'y'
F0
s(dp41
g16
S'line'
p42
sS'x'
F917
sg18
I01
sS'y'
F531
s(dp43
S'y'
F764
sS'x'
F917
sg18
I00
s(dp44
S'y'
F917
sS'x'
F886
sg18
I00
s(dp45
g16
S'curve'
p46
sS'x'
F670
sg18
I01
sS'y'
F917
s(dp47
S'y'
F917
sS'x'
F471
sg18
I00
s(dp48
S'y'
F742
sS'x'
F344
sg18
I00
s(dp49
g16
S'curve'
p50
sS'x'
F343
sg18
I00
sS'y'
F652
s(dp51
g16
S'line'
p52
sS'x'
F343
sg18
I00
sS'y'
F0
stp53
stp54
sS'components'
p55
(tsS'anchors'
p56
(tsss."
AnchorPoint: "top" 341 501 basechar 0
LayerCount: 2
Fore
SplineSet
81 0 m 257
 81 726 l 257
 171 726 l 257
 171 422 l 257
 201 477 270 514 341 514 c 256
 469 514 527 418 527 302 c 258
 527 0 l 257
 437 0 l 257
 437 300 l 258
 437 398 405 440 329 440 c 256
 247 440 171 376 171 304 c 258
 171 0 l 257
 81 0 l 257
EndSplineSet
EndChar

StartChar: hungarumlaut
Encoding: 733 733 293
Width: 473
VWidth: 0
Flags: HW
PickledData: "(dp1
S'org.robofab.postScriptHintData'
p2
(dp3
s."
AnchorPoint: "top" 137 501 mark 0
LayerCount: 2
Fore
SplineSet
199 566 m 257
 316 748 l 257
 418 748 l 257
 266 566 l 257
 199 566 l 257
41 566 m 257
 144 748 l 257
 241 748 l 257
 105 566 l 257
 41 566 l 257
EndSplineSet
EndChar

StartChar: hyphen
Encoding: 45 45 294
Width: 331
VWidth: 0
Flags: HW
PickledData: "(dp1
S'org.robofab.postScriptHintData'
p2
(dp3
sS'com.typemytype.robofont.layerData'
p4
(dp5
S'b'
(dp6
S'name'
p7
S'hyphen'
p8
sS'lib'
p9
(dp10
sS'unicodes'
p11
(tsS'width'
p12
F683.5
sS'contours'
p13
(tsS'components'
p14
(tsS'anchors'
p15
(tsss."
LayerCount: 2
Fore
SplineSet
30 238 m 257
 30 307 l 257
 301 307 l 257
 301 238 l 257
 30 238 l 257
EndSplineSet
EndChar

StartChar: i
Encoding: 105 105 295
Width: 253
VWidth: 0
Flags: HW
PickledData: "(dp1
S'org.robofab.postScriptHintData'
p2
(dp3
sS'com.typemytype.robofont.layerData'
p4
(dp5
S'b'
(dp6
S'name'
p7
S'i'
sS'lib'
p8
(dp9
sS'unicodes'
p10
(tsS'width'
p11
F521.10000000000002
sS'contours'
p12
(tsS'components'
p13
(tsS'anchors'
p14
(tsss."
LayerCount: 2
Fore
SplineSet
84 627 m 257
 84 711 l 257
 173 711 l 257
 173 627 l 257
 84 627 l 257
84 0 m 257
 84 501 l 257
 173 501 l 257
 173 0 l 257
 84 0 l 257
EndSplineSet
EndChar

StartChar: Delta
Encoding: 8710 8710 307
Width: 639
VWidth: 0
Flags: HW
PickledData: "(dp1
S'org.robofab.postScriptHintData'
p2
(dp3
sS'com.typemytype.robofont.layerData'
p4
(dp5
S'b'
(dp6
S'name'
p7
S'uni2206'
p8
sS'lib'
p9
(dp10
sS'unicodes'
p11
(tsS'width'
p12
F1312.25
sS'contours'
p13
(tsS'components'
p14
(tsS'anchors'
p15
(tsss."
LayerCount: 2
Fore
SplineSet
124 69 m 257
 511 69 l 257
 321 604 l 257
 124 69 l 257
27 0 m 257
 27 41 l 257
 285 710 l 257
 360 710 l 257
 610 41 l 257
 610 0 l 257
 27 0 l 257
EndSplineSet
EndChar

StartChar: infinity
Encoding: 8734 8734 308
Width: 843
VWidth: 0
Flags: HW
PickledData: "(dp1
S'org.robofab.postScriptHintData'
p2
(dp3
s."
LayerCount: 2
Fore
SplineSet
619 177 m 256
 691 177 724 232 724 303 c 256
 724 357 680 403 617 403 c 256
 553 403 497 349 457 291 c 257
 515 217 559 177 619 177 c 256
229 177 m 256
 291 177 343 228 388 289 c 257
 343 354 291 403 224 403 c 256
 155 403 115 352 115 291 c 256
 115 233 160 177 229 177 c 256
225 115 m 256
 119 115 47 200 47 301 c 256
 47 392 130 465 223 465 c 256
 304 465 365 416 422 341 c 257
 476 414 536 465 619 465 c 256
 726 465 794 393 794 292 c 256
 794 188 713 115 618 115 c 256
 546 115 486 155 421 238 c 257
 365 165 304 115 225 115 c 256
EndSplineSet
EndChar

StartChar: integral
Encoding: 8747 8747 309
Width: 365
VWidth: 0
Flags: HW
PickledData: "(dp1
S'org.robofab.postScriptHintData'
p2
(dp3
sS'com.typemytype.robofont.layerData'
p4
(dp5
S'b'
(dp6
S'name'
p7
S'integral'
p8
sS'lib'
p9
(dp10
sS'unicodes'
p11
(tsS'width'
p12
F754
sS'contours'
p13
(tsS'components'
p14
(tsS'anchors'
p15
(tsss."
LayerCount: 2
Fore
SplineSet
88 -149 m 256
 44 -149 18 -138 18 -138 c 257
 18 -68 l 257
 18 -68 57 -75 83 -75 c 256
 144 -75 154 -41 154 24 c 258
 154 581 l 258
 154 687 182 765 293 765 c 256
 336 765 361 754 361 754 c 257
 361 683 l 257
 361 683 336 691 308 691 c 256
 247 691 237 657 237 592 c 258
 237 36 l 258
 237 -70 199 -149 88 -149 c 256
EndSplineSet
EndChar

StartChar: j
Encoding: 106 106 312
Width: 245
VWidth: 0
Flags: HW
PickledData: "(dp1
S'org.robofab.postScriptHintData'
p2
(dp3
sS'com.typemytype.robofont.layerData'
p4
(dp5
S'b'
(dp6
S'name'
p7
S'j'
sS'lib'
p8
(dp9
sS'unicodes'
p10
(tsS'width'
p11
F536.89999999999998
sS'contours'
p12
((dp13
S'points'
p14
((dp15
S'segmentType'
p16
S'curve'
p17
sS'x'
F65
sS'smooth'
p18
I01
sS'y'
F-410
s(dp19
S'y'
F-410
sS'x'
F-24
sg18
I00
s(dp20
S'y'
F-390
sS'x'
F-117
sg18
I00
s(dp21
g16
S'curve'
p22
sS'x'
F-117
sg18
I00
sS'y'
F-390
s(dp23
g16
S'line'
p24
sS'x'
F-102
sg18
I00
sS'y'
F-267
s(dp25
S'y'
F-267
sS'x'
F-102
sg18
I00
s(dp26
S'y'
F-280
sS'x'
F-44
sg18
I00
s(dp27
g16
S'curve'
p28
sS'x'
F19
sg18
I01
sS'y'
F-280
s(dp29
S'y'
F-280
sS'x'
F153
sg18
I00
s(dp30
S'y'
F-208
sS'x'
F177
sg18
I00
s(dp31
g16
S'curve'
p32
sS'x'
F177
sg18
I01
sS'y'
F-2
s(dp33
g16
S'line'
p34
sS'x'
F177
sg18
I00
sS'y'
F1026
s(dp35
g16
S'line'
p36
sS'x'
F341
sg18
I00
sS'y'
F1026
s(dp37
g16
S'line'
p38
sS'x'
F341
sg18
I01
sS'y'
F-6
s(dp39
S'y'
F-274
sS'x'
F341
sg18
I00
s(dp40
S'y'
F-410
sS'x'
F246
sg18
I00
stp41
s(dp42
g14
((dp43
g16
S'line'
p44
sS'x'
F177
sg18
I00
sS'y'
F1307
s(dp45
g16
S'line'
p46
sS'x'
F177
sg18
I00
sS'y'
F1462
s(dp47
g16
S'line'
p48
sS'x'
F341
sg18
I00
sS'y'
F1462
s(dp49
g16
S'line'
p50
sS'x'
F341
sg18
I00
sS'y'
F1307
stp51
stp52
sS'components'
p53
(tsS'anchors'
p54
(tsss."
LayerCount: 2
Fore
SplineSet
80 624 m 257
 80 711 l 257
 169 711 l 257
 169 624 l 257
 80 624 l 257
EndSplineSet
Refer: 235 567 N 1 0 0 1 0 0 2
EndChar

StartChar: k
Encoding: 107 107 315
Width: 542
VWidth: 0
Flags: HW
PickledData: "(dp1
S'org.robofab.postScriptHintData'
p2
(dp3
sS'com.typemytype.robofont.layerData'
p4
(dp5
S'b'
(dp6
S'name'
p7
S'k'
sS'lib'
p8
(dp9
sS'unicodes'
p10
(tsS'width'
p11
F1078.6500000000001
sS'contours'
p12
(tsS'components'
p13
(tsS'anchors'
p14
(tsss."
AnchorPoint: "top" 340 501 basechar 0
LayerCount: 2
Fore
SplineSet
85 0 m 257
 85 726 l 257
 175 726 l 257
 175 287 l 257
 392 501 l 257
 515 501 l 257
 261 262 l 257
 533 0 l 257
 414 0 l 257
 175 237 l 257
 175 0 l 257
 85 0 l 257
EndSplineSet
EndChar

StartChar: kgreenlandic
Encoding: 312 312 318
Width: 528
VWidth: 0
Flags: HW
PickledData: "(dp1
S'org.robofab.postScriptHintData'
p2
(dp3
sS'com.typemytype.robofont.layerData'
p4
(dp5
s."
LayerCount: 2
Fore
SplineSet
83 0 m 257
 83 501 l 257
 173 501 l 257
 173 279 l 257
 388 501 l 257
 507 501 l 257
 252 252 l 257
 525 0 l 257
 409 0 l 257
 173 222 l 257
 173 0 l 257
 83 0 l 257
EndSplineSet
EndChar

StartChar: l
Encoding: 108 108 319
Width: 256
VWidth: 0
Flags: HW
PickledData: "(dp1
S'org.robofab.postScriptHintData'
p2
(dp3
sS'com.typemytype.robofont.layerData'
p4
(dp5
S'b'
(dp6
S'name'
p7
S'l'
sS'lib'
p8
(dp9
sS'unicodes'
p10
(tsS'width'
p11
F521.79999999999995
sS'contours'
p12
(tsS'components'
p13
(tsS'anchors'
p14
(tsss."
AnchorPoint: "caron.alt" 124 501 basechar 0
AnchorPoint: "top" 131 711 basechar 0
LayerCount: 2
Fore
SplineSet
86 0 m 257
 86 726 l 257
 176 726 l 257
 176 0 l 257
 86 0 l 257
EndSplineSet
EndChar

StartChar: less
Encoding: 60 60 324
Width: 612
VWidth: 0
Flags: HW
PickledData: "(dp1
S'org.robofab.postScriptHintData'
p2
(dp3
sS'com.typemytype.robofont.layerData'
p4
(dp5
S'b'
(dp6
S'name'
p7
S'less'
p8
sS'lib'
p9
(dp10
sS'unicodes'
p11
(tsS'width'
p12
F1267.3499999999999
sS'contours'
p13
(tsS'components'
p14
(tsS'anchors'
p15
(tsss."
LayerCount: 2
Fore
SplineSet
507 33 m 257
 51 261 l 257
 51 308 l 257
 509 523 l 257
 509 439 l 257
 165 283 l 257
 507 116 l 257
 507 33 l 257
EndSplineSet
EndChar

StartChar: lessequal
Encoding: 8804 8804 325
Width: 659
VWidth: 0
Flags: HW
PickledData: "(dp1
S'org.robofab.postScriptHintData'
p2
(dp3
sS'com.typemytype.robofont.layerData'
p4
(dp5
S'b'
(dp6
S'name'
p7
S'lessequal'
p8
sS'lib'
p9
(dp10
sS'unicodes'
p11
(tsS'width'
p12
F1350.3499999999999
sS'contours'
p13
(tsS'components'
p14
(tsS'anchors'
p15
(tsss."
LayerCount: 2
Fore
SplineSet
82 0 m 257
 82 63 l 257
 558 63 l 257
 558 0 l 257
 82 0 l 257
548 105 m 257
 92 332 l 257
 92 379 l 257
 550 596 l 257
 550 511 l 257
 206 354 l 257
 548 188 l 257
 548 105 l 257
EndSplineSet
EndChar

StartChar: logicalnot
Encoding: 172 172 327
Width: 714
VWidth: 0
Flags: HW
PickledData: "(dp1
S'org.robofab.postScriptHintData'
p2
(dp3
sS'com.typemytype.robofont.layerData'
p4
(dp5
S'b'
(dp6
S'name'
p7
S'logicalnot'
p8
sS'lib'
p9
(dp10
sS'unicodes'
p11
(tsS'width'
p12
F1463.2
sS'contours'
p13
(tsS'components'
p14
(tsS'anchors'
p15
(tsss."
LayerCount: 2
Fore
SplineSet
527 114 m 257
 527 315 l 257
 96 315 l 257
 96 392 l 257
 610 392 l 257
 610 114 l 257
 527 114 l 257
EndSplineSet
EndChar

StartChar: lozenge
Encoding: 9674 9674 329
Width: 609
VWidth: 0
Flags: HW
PickledData: "(dp1
S'org.robofab.postScriptHintData'
p2
(dp3
sS'com.typemytype.robofont.layerData'
p4
(dp5
s."
LayerCount: 2
Fore
SplineSet
298 64 m 257
 466 347 l 257
 302 626 l 257
 134 347 l 257
 298 64 l 257
269 -21 m 257
 50 347 l 257
 272 714 l 257
 331 714 l 257
 551 347 l 257
 327 -21 l 257
 269 -21 l 257
EndSplineSet
EndChar

StartChar: lslash
Encoding: 322 322 330
Width: 245
VWidth: 0
Flags: HW
PickledData: "(dp1
S'org.robofab.postScriptHintData'
p2
(dp3
s."
LayerCount: 2
Fore
SplineSet
76 0 m 257
 76 341 l 257
 0 292 l 257
 0 369 l 257
 76 418 l 257
 76 724 l 257
 167 724 l 257
 167 477 l 257
 242 526 l 257
 242 449 l 257
 167 399 l 257
 167 0 l 257
 76 0 l 257
EndSplineSet
EndChar

StartChar: m
Encoding: 109 109 331
Width: 918
VWidth: 0
Flags: HW
PickledData: "(dp1
S'org.robofab.postScriptHintData'
p2
(dp3
sS'com.typemytype.robofont.guides'
p4
(tsS'com.typemytype.robofont.layerData'
p5
(dp6
S'b'
(dp7
S'name'
p8
S'm'
sS'lib'
p9
(dp10
sS'unicodes'
p11
(tsS'width'
p12
F1873.95
sS'contours'
p13
(tsS'components'
p14
(tsS'anchors'
p15
(tsss."
AnchorPoint: "top" 487 501 basechar 0
LayerCount: 2
Fore
SplineSet
86 0 m 257
 86 370 l 258
 86 425 82 472 81 501 c 257
 174 501 l 257
 175 420 l 257
 202 480 267 514 335 514 c 256
 406 514 464 475 488 405 c 257
 524 472 588 514 667 514 c 256
 783 514 841 436 841 307 c 258
 841 0 l 257
 751 0 l 257
 751 299 l 258
 751 384 724 440 659 440 c 256
 579 440 514 374 510 289 c 257
 510 0 l 257
 420 0 l 257
 420 307 l 258
 420 381 394 440 322 440 c 256
 241 440 182 378 177 305 c 257
 177 0 l 257
 86 0 l 257
EndSplineSet
EndChar

StartChar: macron
Encoding: 175 175 332
Width: 351
VWidth: 0
Flags: HW
PickledData: "(dp1
S'org.robofab.postScriptHintData'
p2
(dp3
sS'com.typemytype.robofont.layerData'
p4
(dp5
S'b'
(dp6
S'name'
p7
S'macron'
p8
sS'lib'
p9
(dp10
sS'unicodes'
p11
(tsS'width'
p12
F723
sS'contours'
p13
(tsS'components'
p14
(tsS'anchors'
p15
(tsss."
AnchorPoint: "top" 167 501 mark 0
LayerCount: 2
Fore
SplineSet
33 606 m 257
 33 667 l 257
 318 667 l 257
 318 606 l 257
 33 606 l 257
EndSplineSet
EndChar

StartChar: minus
Encoding: 8722 8722 335
Width: 628
VWidth: 0
Flags: HW
PickledData: "(dp1
S'org.robofab.postScriptHintData'
p2
(dp3
s."
LayerCount: 2
Fore
SplineSet
85 216 m 257
 85 291 l 257
 543 291 l 257
 543 216 l 257
 85 216 l 257
EndSplineSet
EndChar

StartChar: uni03BC
Encoding: 956 956 336
Width: 584
VWidth: 0
Flags: HW
PickledData: "(dp1
S'org.robofab.postScriptHintData'
p2
(dp3
s."
LayerCount: 2
Fore
SplineSet
423 126 m 257
 403 100 360 55 277 55 c 256
 194 55 164 108 164 199 c 258
 164 528 l 257
 75 528 l 257
 75 -141 l 257
 164 -141 l 257
 164 11 l 257
 191 -3 225 -10 265 -10 c 256
 343 -10 395 22 430 66 c 257
 435 0 l 257
 511 0 l 257
 511 528 l 257
 423 528 l 257
 423 126 l 257
EndSplineSet
EndChar

StartChar: multiply
Encoding: 215 215 337
Width: 601
VWidth: 0
Flags: HW
PickledData: "(dp1
S'org.robofab.postScriptHintData'
p2
(dp3
sS'com.typemytype.robofont.layerData'
p4
(dp5
s."
LayerCount: 2
Fore
SplineSet
164 71 m 257
 106 128 l 257
 248 270 l 257
 106 411 l 257
 164 469 l 257
 305 327 l 257
 446 469 l 257
 504 411 l 257
 362 270 l 257
 504 128 l 257
 446 71 l 257
 305 211 l 257
 164 71 l 257
EndSplineSet
EndChar

StartChar: n
Encoding: 110 110 338
Width: 607
VWidth: 0
Flags: HW
PickledData: "(dp1
S'org.robofab.postScriptHintData'
p2
(dp3
sS'com.typemytype.robofont.layerData'
p4
(dp5
S'b'
(dp6
S'name'
p7
S'n'
sS'lib'
p8
(dp9
sS'unicodes'
p10
(tsS'width'
p11
F1240.05
sS'contours'
p12
(tsS'components'
p13
(tsS'anchors'
p14
(tsss."
AnchorPoint: "top" 334 501 basechar 0
LayerCount: 2
Fore
SplineSet
86 0 m 257
 86 362 l 258
 86 437 81 501 81 501 c 257
 174 501 l 257
 175 422 l 257
 210 481 279 514 346 514 c 256
 473 514 530 436 530 282 c 258
 530 0 l 257
 440 0 l 257
 440 282 l 258
 440 386 415 440 330 440 c 256
 254 440 182 380 177 314 c 257
 177 0 l 257
 86 0 l 257
EndSplineSet
EndChar

StartChar: nine
Encoding: 57 57 343
Width: 601
VWidth: 0
Flags: HW
PickledData: "(dp1
S'org.robofab.postScriptHintData'
p2
(dp3
sS'com.typemytype.robofont.layerData'
p4
(dp5
S'b'
(dp6
S'name'
p7
S'nine'
p8
sS'lib'
p9
(dp10
sS'unicodes'
p11
(tsS'width'
p12
F1235.4000000000001
sS'contours'
p13
((dp14
S'points'
p15
((dp16
S'segmentType'
p17
S'curve'
p18
sS'x'
F314
sS'smooth'
p19
I01
sS'y'
F1010
s(dp20
S'y'
F827
sS'x'
F314
sg19
I00
s(dp21
S'y'
F687
sS'x'
F393
sg19
I00
s(dp22
g17
S'curve'
p23
sS'x'
F604
sg19
I01
sS'y'
F687
s(dp24
S'y'
F687
sS'x'
F784
sg19
I00
s(dp25
S'y'
F803
sS'x'
F908
sg19
I00
s(dp26
g17
S'curve'
p27
sS'x'
F908
sg19
I01
sS'y'
F991
s(dp28
S'y'
F1166
sS'x'
F908
sg19
I00
s(dp29
S'y'
F1334
sS'x'
F815
sg19
I00
s(dp30
g17
S'curve'
p31
sS'x'
F605
sg19
I01
sS'y'
F1334
s(dp32
S'y'
F1334
sS'x'
F419
sg19
I00
s(dp33
S'y'
F1196
sS'x'
F314
sg19
I00
stp34
s(dp35
g15
((dp36
g17
S'curve'
p37
sS'x'
F555
sg19
I01
sS'y'
F-24
s(dp38
S'y'
F-24
sS'x'
F434
sg19
I00
s(dp39
S'y'
F13
sS'x'
F304
sg19
I00
s(dp40
g17
S'curve'
p41
sS'x'
F175
sg19
I00
sS'y'
F79
s(dp42
g17
S'line'
p43
sS'x'
F232
sg19
I00
sS'y'
F211
s(dp44
S'y'
F152
sS'x'
F346
sg19
I00
s(dp45
S'y'
F124
sS'x'
F450
sg19
I00
s(dp46
g17
S'curve'
p47
sS'x'
F542
sg19
I01
sS'y'
F124
s(dp48
S'y'
F124
sS'x'
F773
sg19
I00
s(dp49
S'y'
F308
sS'x'
F920
sg19
I00
s(dp50
g17
S'curve'
p51
sS'x'
F920
sg19
I01
sS'y'
F657
s(dp52
g17
S'line'
p53
sS'x'
F920
sg19
I00
sS'y'
F722
s(dp54
S'y'
F600
sS'x'
F856
sg19
I00
s(dp55
S'y'
F544
sS'x'
F742
sg19
I00
s(dp56
g17
S'curve'
p57
sS'x'
F577
sg19
I01
sS'y'
F544
s(dp58
S'y'
F544
sS'x'
F298
sg19
I00
s(dp59
S'y'
F735
sS'x'
F138
sg19
I00
s(dp60
g17
S'curve'
p61
sS'x'
F138
sg19
I01
sS'y'
F1004
s(dp62
S'y'
F1275
sS'x'
F138
sg19
I00
s(dp63
S'y'
F1483
sS'x'
F311
sg19
I00
s(dp64
g17
S'curve'
p65
sS'x'
F613
sg19
I01
sS'y'
F1483
s(dp66
S'y'
F1483
sS'x'
F939
sg19
I00
s(dp67
S'y'
F1231
sS'x'
F1095
sg19
I00
s(dp68
g17
S'curve'
p69
sS'x'
F1095
sg19
I01
sS'y'
F774
s(dp70
S'y'
F203
sS'x'
F1095
sg19
I00
s(dp71
S'y'
F-24
sS'x'
F855
sg19
I00
stp72
stp73
sS'components'
p74
(tsS'anchors'
p75
(tsss."
LayerCount: 2
Fore
SplineSet
292 338 m 256
 381 338 439 397 439 480 c 256
 439 564 395 645 297 645 c 256
 209 645 159 579 159 490 c 256
 159 405 198 338 292 338 c 256
273 -11 m 256
 215 -11 159 5 101 35 c 257
 133 109 l 257
 175 83 221 68 267 68 c 256
 382 68 444 169 444 318 c 256
 444 320 444 341 444 342 c 257
 414 290 356 261 282 261 c 256
 150 261 64 353 64 488 c 256
 64 621 152 724 297 724 c 256
 457 724 537 599 537 377 c 256
 537 132 438 -11 273 -11 c 256
EndSplineSet
EndChar

StartChar: notequal
Encoding: 8800 8800 345
Width: 664
VWidth: 0
Flags: HW
PickledData: "(dp1
S'org.robofab.postScriptHintData'
p2
(dp3
sS'com.typemytype.robofont.layerData'
p4
(dp5
S'b'
(dp6
S'name'
p7
S'notequal'
p8
sS'lib'
p9
(dp10
sS'unicodes'
p11
(tsS'width'
p12
F1362.5
sS'contours'
p13
(tsS'components'
p14
(tsS'anchors'
p15
(tsss."
LayerCount: 2
Fore
SplineSet
235 21 m 257
 167 31 l 257
 228 156 l 257
 84 156 l 257
 84 223 l 257
 261 223 l 257
 327 349 l 257
 84 349 l 257
 84 416 l 257
 359 416 l 257
 424 548 l 257
 494 538 l 257
 434 416 l 257
 588 416 l 257
 588 349 l 257
 402 349 l 257
 335 223 l 257
 588 223 l 257
 588 156 l 257
 302 156 l 257
 235 21 l 257
EndSplineSet
EndChar

StartChar: numbersign
Encoding: 35 35 347
Width: 634
VWidth: 0
Flags: HW
PickledData: "(dp1
S'org.robofab.postScriptHintData'
p2
(dp3
sS'com.typemytype.robofont.layerData'
p4
(dp5
s."
LayerCount: 2
Fore
SplineSet
243 297 m 257
 367 297 l 257
 394 435 l 257
 271 435 l 257
 243 297 l 257
118 21 m 257
 160 236 l 257
 38 236 l 257
 43 297 l 257
 171 297 l 257
 197 435 l 257
 69 435 l 257
 75 496 l 257
 209 496 l 257
 248 699 l 257
 321 699 l 257
 282 496 l 257
 406 496 l 257
 444 699 l 257
 517 699 l 257
 477 496 l 257
 593 496 l 257
 588 435 l 257
 466 435 l 257
 439 297 l 257
 562 297 l 257
 557 236 l 257
 428 236 l 257
 386 21 l 257
 314 21 l 257
 355 236 l 257
 232 236 l 257
 189 21 l 257
 118 21 l 257
EndSplineSet
EndChar

StartChar: o
Encoding: 111 111 348
Width: 614
VWidth: 0
Flags: HW
PickledData: "(dp1
S'org.robofab.postScriptHintData'
p2
(dp3
sS'com.typemytype.robofont.layerData'
p4
(dp5
S'b'
(dp6
S'name'
p7
S'o'
sS'lib'
p8
(dp9
sS'unicodes'
p10
(tsS'width'
p11
F1259.2
sS'contours'
p12
(tsS'components'
p13
(tsS'anchors'
p14
(tsss."
AnchorPoint: "top" 309 501 basechar 0
LayerCount: 2
Fore
SplineSet
308 -11 m 256
 142 -11 49 99 49 250 c 256
 49 404 144 514 309 514 c 256
 474 514 565 404 565 250 c 256
 565 99 472 -11 308 -11 c 256
308 62 m 256
 417 62 471 141 471 250 c 256
 471 362 415 440 308 440 c 256
 200 440 144 362 144 250 c 256
 144 141 198 62 308 62 c 256
EndSplineSet
EndChar

StartChar: oe
Encoding: 339 339 355
Width: 965
VWidth: 0
Flags: HW
PickledData: "(dp1
S'org.robofab.postScriptHintData'
p2
(dp3
sS'com.typemytype.robofont.layerData'
p4
(dp5
S'b'
(dp6
S'name'
p7
S'oe'
p8
sS'lib'
p9
(dp10
sS'unicodes'
p11
(tsS'width'
p12
F1979.8
sS'contours'
p13
(tsS'components'
p14
((dp15
S'transformation'
p16
(I1
I0
I0
I1
I-6
I0
tp17
sS'baseGlyph'
p18
S'o'
s(dp19
g16
(I1
I0
I0
I1
I811
I0
tp20
sg18
S'e'
stp21
sS'anchors'
p22
(tsss."
LayerCount: 2
Fore
SplineSet
544 300 m 257
 826 300 l 257
 826 312 l 257
 817 386 766 440 690 440 c 256
 608 440 551 376 544 300 c 257
305 62 m 256
 406 62 455 147 455 250 c 256
 455 360 407 440 303 440 c 256
 199 440 141 358 141 247 c 256
 141 143 195 62 305 62 c 256
303 -11 m 256
 141 -11 46 100 46 249 c 256
 46 399 138 514 303 514 c 256
 398 514 464 469 500 402 c 257
 534 472 596 515 689 515 c 256
 830 515 910 410 910 256 c 258
 910 230 l 257
 543 230 l 257
 543 229 544 216 544 215 c 256
 549 124 612 62 710 62 c 256
 798 62 858 108 868 115 c 257
 895 49 l 257
 885 41 819 -11 701 -11 c 256
 616 -11 533 33 499 102 c 257
 467 33 389 -11 303 -11 c 256
EndSplineSet
EndChar

StartChar: ogonek
Encoding: 731 731 356
Width: 248
VWidth: 0
Flags: HW
PickledData: "(dp1
S'org.robofab.postScriptHintData'
p2
(dp3
s."
LayerCount: 2
Fore
SplineSet
137 -207 m 256
 75 -207 23 -179 23 -122 c 256
 23 -66 81 -18 129 7 c 257
 180 5 l 257
 135 -25 101 -75 101 -108 c 256
 101 -134 119 -150 157 -150 c 256
 178 -150 204 -144 222 -139 c 257
 222 -193 l 257
 194 -202 165 -207 137 -207 c 256
EndSplineSet
EndChar

StartChar: one
Encoding: 49 49 361
Width: 601
VWidth: 0
Flags: HW
PickledData: "(dp1
S'org.robofab.postScriptHintData'
p2
(dp3
sS'com.typemytype.robofont.layerData'
p4
(dp5
S'b'
(dp6
S'name'
p7
S'one'
p8
sS'lib'
p9
(dp10
sS'unicodes'
p11
(tsS'width'
p12
F1234.0999999999999
sS'contours'
p13
(tsS'components'
p14
(tsS'anchors'
p15
(tsss."
LayerCount: 2
Fore
SplineSet
138 0 m 257
 138 73 l 257
 275 73 l 257
 275 610 l 257
 234 588 181 567 130 548 c 257
 130 632 l 257
 180 650 252 685 295 711 c 257
 369 711 l 257
 369 73 l 257
 498 73 l 257
 498 0 l 257
 138 0 l 257
EndSplineSet
EndChar

StartChar: onehalf
Encoding: 189 189 362
Width: 1038
VWidth: 0
Flags: HW
PickledData: "(dp1
S'org.robofab.postScriptHintData'
p2
(dp3
sS'com.typemytype.robofont.layerData'
p4
(dp5
s."
LayerCount: 2
Fore
SplineSet
103 308 m 257
 103 363 l 257
 184 363 l 257
 184 643 l 257
 96 612 l 257
 96 669 l 257
 108 672 188 706 196 711 c 257
 253 711 l 257
 253 362 l 257
 327 362 l 257
 327 308 l 257
 103 308 l 257
225 0 m 257
 666 711 l 257
 743 711 l 257
 304 0 l 257
 225 0 l 257
768 410 m 256
 846 410 901 366 901 289 c 256
 901 223 864 188 801 133 c 257
 720 61 l 257
 899 61 l 257
 899 0 l 257
 626 0 l 257
 626 62 l 257
 759 184 l 258
 810 231 828 255 828 288 c 256
 828 325 808 349 764 349 c 256
 726 349 687 328 663 292 c 257
 627 338 l 257
 656 384 709 410 768 410 c 256
EndSplineSet
EndChar

StartChar: onequarter
Encoding: 188 188 363
Width: 961
VWidth: 0
Flags: HW
PickledData: "(dp1
S'org.robofab.postScriptHintData'
p2
(dp3
sS'com.typemytype.robofont.layerData'
p4
(dp5
s."
LayerCount: 2
Fore
SplineSet
624 146 m 257
 743 146 l 257
 743 314 l 257
 624 146 l 257
240 0 m 257
 681 711 l 257
 758 711 l 257
 319 0 l 257
 240 0 l 257
744 0 m 257
 744 93 l 257
 560 93 l 257
 560 139 l 257
 740 391 l 257
 811 391 l 257
 811 146 l 257
 865 146 l 257
 865 93 l 257
 810 93 l 257
 810 0 l 257
 744 0 l 257
104 308 m 257
 104 363 l 257
 185 363 l 257
 185 643 l 257
 96 612 l 257
 97 669 l 257
 109 672 188 706 196 711 c 257
 254 711 l 257
 254 362 l 257
 327 362 l 257
 327 308 l 257
 104 308 l 257
EndSplineSet
EndChar

StartChar: uni00B9
Encoding: 185 185 364
Width: 515
VWidth: 0
Flags: HW
PickledData: "(dp1
S'org.robofab.postScriptHintData'
p2
(dp3
sS'com.typemytype.robofont.layerData'
p4
(dp5
s."
LayerCount: 2
Fore
SplineSet
160 302 m 257
 160 359 l 257
 233 359 l 257
 233 630 l 257
 222 624 164 603 151 598 c 257
 151 660 l 257
 169 666 231 693 243 700 c 257
 297 704 l 257
 297 358 l 257
 365 358 l 257
 365 302 l 257
 160 302 l 257
EndSplineSet
EndChar

StartChar: ordfeminine
Encoding: 170 170 366
Width: 386
VWidth: 0
Flags: HW
PickledData: "(dp1
S'org.robofab.postScriptHintData'
p2
(dp3
sS'com.typemytype.robofont.layerData'
p4
(dp5
S'b'
(dp6
S'name'
p7
S'ordfeminine'
p8
sS'lib'
p9
(dp10
sS'unicodes'
p11
(tsS'width'
p12
F797.10000000000002
sS'contours'
p13
(tsS'components'
p14
(tsS'anchors'
p15
(tsss."
LayerCount: 2
Fore
SplineSet
170 423 m 256
 228 423 267 463 267 521 c 258
 267 532 l 257
 160 532 112 532 112 476 c 256
 112 442 136 423 170 423 c 256
163 371 m 256
 96 371 44 410 44 473 c 256
 44 536 90 575 182 575 c 258
 267 575 l 257
 267 593 l 258
 267 647 246 667 197 667 c 256
 139 667 83 641 83 641 c 257
 62 690 l 257
 62 690 121 723 202 723 c 256
 276 723 338 690 339 600 c 256
 339 596 338 448 338 448 c 258
 338 428 340 414 342 382 c 257
 273 382 l 257
 269 429 l 257
 253 398 215 371 163 371 c 256
EndSplineSet
EndChar

StartChar: ordmasculine
Encoding: 186 186 367
Width: 432
VWidth: 0
Flags: HW
PickledData: "(dp1
S'org.robofab.postScriptHintData'
p2
(dp3
sS'com.typemytype.robofont.layerData'
p4
(dp5
S'b'
(dp6
S'name'
p7
S'ordmasculine'
p8
sS'lib'
p9
(dp10
sS'unicodes'
p11
(tsS'width'
p12
F887.85000000000002
sS'contours'
p13
(tsS'components'
p14
(tsS'anchors'
p15
(tsss."
LayerCount: 2
Fore
SplineSet
218 367 m 256
 99 367 38 443 38 542 c 256
 38 639 103 716 217 716 c 256
 333 716 396 639 396 541 c 256
 396 446 332 367 218 367 c 256
218 429 m 256
 281 429 321 473 321 540 c 256
 321 610 281 652 217 652 c 256
 155 652 114 610 114 542 c 256
 114 472 151 429 218 429 c 256
EndSplineSet
EndChar

StartChar: oslash
Encoding: 248 248 368
Width: 612
VWidth: 0
Flags: HW
PickledData: "(dp1
S'org.robofab.postScriptHintData'
p2
(dp3
sS'com.typemytype.robofont.layerData'
p4
(dp5
S'b'
(dp6
S'name'
p7
S'oslash'
p8
sS'lib'
p9
(dp10
sS'unicodes'
p11
(tsS'width'
p12
F1255
sS'contours'
p13
(tsS'components'
p14
(tsS'anchors'
p15
(tsss."
LayerCount: 2
Fore
SplineSet
308 -11 m 256
 472 -11 565 99 565 250 c 256
 565 358 520 444 437 486 c 257
 480 581 l 257
 438 599 l 257
 394 503 l 257
 368 510 340 514 309 514 c 256
 144 514 49 404 49 250 c 256
 49 146 93 61 175 19 c 257
 127 -86 l 257
 170 -104 l 257
 218 2 l 257
 245 -6 275 -11 308 -11 c 256
404 412 m 257
 448 379 471 321 471 250 c 256
 471 141 417 62 308 62 c 256
 286 62 267 65 250 71 c 257
 404 412 l 257
362 433 m 257
 208 93 l 257
 165 125 144 181 144 250 c 256
 144 362 200 440 308 440 c 256
 328 440 346 438 362 433 c 257
EndSplineSet
EndChar

StartChar: p
Encoding: 112 112 371
Width: 616
VWidth: 0
Flags: HW
PickledData: "(dp1
S'org.robofab.postScriptHintData'
p2
(dp3
sS'com.typemytype.robofont.layerData'
p4
(dp5
S'b'
(dp6
S'name'
p7
S'p'
sS'lib'
p8
(dp9
sS'unicodes'
p10
(tsS'width'
p11
F1260.25
sS'contours'
p12
(tsS'components'
p13
(tsS'anchors'
p14
(tsss."
AnchorPoint: "top" 330 501 basechar 0
LayerCount: 2
Fore
SplineSet
327 62 m 256
 424 62 474 141 474 252 c 256
 474 362 423 440 327 440 c 256
 228 440 173 360 173 246 c 256
 173 138 227 62 327 62 c 256
86 -209 m 257
 86 355 l 258
 86 397 83 460 81 501 c 257
 175 501 l 257
 176 411 l 257
 194 464 262 513 344 513 c 256
 482 513 567 404 567 255 c 256
 567 104 481 -11 342 -11 c 256
 259 -11 193 35 176 81 c 257
 176 -209 l 257
 86 -209 l 257
EndSplineSet
EndChar

StartChar: paragraph
Encoding: 182 182 372
Width: 590
VWidth: 0
Flags: HW
PickledData: "(dp1
S'org.robofab.postScriptHintData'
p2
(dp3
sS'com.typemytype.robofont.layerData'
p4
(dp5
S'b'
(dp6
S'name'
p7
S'paragraph'
p8
sS'lib'
p9
(dp10
sS'unicodes'
p11
(tsS'width'
p12
F1211.95
sS'contours'
p13
(tsS'components'
p14
(tsS'anchors'
p15
(tsss."
LayerCount: 2
Fore
SplineSet
236 -87 m 257
 236 397 l 257
 143 399 63 453 63 553 c 256
 63 677 156 711 292 711 c 258
 512 711 l 257
 512 642 l 257
 461 642 l 257
 461 -87 l 257
 396 -87 l 257
 396 642 l 257
 302 642 l 257
 302 -87 l 257
 236 -87 l 257
EndSplineSet
EndChar

StartChar: parenleft
Encoding: 40 40 373
Width: 310
VWidth: 0
Flags: HW
PickledData: "(dp1
S'org.robofab.postScriptHintData'
p2
(dp3
sS'com.typemytype.robofont.layerData'
p4
(dp5
S'b'
(dp6
S'name'
p7
S'parenleft'
p8
sS'lib'
p9
(dp10
sS'unicodes'
p11
(tsS'width'
p12
F639.35000000000002
sS'contours'
p13
(tsS'components'
p14
(tsS'anchors'
p15
(tsss."
LayerCount: 2
Fore
SplineSet
201 -84 m 257
 125 33 67 177 67 324 c 256
 67 478 117 611 199 740 c 257
 286 740 l 257
 204 610 157 469 157 325 c 256
 157 191 209 39 287 -84 c 257
 201 -84 l 257
EndSplineSet
EndChar

StartChar: parenright
Encoding: 41 41 374
Width: 310
VWidth: 0
Flags: HW
PickledData: "(dp1
S'org.robofab.postScriptHintData'
p2
(dp3
sS'com.typemytype.robofont.layerData'
p4
(dp5
S'b'
(dp6
S'name'
p7
S'parenright'
p8
sS'lib'
p9
(dp10
sS'unicodes'
p11
(tsS'width'
p12
F639.35000000000002
sS'contours'
p13
(tsS'components'
p14
(tsS'anchors'
p15
(tsss."
LayerCount: 2
Fore
SplineSet
24 -94 m 257
 107 36 153 177 153 322 c 256
 153 456 102 606 24 730 c 257
 109 730 l 257
 185 614 243 469 243 322 c 256
 243 168 193 34 111 -94 c 257
 24 -94 l 257
EndSplineSet
EndChar

StartChar: partialdiff
Encoding: 8706 8706 375
Width: 568
VWidth: 0
Flags: HW
PickledData: "(dp1
S'org.robofab.postScriptHintData'
p2
(dp3
sS'com.typemytype.robofont.layerData'
p4
(dp5
S'b'
(dp6
S'name'
p7
S'partialdiff'
p8
sS'lib'
p9
(dp10
sS'unicodes'
p11
(tsS'width'
p12
F1163.95
sS'contours'
p13
(tsS'components'
p14
(tsS'anchors'
p15
(tsss."
LayerCount: 2
Fore
SplineSet
239 62 m 256
 343 62 401 164 420 318 c 257
 401 369 356 417 294 417 c 256
 201 417 128 318 128 204 c 256
 128 119 171 62 239 62 c 256
429 439 m 256
 429 580 373 670 273 670 c 256
 220 670 170 650 136 628 c 257
 130 698 l 257
 170 725 226 744 284 744 c 256
 432 744 523 642 523 413 c 256
 523 203 428 -12 238 -12 c 256
 105 -12 36 83 36 206 c 256
 36 365 147 489 284 489 c 256
 365 489 413 441 429 407 c 257
 429 410 429 427 429 439 c 256
EndSplineSet
EndChar

StartChar: percent
Encoding: 37 37 377
Width: 912
VWidth: 0
Flags: HW
PickledData: "(dp1
S'org.robofab.postScriptHintData'
p2
(dp3
sS'com.typemytype.robofont.layerData'
p4
(dp5
S'b'
(dp6
S'name'
p7
S'percent'
p8
sS'lib'
p9
(dp10
sS'unicodes'
p11
(tsS'width'
p12
F1769.3
sS'contours'
p13
(tsS'components'
p14
(tsS'anchors'
p15
(tsss."
LayerCount: 2
Fore
SplineSet
690 -9 m 256
 582 -9 521 69 521 181 c 256
 521 292 584 374 692 374 c 256
 800 374 859 293 859 182 c 256
 859 70 797 -9 690 -9 c 256
691 51 m 256
 754 51 782 100 782 182 c 256
 782 265 756 314 692 314 c 256
 626 314 600 262 600 181 c 256
 600 98 627 51 691 51 c 256
215 0 m 257
 627 711 l 257
 704 711 l 257
 290 0 l 257
 215 0 l 257
222 338 m 256
 114 338 53 411 53 528 c 256
 53 643 115 720 223 720 c 256
 331 720 391 644 391 528 c 256
 391 412 329 338 222 338 c 256
223 397 m 256
 286 397 313 446 313 529 c 256
 313 611 287 661 223 661 c 256
 157 661 131 609 131 528 c 256
 131 445 159 397 223 397 c 256
EndSplineSet
EndChar

StartChar: period
Encoding: 46 46 378
Width: 265
VWidth: 0
Flags: HW
PickledData: "(dp1
S'org.robofab.postScriptHintData'
p2
(dp3
sS'com.typemytype.robofont.layerData'
p4
(dp5
s."
LayerCount: 2
Fore
SplineSet
74 0 m 257
 74 110 l 257
 188 110 l 257
 188 0 l 257
 74 0 l 257
EndSplineSet
EndChar

StartChar: periodcentered
Encoding: 183 183 379
Width: 248
VWidth: 0
Flags: HW
PickledData: "(dp1
S'org.robofab.postScriptHintData'
p2
(dp3
sS'com.typemytype.robofont.layerData'
p4
(dp5
S'b'
(dp6
S'name'
p7
S'middot'
p8
sS'lib'
p9
(dp10
sS'unicodes'
p11
(tsS'width'
p12
I509
sS'contours'
p13
(tsS'components'
p14
(tsS'anchors'
p15
(tsss."
LayerCount: 2
Fore
SplineSet
138 252 m 257
 138 350 l 257
 235 350 l 257
 235 252 l 257
 138 252 l 257
EndSplineSet
EndChar

StartChar: perthousand
Encoding: 8240 8240 380
Width: 1318
VWidth: 0
Flags: HW
PickledData: "(dp1
S'org.robofab.postScriptHintData'
p2
(dp3
sS'com.typemytype.robofont.layerData'
p4
(dp5
S'b'
(dp6
S'name'
p7
S'perthousand'
p8
sS'lib'
p9
(dp10
sS'unicodes'
p11
(tsS'width'
p12
F2581.1999999999998
sS'contours'
p13
(tsS'components'
p14
(tsS'anchors'
p15
(tsss."
LayerCount: 2
Fore
SplineSet
1097 -9 m 256
 989 -9 928 69 928 181 c 256
 928 292 990 374 1098 374 c 256
 1206 374 1266 293 1266 182 c 256
 1266 70 1204 -9 1097 -9 c 256
1098 51 m 256
 1161 51 1188 100 1188 182 c 256
 1188 265 1162 314 1098 314 c 256
 1032 314 1006 262 1006 181 c 256
 1006 98 1034 51 1098 51 c 256
EndSplineSet
Refer: 377 37 N 1 0 0 1 0 0 2
EndChar

StartChar: pi
Encoding: 960 960 381
Width: 705
VWidth: 0
Flags: HW
PickledData: "(dp1
S'org.robofab.postScriptHintData'
p2
(dp3
sS'com.typemytype.robofont.layerData'
p4
(dp5
S'b'
(dp6
S'name'
p7
S'pi'
p8
sS'lib'
p9
(dp10
sS'unicodes'
p11
(tsS'width'
p12
F1288
sS'contours'
p13
(tsS'components'
p14
(tsS'anchors'
p15
(tsss."
LayerCount: 2
Fore
SplineSet
558 -6 m 256
 597 -6 629 5 646 22 c 257
 646 86 l 257
 632 81 605 69 584 69 c 256
 545 69 524 114 524 212 c 256
 524 268 530 350 542 442 c 257
 659 442 l 257
 659 528 l 257
 215 528 l 258
 96 528 60 484 60 376 c 257
 108 376 l 257
 114 414 133 442 173 442 c 258
 234 442 l 257
 203 194 l 258
 189 86 126 56 66 56 c 257
 66 2 l 257
 239 2 274 53 279 162 c 258
 292 442 l 257
 477 442 l 257
 461 329 441 216 441 137 c 256
 441 47 471 -6 558 -6 c 256
EndSplineSet
EndChar

StartChar: plus
Encoding: 43 43 382
Width: 586
VWidth: 0
Flags: HW
PickledData: "(dp1
S'org.robofab.postScriptHintData'
p2
(dp3
sS'com.typemytype.robofont.layerData'
p4
(dp5
S'b'
(dp6
S'name'
p7
S'plus'
p8
sS'lib'
p9
(dp10
sS'unicodes'
p11
(tsS'width'
p12
F1206.9000000000001
sS'contours'
p13
(tsS'components'
p14
(tsS'anchors'
p15
(tsss."
LayerCount: 2
Fore
SplineSet
251 50 m 257
 251 253 l 257
 64 253 l 257
 64 329 l 257
 251 329 l 257
 251 525 l 257
 335 525 l 257
 335 329 l 257
 523 329 l 257
 523 253 l 257
 335 253 l 257
 335 50 l 257
 251 50 l 257
EndSplineSet
EndChar

StartChar: plusminus
Encoding: 177 177 383
Width: 601
VWidth: 0
Flags: HW
PickledData: "(dp1
S'org.robofab.postScriptHintData'
p2
(dp3
sS'com.typemytype.robofont.layerData'
p4
(dp5
S'b'
(dp6
S'name'
p7
S'plusminus'
p8
sS'lib'
p9
(dp10
sS'unicodes'
p11
(tsS'width'
p12
F1234.75
sS'contours'
p13
(tsS'components'
p14
(tsS'anchors'
p15
(tsss."
LayerCount: 2
Fore
SplineSet
90 0 m 257
 90 64 l 257
 516 64 l 257
 516 0 l 257
 90 0 l 257
260 125 m 257
 260 290 l 257
 95 290 l 257
 95 366 l 257
 259 366 l 257
 259 532 l 257
 342 532 l 257
 342 366 l 257
 505 366 l 257
 505 290 l 257
 344 290 l 257
 344 125 l 257
 260 125 l 257
EndSplineSet
EndChar

StartChar: product
Encoding: 8719 8719 384
Width: 761
VWidth: 0
Flags: HW
PickledData: "(dp1
S'org.robofab.postScriptHintData'
p2
(dp3
sS'com.typemytype.robofont.guides'
p4
(tsS'com.typemytype.robofont.layerData'
p5
(dp6
S'b'
(dp7
S'name'
p8
S'product'
p9
sS'lib'
p10
(dp11
sS'unicodes'
p12
(tsS'width'
p13
F1568
sS'contours'
p14
(tsS'components'
p15
(tsS'anchors'
p16
(tsss."
LayerCount: 2
Fore
SplineSet
135 -43 m 257
 135 635 l 257
 54 635 l 257
 54 711 l 257
 697 711 l 257
 697 635 l 257
 625 635 l 257
 625 -43 l 257
 529 -43 l 257
 529 635 l 257
 228 635 l 257
 228 -43 l 257
 135 -43 l 257
EndSplineSet
EndChar

StartChar: q
Encoding: 113 113 385
Width: 614
VWidth: 0
Flags: HW
PickledData: "(dp1
S'org.robofab.postScriptHintData'
p2
(dp3
sS'com.typemytype.robofont.layerData'
p4
(dp5
S'b'
(dp6
S'name'
p7
S'q'
sS'lib'
p8
(dp9
sS'unicodes'
p10
(tsS'width'
p11
F1254.3
sS'contours'
p12
(tsS'components'
p13
(tsS'anchors'
p14
(tsss."
LayerCount: 2
Fore
SplineSet
291 63 m 256
 388 63 440 140 440 259 c 256
 440 366 386 440 294 440 c 256
 199 440 144 363 144 249 c 256
 144 138 197 63 291 63 c 256
439 -205 m 257
 439 73 l 257
 413 33 359 -11 280 -11 c 256
 138 -11 49 97 49 250 c 256
 49 406 139 514 284 514 c 256
 351 514 408 482 439 432 c 257
 439 501 l 257
 532 501 l 257
 532 488 529 400 529 387 c 258
 529 -205 l 257
 439 -205 l 257
EndSplineSet
EndChar

StartChar: question
Encoding: 63 63 386
Width: 516
VWidth: 0
Flags: HW
PickledData: "(dp1
S'org.robofab.postScriptHintData'
p2
(dp3
sS'com.typemytype.robofont.layerData'
p4
(dp5
S'b'
(dp6
S'name'
p7
S'question'
p8
sS'lib'
p9
(dp10
sS'unicodes'
p11
(tsS'width'
p12
F1055.9000000000001
sS'contours'
p13
(tsS'components'
p14
(tsS'anchors'
p15
(tsss."
LayerCount: 2
Fore
SplineSet
167 -2 m 257
 167 106 l 257
 259 106 l 257
 259 -2 l 257
 167 -2 l 257
176 185 m 257
 176 254 l 258
 176 376 360 436 360 548 c 256
 360 617 305 644 238 644 c 256
 178 644 120 621 97 608 c 257
 97 689 l 257
 134 707 194 722 248 722 c 256
 366 722 453 667 453 552 c 256
 453 406 249 350 249 233 c 258
 249 185 l 257
 176 185 l 257
EndSplineSet
EndChar

StartChar: quotedbl
Encoding: 34 34 388
Width: 455
VWidth: 0
Flags: HW
PickledData: "(dp1
S'org.robofab.postScriptHintData'
p2
(dp3
sS'com.typemytype.robofont.layerData'
p4
(dp5
S'b'
(dp6
S'name'
p7
S'quotedbl'
p8
sS'lib'
p9
(dp10
sS'unicodes'
p11
(tsS'width'
p12
F785.64999999999998
sS'contours'
p13
(tsS'components'
p14
(tsS'anchors'
p15
(tsss."
LayerCount: 2
Fore
SplineSet
285 466 m 257
 264 711 l 257
 356 711 l 257
 340 466 l 257
 285 466 l 257
121 466 m 257
 100 711 l 257
 192 711 l 257
 176 466 l 257
 121 466 l 257
EndSplineSet
EndChar

StartChar: quotedblbase
Encoding: 8222 8222 389
Width: 468
VWidth: 0
Flags: HW
PickledData: "(dp1
S'org.robofab.postScriptHintData'
p2
(dp3
s."
LayerCount: 2
Fore
SplineSet
247 -160 m 257
 287 105 l 257
 383 105 l 257
 321 -160 l 257
 247 -160 l 257
76 -160 m 257
 116 105 l 257
 212 105 l 257
 150 -160 l 257
 76 -160 l 257
EndSplineSet
EndChar

StartChar: quotedblleft
Encoding: 8220 8220 390
Width: 500
VWidth: 0
Flags: HW
PickledData: "(dp1
S'org.robofab.postScriptHintData'
p2
(dp3
sS'com.typemytype.robofont.layerData'
p4
(dp5
S'b'
(dp6
S'name'
p7
S'quotedblleft'
p8
sS'lib'
p9
(dp10
sS'unicodes'
p11
(tsS'width'
p12
F1024
sS'contours'
p13
(tsS'components'
p14
(tsS'anchors'
p15
(tsss."
LayerCount: 2
Fore
SplineSet
272 431 m 257
 345 711 l 257
 418 711 l 257
 373 431 l 257
 272 431 l 257
81 431 m 257
 157 711 l 257
 229 711 l 257
 184 431 l 257
 81 431 l 257
EndSplineSet
EndChar

StartChar: quotedblright
Encoding: 8221 8221 391
Width: 500
VWidth: 0
Flags: HW
PickledData: "(dp1
S'org.robofab.postScriptHintData'
p2
(dp3
sS'com.typemytype.robofont.layerData'
p4
(dp5
S'b'
(dp6
S'name'
p7
S'quotedblright'
p8
sS'lib'
p9
(dp10
sS'unicodes'
p11
(tsS'width'
p12
F1024
sS'contours'
p13
(tsS'components'
p14
(tsS'anchors'
p15
(tsss."
LayerCount: 2
Fore
SplineSet
274 431 m 257
 319 711 l 257
 419 711 l 257
 348 431 l 257
 274 431 l 257
96 431 m 257
 140 711 l 257
 241 711 l 257
 169 431 l 257
 96 431 l 257
EndSplineSet
EndChar

StartChar: quoteleft
Encoding: 8216 8216 392
Width: 258
VWidth: 0
Flags: HW
PickledData: "(dp1
S'org.robofab.postScriptHintData'
p2
(dp3
sS'com.typemytype.robofont.layerData'
p4
(dp5
S'b'
(dp6
S'name'
p7
S'quoteleft'
p8
sS'lib'
p9
(dp10
sS'unicodes'
p11
(tsS'width'
p12
F518.5
sS'contours'
p13
(tsS'components'
p14
(tsS'anchors'
p15
(tsss."
LayerCount: 2
Fore
SplineSet
201 711 m 257
 167 431 l 257
 60 431 l 257
 135 711 l 257
 201 711 l 257
EndSplineSet
EndChar

StartChar: quoteright
Encoding: 8217 8217 393
Width: 258
VWidth: 0
Flags: HW
PickledData: "(dp1
S'org.robofab.postScriptHintData'
p2
(dp3
sS'com.typemytype.robofont.layerData'
p4
(dp5
S'b'
(dp6
S'name'
p7
S'quoteright'
p8
sS'lib'
p9
(dp10
g4
(dp11
S'b'
(dp12
g7
S'quoteleft'
p13
sg9
(dp14
sS'unicodes'
p15
(tsS'width'
p16
I494
sS'contours'
p17
(tsS'components'
p18
(tsS'anchors'
p19
(tssssg15
(tsg16
F537.25
sg17
((dp20
S'points'
p21
((dp22
S'segmentType'
p23
S'line'
p24
sS'x'
F416
sS'smooth'
p25
I00
sS'y'
F888
s(dp26
g23
S'line'
p27
sS'x'
F300
sg25
I00
sS'y'
F888
s(dp28
g23
S'line'
p29
sS'x'
F150
sg25
I00
sS'y'
F1456
s(dp30
g23
S'line'
p31
sS'x'
F360
sg25
I00
sS'y'
F1456
stp32
stp33
sg18
(tsg19
(tsss."
LayerCount: 2
Fore
SplineSet
60 431 m 257
 93 711 l 257
 201 711 l 257
 125 431 l 257
 60 431 l 257
EndSplineSet
EndChar

StartChar: quotesinglbase
Encoding: 8218 8218 394
Width: 286
VWidth: 0
Flags: HW
PickledData: "(dp1
S'org.robofab.postScriptHintData'
p2
(dp3
sS'com.typemytype.robofont.layerData'
p4
(dp5
S'b'
(dp6
S'name'
p7
S'quotesinglbase'
p8
sS'lib'
p9
(dp10
sS'unicodes'
p11
(tsS'width'
p12
F595.70000000000005
sS'contours'
p13
(tsS'components'
p14
(tsS'anchors'
p15
(tsss."
LayerCount: 2
Fore
SplineSet
76 -160 m 257
 116 105 l 257
 212 105 l 257
 150 -160 l 257
 76 -160 l 257
EndSplineSet
EndChar

StartChar: quotesingle
Encoding: 39 39 395
Width: 248
VWidth: 0
Flags: HW
PickledData: "(dp1
S'org.robofab.postScriptHintData'
p2
(dp3
sS'com.typemytype.robofont.layerData'
p4
(dp5
S'b'
(dp6
S'name'
p7
S'quotesingle'
p8
sS'lib'
p9
(dp10
sS'unicodes'
p11
(tsS'width'
p12
F507.85000000000002
sS'contours'
p13
(tsS'components'
p14
(tsS'anchors'
p15
(tsss."
LayerCount: 2
Fore
SplineSet
97 457 m 257
 79 711 l 257
 175 711 l 257
 162 457 l 257
 97 457 l 257
EndSplineSet
EndChar

StartChar: r
Encoding: 114 114 396
Width: 392
VWidth: 0
Flags: HW
PickledData: "(dp1
S'org.robofab.postScriptHintData'
p2
(dp3
sS'com.typemytype.robofont.layerData'
p4
(dp5
S'b'
(dp6
S'name'
p7
S'r'
sS'lib'
p8
(dp9
sS'unicodes'
p10
(tsS'width'
p11
F818.89999999999998
sS'contours'
p12
(tsS'components'
p13
(tsS'anchors'
p14
(tsss."
AnchorPoint: "top" 253 501 basechar 0
LayerCount: 2
Fore
SplineSet
87 0 m 257
 87 378 l 258
 87 416 81 501 81 501 c 257
 176 501 l 257
 177 423 l 257
 207 482 254 513 311 513 c 256
 328 513 345 511 362 507 c 257
 361 427 l 257
 345 431 326 435 306 435 c 256
 232 435 178 383 178 279 c 258
 178 0 l 257
 87 0 l 257
EndSplineSet
EndChar

StartChar: radical
Encoding: 8730 8730 398
Width: 641
VWidth: 0
Flags: HW
PickledData: "(dp1
S'org.robofab.postScriptHintData'
p2
(dp3
sS'com.typemytype.robofont.layerData'
p4
(dp5
s."
LayerCount: 2
Fore
SplineSet
328 -73 m 257
 169 330 l 258
 86 316 l 257
 73 379 l 257
 227 405 l 257
 359 48 l 257
 553 774 l 257
 628 774 l 257
 402 -73 l 257
 328 -73 l 257
EndSplineSet
EndChar

StartChar: registered
Encoding: 174 174 402
Width: 843
VWidth: 0
Flags: HW
PickledData: "(dp1
S'org.robofab.postScriptHintData'
p2
(dp3
sS'com.typemytype.robofont.layerData'
p4
(dp5
S'b'
(dp6
S'name'
p7
S'registered'
p8
sS'lib'
p9
(dp10
sS'unicodes'
p11
(tsS'width'
p12
F1727.05
sS'contours'
p13
(tsS'components'
p14
(tsS'anchors'
p15
(tsss."
LayerCount: 2
Fore
SplineSet
421 -12 m 256
 218 -12 53 152 53 355 c 256
 53 558 218 724 421 724 c 256
 625 724 792 558 792 355 c 256
 792 152 625 -12 421 -12 c 256
422 37 m 256
 594 37 734 181 734 354 c 256
 734 527 594 674 422 674 c 256
 249 674 110 527 110 354 c 256
 110 181 249 37 422 37 c 256
345 379 m 257
 402 379 l 258
 480 379 519 391 519 446 c 256
 519 507 495 515 401 515 c 258
 345 515 l 257
 345 379 l 257
266 136 m 257
 266 580 l 257
 404 580 l 258
 546 580 602 534 602 453 c 256
 602 396 581 350 500 333 c 257
 603 136 l 257
 513 136 l 257
 423 322 l 257
 346 322 l 257
 346 136 l 257
 266 136 l 257
EndSplineSet
EndChar

StartChar: ring
Encoding: 730 730 403
Width: 306
VWidth: 0
Flags: HW
PickledData: "(dp1
S'org.robofab.postScriptHintData'
p2
(dp3
sS'com.typemytype.robofont.layerData'
p4
(dp5
S'b'
(dp6
S'name'
p7
S'ring'
p8
sS'lib'
p9
(dp10
sS'unicodes'
p11
(tsS'width'
p12
F633.35000000000002
sS'contours'
p13
(tsS'components'
p14
(tsS'anchors'
p15
(tsss."
AnchorPoint: "top" 154 726 basechar 0
AnchorPoint: "top" 154 501 mark 0
LayerCount: 2
Fore
SplineSet
154 555 m 256
 99 555 56 595 56 650 c 256
 56 705 99 746 154 746 c 256
 209 746 252 705 252 650 c 256
 252 595 209 555 154 555 c 256
153 597 m 256
 182 597 205 620 205 650 c 256
 205 680 182 704 153 704 c 256
 124 704 102 680 102 650 c 256
 102 620 124 597 153 597 c 256
EndSplineSet
EndChar

StartChar: s
Encoding: 115 115 405
Width: 477
VWidth: 0
Flags: HW
PickledData: "(dp1
S'org.robofab.postScriptHintData'
p2
(dp3
sS'com.typemytype.robofont.layerData'
p4
(dp5
S'b'
(dp6
S'name'
p7
S's'
sS'lib'
p8
(dp9
sS'unicodes'
p10
(tsS'width'
p11
F981.89999999999998
sS'contours'
p12
((dp13
S'points'
p14
((dp15
S'segmentType'
p16
S'curve'
p17
sS'x'
F498
sS'smooth'
p18
I01
sS'y'
F-23
s(dp19
S'y'
F-23
sS'x'
F282
sg18
I00
s(dp20
S'y'
F70
sS'x'
F145
sg18
I00
s(dp21
g16
S'curve'
p22
sS'x'
F116
sg18
I00
sS'y'
F94
s(dp23
g16
S'line'
p24
sS'x'
F160
sg18
I00
sS'y'
F222
s(dp25
S'y'
F189
sS'x'
F208
sg18
I00
s(dp26
S'y'
F109
sS'x'
F348
sg18
I00
s(dp27
g16
S'curve'
p28
sS'x'
F484
sg18
I01
sS'y'
F109
s(dp29
S'y'
F109
sS'x'
F589
sg18
I00
s(dp30
S'y'
F141
sS'x'
F711
sg18
I00
s(dp31
g16
S'curve'
p32
sS'x'
F711
sg18
I01
sS'y'
F272
s(dp33
S'y'
F395
sS'x'
F711
sg18
I00
s(dp34
S'y'
F426
sS'x'
F561
sg18
I00
s(dp35
g16
S'curve'
p36
sS'x'
F412
sg18
I00
sS'y'
F474
s(dp37
S'y'
F521
sS'x'
F262
sg18
I00
s(dp38
S'y'
F585
sS'x'
F112
sg18
I00
s(dp39
g16
S'curve'
p40
sS'x'
F112
sg18
I01
sS'y'
F771
s(dp41
S'y'
F970
sS'x'
F112
sg18
I00
s(dp42
S'y'
F1051
sS'x'
F318
sg18
I00
s(dp43
g16
S'curve'
p44
sS'x'
F488
sg18
I01
sS'y'
F1051
s(dp45
S'y'
F1051
sS'x'
F715
sg18
I00
s(dp46
S'y'
F991
sS'x'
F792
sg18
I00
s(dp47
g16
S'curve'
p48
sS'x'
F832
sg18
I00
sS'y'
F966
s(dp49
g16
S'line'
p50
sS'x'
F785
sg18
I00
sS'y'
F851
s(dp51
S'y'
F858
sS'x'
F772
sg18
I00
s(dp52
S'y'
F917
sS'x'
F667
sg18
I00
s(dp53
g16
S'curve'
p54
sS'x'
F504
sg18
I01
sS'y'
F917
s(dp55
S'y'
F917
sS'x'
F355
sg18
I00
s(dp56
S'y'
F882
sS'x'
F283
sg18
I00
s(dp57
g16
S'curve'
p58
sS'x'
F283
sg18
I01
sS'y'
F774
s(dp59
S'y'
F660
sS'x'
F283
sg18
I00
s(dp60
S'y'
F629
sS'x'
F433
sg18
I00
s(dp61
g16
S'curve'
p62
sS'x'
F582
sg18
I01
sS'y'
F581
s(dp63
S'y'
F533
sS'x'
F732
sg18
I00
s(dp64
S'y'
F468
sS'x'
F881
sg18
I00
s(dp65
g16
S'curve'
p66
sS'x'
F881
sg18
I01
sS'y'
F284
s(dp67
S'y'
F62
sS'x'
F881
sg18
I00
s(dp68
S'y'
F-23
sS'x'
F685
sg18
I00
stp69
stp70
sS'components'
p71
(tsS'anchors'
p72
(tsss."
AnchorPoint: "top" 238 501 basechar 0
LayerCount: 2
Fore
SplineSet
253 -11 m 256
 154 -11 86 30 62 50 c 257
 86 117 l 257
 116 95 180 63 246 63 c 256
 297 63 345 78 345 136 c 256
 345 180 313 193 235 219 c 258
 192 234 l 257
 118 260 63 291 63 375 c 256
 63 474 151 513 243 513 c 256
 323 513 379 490 410 470 c 257
 385 405 l 257
 364 416 310 440 253 440 c 256
 189 440 152 418 152 377 c 256
 152 339 171 328 231 307 c 256
 240 304 270 294 282 290 c 256
 369 259 430 232 430 140 c 256
 430 29 340 -11 253 -11 c 256
EndSplineSet
EndChar

StartChar: section
Encoding: 167 167 412
Width: 521
VWidth: 0
Flags: HW
PickledData: "(dp1
S'org.robofab.postScriptHintData'
p2
(dp3
sS'com.typemytype.robofont.layerData'
p4
(dp5
S'b'
(dp6
S'name'
p7
S'section'
p8
sS'lib'
p9
(dp10
sS'unicodes'
p11
(tsS'width'
p12
F1071.6500000000001
sS'contours'
p13
(tsS'components'
p14
(tsS'anchors'
p15
(tsss."
LayerCount: 2
Fore
SplineSet
298 259 m 257
 326 277 353 307 353 342 c 256
 353 389 307 406 248 434 c 257
 217 420 177 391 177 355 c 256
 177 312 225 291 298 259 c 257
248 -37 m 256
 200 -37 146 -27 100 -9 c 257
 100 64 l 257
 153 42 202 32 242 32 c 256
 308 32 351 60 351 110 c 256
 351 150 302 169 201 217 c 256
 133 249 92 287 92 349 c 256
 92 401 137 447 188 468 c 257
 138 500 104 530 104 586 c 256
 104 681 190 726 289 726 c 256
 331 726 372 720 412 706 c 257
 412 640 l 257
 378 653 338 660 302 660 c 256
 243 660 192 640 192 590 c 256
 192 554 226 529 306 492 c 256
 385 454 444 422 444 352 c 256
 444 300 403 256 357 227 c 257
 404 202 439 168 439 113 c 256
 439 12 353 -37 248 -37 c 256
EndSplineSet
EndChar

StartChar: semicolon
Encoding: 59 59 413
Width: 265
VWidth: 0
Flags: HW
PickledData: "(dp1
S'org.robofab.postScriptHintData'
p2
(dp3
sS'com.typemytype.robofont.layerData'
p4
(dp5
s."
LayerCount: 2
Fore
SplineSet
83 404 m 257
 83 514 l 257
 193 514 l 257
 193 404 l 257
 83 404 l 257
47 -129 m 257
 99 108 l 257
 202 108 l 257
 120 -129 l 257
 47 -129 l 257
EndSplineSet
EndChar

StartChar: seven
Encoding: 55 55 414
Width: 601
VWidth: 0
Flags: HW
PickledData: "(dp1
S'org.robofab.postScriptHintData'
p2
(dp3
sS'com.typemytype.robofont.layerData'
p4
(dp5
s."
LayerCount: 2
Fore
SplineSet
173 0 m 257
 428 632 l 257
 83 632 l 257
 83 711 l 257
 533 711 l 257
 533 641 l 257
 273 0 l 257
 173 0 l 257
EndSplineSet
EndChar

StartChar: six
Encoding: 54 54 415
Width: 601
VWidth: 0
Flags: HW
PickledData: "(dp1
S'org.robofab.postScriptHintData'
p2
(dp3
sS'com.typemytype.robofont.layerData'
p4
(dp5
s."
LayerCount: 2
Fore
SplineSet
320 68 m 256
 407 68 458 136 458 226 c 256
 458 314 415 383 323 383 c 256
 232 383 173 320 173 246 c 256
 173 142 227 68 320 68 c 256
320 -11 m 256
 148 -11 68 131 68 339 c 256
 68 550 159 724 345 724 c 256
 416 724 474 700 512 667 c 257
 480 599 l 257
 445 627 398 645 346 645 c 256
 219 645 166 507 166 372 c 257
 198 421 253 459 334 459 c 256
 462 459 554 370 554 228 c 256
 554 93 465 -11 320 -11 c 256
EndSplineSet
EndChar

StartChar: slash
Encoding: 47 47 416
Width: 444
VWidth: 0
Flags: HW
PickledData: "(dp1
S'org.robofab.postScriptHintData'
p2
(dp3
sS'com.typemytype.robofont.layerData'
p4
(dp5
s."
LayerCount: 2
Fore
SplineSet
61 0 m 257
 320 711 l 257
 403 711 l 257
 143 0 l 257
 61 0 l 257
EndSplineSet
EndChar

StartChar: uni00AD
Encoding: 173 173 418
Width: 331
VWidth: 0
Flags: HW
PickledData: "(dp1
S'org.robofab.postScriptHintData'
p2
(dp3
s."
LayerCount: 2
Fore
SplineSet
30 238 m 257
 30 307 l 257
 301 307 l 257
 301 238 l 257
 30 238 l 257
EndSplineSet
EndChar

StartChar: sterling
Encoding: 163 163 420
Width: 587
VWidth: 0
Flags: HW
PickledData: "(dp1
S'org.robofab.postScriptHintData'
p2
(dp3
sS'com.typemytype.robofont.layerData'
p4
(dp5
S'b'
(dp6
S'name'
p7
S'sterling'
p8
sS'lib'
p9
(dp10
sS'unicodes'
p11
(tsS'width'
p12
F1207.3
sS'contours'
p13
(tsS'components'
p14
(tsS'anchors'
p15
(tsss."
LayerCount: 2
Fore
SplineSet
391 646 m 256
 293 646 256 588 256 479 c 258
 256 400 l 257
 434 400 l 257
 434 340 l 257
 257 340 l 257
 257 288 l 258
 257 178 214 105 188 77 c 257
 509 77 l 257
 509 0 l 257
 76 0 l 257
 76 73 l 257
 128 112 165 186 165 289 c 258
 165 340 l 257
 72 340 l 257
 72 400 l 257
 164 400 l 257
 164 458 l 258
 164 606 209 723 382 723 c 256
 449 723 489 707 517 686 c 257
 492 618 l 257
 471 631 438 646 391 646 c 256
EndSplineSet
EndChar

StartChar: summation
Encoding: 8721 8721 421
Width: 582
VWidth: 0
Flags: HW
PickledData: "(dp1
S'org.robofab.postScriptHintData'
p2
(dp3
sS'com.typemytype.robofont.layerData'
p4
(dp5
S'b'
(dp6
S'name'
p7
S'summation'
p8
sS'lib'
p9
(dp10
sS'unicodes'
p11
(tsS'width'
p12
F1198.3
sS'contours'
p13
(tsS'components'
p14
(tsS'anchors'
p15
(tsss."
LayerCount: 2
Fore
SplineSet
64 -54 m 257
 64 -7 l 257
 307 333 l 257
 74 663 l 257
 74 710 l 257
 514 710 l 257
 514 639 l 257
 186 639 l 257
 403 336 l 257
 173 20 l 257
 535 20 l 257
 535 -54 l 257
 64 -54 l 257
EndSplineSet
EndChar

StartChar: t
Encoding: 116 116 422
Width: 392
VWidth: 0
Flags: HW
PickledData: "(dp1
S'org.robofab.postScriptHintData'
p2
(dp3
sS'com.typemytype.robofont.layerData'
p4
(dp5
S'b'
(dp6
S'name'
p7
S't'
sS'lib'
p8
(dp9
sS'unicodes'
p10
(tsS'width'
p11
F763.89999999999998
sS'contours'
p12
(tsS'components'
p13
(tsS'anchors'
p14
(tsss."
AnchorPoint: "caron.alt" 127 625 basechar 0
AnchorPoint: "top" 160 658 basechar 0
LayerCount: 2
Fore
SplineSet
344 0 m 257
 302 0 l 257
 160 1 117 42 117 173 c 258
 117 441 l 257
 21 441 l 257
 21 501 l 257
 119 501 l 257
 119 630 l 257
 207 656 l 257
 207 501 l 257
 343 501 l 257
 343 441 l 257
 207 441 l 257
 207 168 l 258
 207 82 231 70 344 70 c 257
 344 0 l 257
EndSplineSet
EndChar

StartChar: thorn
Encoding: 254 254 427
Width: 603
VWidth: 0
Flags: HW
PickledData: "(dp1
S'org.robofab.postScriptHintData'
p2
(dp3
sS'com.typemytype.robofont.layerData'
p4
(dp5
s."
LayerCount: 2
Fore
SplineSet
312 62 m 256
 412 62 459 148 459 253 c 256
 459 355 418 439 314 439 c 256
 201 439 164 345 164 243 c 256
 164 138 215 62 312 62 c 256
75 -205 m 257
 75 712 l 257
 165 712 l 257
 165 429 l 257
 195 482 257 513 325 513 c 256
 478 513 555 400 555 255 c 256
 555 111 478 -11 325 -11 c 256
 260 -11 197 15 165 67 c 257
 165 -205 l 257
 75 -205 l 257
EndSplineSet
EndChar

StartChar: three
Encoding: 51 51 428
Width: 601
VWidth: 0
Flags: HW
PickledData: "(dp1
S'org.robofab.postScriptHintData'
p2
(dp3
sS'com.typemytype.robofont.layerData'
p4
(dp5
S'b'
(dp6
S'name'
p7
S'three'
p8
sS'lib'
p9
(dp10
sS'unicodes'
p11
(tsS'width'
p12
F1234.0999999999999
sS'contours'
p13
((dp14
S'points'
p15
((dp16
S'segmentType'
p17
S'curve'
p18
sS'x'
F344
sS'smooth'
p19
I01
sS'y'
F1010
s(dp20
S'y'
F827
sS'x'
F344
sg19
I00
s(dp21
S'y'
F687
sS'x'
F423
sg19
I00
s(dp22
g17
S'curve'
p23
sS'x'
F634
sg19
I01
sS'y'
F687
s(dp24
S'y'
F687
sS'x'
F814
sg19
I00
s(dp25
S'y'
F803
sS'x'
F938
sg19
I00
s(dp26
g17
S'curve'
p27
sS'x'
F938
sg19
I01
sS'y'
F991
s(dp28
S'y'
F1166
sS'x'
F938
sg19
I00
s(dp29
S'y'
F1334
sS'x'
F845
sg19
I00
s(dp30
g17
S'curve'
p31
sS'x'
F635
sg19
I01
sS'y'
F1334
s(dp32
S'y'
F1334
sS'x'
F449
sg19
I00
s(dp33
S'y'
F1196
sS'x'
F344
sg19
I00
stp34
s(dp35
g15
((dp36
g17
S'curve'
p37
sS'x'
F594
sg19
I01
sS'y'
F-24
s(dp38
S'y'
F-24
sS'x'
F473
sg19
I00
s(dp39
S'y'
F-1
sS'x'
F367
sg19
I00
s(dp40
g17
S'curve'
p41
sS'x'
F238
sg19
I00
sS'y'
F65
s(dp42
g17
S'line'
p43
sS'x'
F287
sg19
I00
sS'y'
F197
s(dp44
S'y'
F138
sS'x'
F401
sg19
I00
s(dp45
S'y'
F124
sS'x'
F489
sg19
I00
s(dp46
g17
S'curve'
p47
sS'x'
F581
sg19
I01
sS'y'
F124
s(dp48
S'y'
F124
sS'x'
F812
sg19
I00
s(dp49
S'y'
F308
sS'x'
F950
sg19
I00
s(dp50
g17
S'curve'
p51
sS'x'
F950
sg19
I01
sS'y'
F657
s(dp52
g17
S'line'
p53
sS'x'
F950
sg19
I00
sS'y'
F722
s(dp54
S'y'
F600
sS'x'
F886
sg19
I00
s(dp55
S'y'
F544
sS'x'
F772
sg19
I00
s(dp56
g17
S'curve'
p57
sS'x'
F607
sg19
I01
sS'y'
F544
s(dp58
S'y'
F544
sS'x'
F328
sg19
I00
s(dp59
S'y'
F735
sS'x'
F168
sg19
I00
s(dp60
g17
S'curve'
p61
sS'x'
F168
sg19
I01
sS'y'
F1004
s(dp62
S'y'
F1275
sS'x'
F168
sg19
I00
s(dp63
S'y'
F1483
sS'x'
F341
sg19
I00
s(dp64
g17
S'curve'
p65
sS'x'
F643
sg19
I01
sS'y'
F1483
s(dp66
S'y'
F1483
sS'x'
F969
sg19
I00
s(dp67
S'y'
F1231
sS'x'
F1125
sg19
I00
s(dp68
g17
S'curve'
p69
sS'x'
F1125
sg19
I01
sS'y'
F774
s(dp70
S'y'
F203
sS'x'
F1125
sg19
I00
s(dp71
S'y'
F-24
sS'x'
F894
sg19
I00
stp72
stp73
sS'components'
p74
(tsS'anchors'
p75
(tsss."
LayerCount: 2
Fore
SplineSet
284 -11 m 256
 174 -11 98 33 87 40 c 257
 113 111 l 257
 134 101 204 68 276 68 c 256
 371 68 432 118 432 200 c 256
 432 290 361 334 246 334 c 256
 245 334 243 333 242 333 c 258
 205 333 l 257
 204 413 l 257
 240 413 l 258
 356 413 415 447 415 541 c 256
 415 610 349 645 274 645 c 256
 196 645 140 612 108 581 c 257
 65 643 l 257
 119 696 186 724 285 724 c 256
 402 724 507 661 507 542 c 256
 507 464 463 394 375 375 c 257
 469 357 524 287 524 197 c 256
 524 68 419 -11 284 -11 c 256
EndSplineSet
EndChar

StartChar: threequarters
Encoding: 190 190 429
Width: 1038
VWidth: 0
Flags: HW
PickledData: "(dp1
S'org.robofab.postScriptHintData'
p2
(dp3
sS'com.typemytype.robofont.layerData'
p4
(dp5
s."
LayerCount: 2
Fore
SplineSet
629 146 m 257
 749 146 l 257
 749 314 l 257
 629 146 l 257
258 0 m 257
 699 711 l 257
 776 711 l 257
 337 0 l 257
 258 0 l 257
750 0 m 257
 750 93 l 257
 565 93 l 257
 565 139 l 257
 745 391 l 257
 816 391 l 257
 816 146 l 257
 870 146 l 257
 870 93 l 257
 815 93 l 257
 815 0 l 257
 750 0 l 257
231 294 m 256
 183 294 136 310 101 340 c 257
 129 387 l 257
 162 362 197 349 228 349 c 256
 273 349 305 378 305 419 c 256
 305 460 271 483 213 483 c 258
 174 483 l 257
 174 537 l 257
 211 537 l 258
 261 537 294 561 294 598 c 256
 294 636 267 659 226 659 c 256
 193 659 158 646 127 622 c 257
 100 665 l 257
 135 694 185 712 233 712 c 256
 304 712 363 675 363 604 c 256
 363 568 341 533 292 516 c 257
 347 500 374 461 374 418 c 256
 374 337 309 294 231 294 c 256
EndSplineSet
EndChar

StartChar: uni00B3
Encoding: 179 179 430
Width: 519
VWidth: 0
Flags: HW
PickledData: "(dp1
S'org.robofab.postScriptHintData'
p2
(dp3
sS'com.typemytype.robofont.layerData'
p4
(dp5
s."
LayerCount: 2
Fore
SplineSet
264 293 m 256
 216 293 167 310 134 340 c 257
 162 387 l 257
 192 362 229 349 260 349 c 256
 306 349 338 375 338 417 c 256
 338 460 303 483 242 483 c 258
 206 483 l 257
 206 538 l 257
 239 538 l 258
 292 538 327 557 327 597 c 256
 327 636 301 655 260 655 c 256
 226 655 190 642 161 618 c 257
 134 663 l 257
 166 693 216 711 264 711 c 256
 335 711 393 672 393 601 c 256
 393 564 374 527 320 513 c 257
 376 499 403 461 403 416 c 256
 403 338 342 293 264 293 c 256
EndSplineSet
EndChar

StartChar: tilde
Encoding: 732 732 431
Width: 325
VWidth: 0
Flags: HW
PickledData: "(dp1
S'org.robofab.postScriptHintData'
p2
(dp3
sS'com.typemytype.robofont.layerData'
p4
(dp5
S'b'
(dp6
S'name'
p7
S'tilde'
p8
sS'lib'
p9
(dp10
sS'unicodes'
p11
(tsS'width'
p12
F672.35000000000002
sS'contours'
p13
(tsS'components'
p14
(tsS'anchors'
p15
(tsss."
AnchorPoint: "top" 162 501 mark 0
LayerCount: 2
Fore
SplineSet
238 574 m 256
 193 574 130 623 95 623 c 256
 75 623 64 609 61 578 c 257
 3 578 l 257
 3 646 37 691 91 691 c 256
 142 691 200 642 234 642 c 256
 254 642 262 654 263 690 c 257
 322 690 l 257
 322 618 293 574 238 574 c 256
EndSplineSet
EndChar

StartChar: trademark
Encoding: 8482 8482 432
Width: 912
VWidth: 0
Flags: HW
PickledData: "(dp1
S'org.robofab.postScriptHintData'
p2
(dp3
sS'com.typemytype.robofont.layerData'
p4
(dp5
S'b'
(dp6
S'name'
p7
S'trademark'
p8
sS'lib'
p9
(dp10
sS'unicodes'
p11
(tsS'width'
p12
F1869
sS'contours'
p13
(tsS'components'
p14
(tsS'anchors'
p15
(tsss."
LayerCount: 2
Fore
SplineSet
157 337 m 257
 157 655 l 257
 35 655 l 257
 35 713 l 257
 346 713 l 257
 346 655 l 257
 225 655 l 257
 225 337 l 257
 157 337 l 257
404 337 m 257
 404 713 l 257
 483 713 l 257
 610 428 l 257
 741 713 l 257
 816 713 l 257
 816 337 l 257
 755 337 l 257
 755 617 l 257
 630 337 l 257
 587 337 l 257
 464 615 l 257
 464 337 l 257
 404 337 l 257
EndSplineSet
EndChar

StartChar: two
Encoding: 50 50 433
Width: 604
VWidth: 0
Flags: HW
PickledData: "(dp1
S'org.robofab.postScriptHintData'
p2
(dp3
sS'com.typemytype.robofont.layerData'
p4
(dp5
S'b'
(dp6
S'name'
p7
S'two'
p8
sS'lib'
p9
(dp10
sS'unicodes'
p11
(tsS'width'
p12
F1244.5
sS'contours'
p13
(tsS'components'
p14
(tsS'anchors'
p15
(tsss."
LayerCount: 2
Fore
SplineSet
292 724 m 256
 426 724 512 636 512 511 c 256
 512 413 459 337 372 245 c 258
 214 77 l 257
 509 77 l 257
 509 0 l 257
 102 0 l 257
 102 73 l 257
 318 303 l 258
 392 382 421 438 421 503 c 256
 421 588 375 645 287 645 c 256
 198 645 122 591 110 585 c 257
 80 658 l 257
 92 665 174 724 292 724 c 256
EndSplineSet
EndChar

StartChar: uni00B2
Encoding: 178 178 434
Width: 543
VWidth: 0
Flags: HW
PickledData: "(dp1
S'org.robofab.postScriptHintData'
p2
(dp3
sS'com.typemytype.robofont.layerData'
p4
(dp5
s."
LayerCount: 2
Fore
SplineSet
151 302 m 257
 151 351 l 257
 285 481 l 258
 335 529 354 565 354 598 c 256
 354 631 330 652 287 652 c 256
 248 652 212 632 191 592 c 257
 153 632 l 257
 178 682 230 711 291 711 c 256
 367 711 421 669 421 599 c 256
 421 543 383 493 323 437 c 258
 236 355 l 257
 419 355 l 257
 419 302 l 257
 151 302 l 257
EndSplineSet
EndChar

StartChar: u
Encoding: 117 117 435
Width: 602
VWidth: 0
Flags: HW
PickledData: "(dp1
S'org.robofab.postScriptHintData'
p2
(dp3
sS'com.typemytype.robofont.layerData'
p4
(dp5
S'b'
(dp6
S'name'
p7
S'u'
sS'lib'
p8
(dp9
sS'unicodes'
p10
(tsS'width'
p11
F1227.2
sS'contours'
p12
(tsS'components'
p13
(tsS'anchors'
p14
(tsss."
AnchorPoint: "top" 297 501 basechar 0
LayerCount: 2
Fore
SplineSet
271 -11 m 256
 138 -11 78 73 78 191 c 258
 78 501 l 257
 167 501 l 257
 167 191 l 258
 167 104 210 62 286 62 c 256
 376 62 426 120 426 197 c 258
 426 501 l 257
 516 501 l 257
 516 124 l 258
 516 85 520 19 521 0 c 257
 429 0 l 257
 427 81 l 257
 404 38 355 -11 271 -11 c 256
EndSplineSet
EndChar

StartChar: underscore
Encoding: 95 95 446
Width: 459
VWidth: 0
Flags: HW
PickledData: "(dp1
S'org.robofab.postScriptHintData'
p2
(dp3
sS'com.typemytype.robofont.layerData'
p4
(dp5
s."
LayerCount: 2
Fore
SplineSet
-2 -131 m 257
 -2 -60 l 257
 462 -60 l 257
 462 -131 l 257
 -2 -131 l 257
EndSplineSet
EndChar

StartChar: uni0307
Encoding: 775 775 459
Width: 255
VWidth: 0
Flags: HW
PickledData: "(dp1
S'org.robofab.postScriptHintData'
p2
(dp3
s."
AnchorPoint: "top" 127 501 mark 0
LayerCount: 2
Fore
SplineSet
83 619 m 257
 83 707 l 257
 172 707 l 257
 172 619 l 257
 83 619 l 257
EndSplineSet
EndChar

StartChar: uni030F
Encoding: 783 783 460
Width: 473
VWidth: 0
Flags: HW
PickledData: "(dp1
S'org.robofab.postScriptHintData'
p2
(dp3
s."
AnchorPoint: "top" 289 501 mark 0
LayerCount: 2
Fore
SplineSet
351 573 m 257
 212 765 l 257
 300 765 l 257
 410 573 l 257
 351 573 l 257
184 573 m 257
 33 765 l 257
 121 765 l 257
 244 573 l 257
 184 573 l 257
EndSplineSet
EndChar

StartChar: uni0311
Encoding: 785 785 461
Width: 300
VWidth: 0
Flags: HW
PickledData: "(dp1
S'org.robofab.postScriptHintData'
p2
(dp3
sS'com.typemytype.robofont.layerData'
p4
(dp5
s."
AnchorPoint: "top" 154 501 mark 0
LayerCount: 2
Fore
SplineSet
149 703 m 256
 232 703 279 664 285 576 c 257
 221 576 l 257
 218 624 190 639 149 639 c 256
 108 639 84 622 79 576 c 257
 16 576 l 257
 22 663 68 703 149 703 c 256
EndSplineSet
EndChar

StartChar: uni0312
Encoding: 786 786 462
Width: 292
VWidth: 0
Flags: HW
PickledData: "(dp1
S'org.robofab.postScriptHintData'
p2
(dp3
s."
AnchorPoint: "top" 142 501 mark 0
LayerCount: 2
Fore
SplineSet
245 821 m 257
 192 582 l 257
 90 582 l 257
 171 821 l 257
 245 821 l 257
EndSplineSet
EndChar

StartChar: uni0326
Encoding: 806 806 463
Width: 263
VWidth: 0
Flags: HW
PickledData: "(dp1
S'org.robofab.postScriptHintData'
p2
(dp3
s."
LayerCount: 2
Fore
SplineSet
54 -296 m 257
 107 -65 l 257
 209 -65 l 257
 127 -296 l 257
 54 -296 l 257
EndSplineSet
EndChar

StartChar: afii00208
Encoding: 8213 8213 464
Width: 2000
VWidth: 0
Flags: HW
PickledData: "(dp1
S'org.robofab.postScriptHintData'
p2
(dp3
s."
LayerCount: 2
Fore
SplineSet
30 234 m 257
 30 308 l 257
 1970 308 l 257
 1970 234 l 257
 30 234 l 257
EndSplineSet
EndChar

StartChar: v
Encoding: 118 118 469
Width: 515
VWidth: 0
Flags: HW
PickledData: "(dp1
S'org.robofab.postScriptHintData'
p2
(dp3
sS'com.typemytype.robofont.layerData'
p4
(dp5
S'b'
(dp6
S'name'
p7
S'v'
sS'lib'
p8
(dp9
sS'unicodes'
p10
(tsS'width'
p11
F1056.8
sS'contours'
p12
(tsS'components'
p13
(tsS'anchors'
p14
(tsss."
LayerCount: 2
Fore
SplineSet
215 0 m 257
 5 501 l 257
 104 501 l 257
 157 365 211 231 262 93 c 257
 309 233 364 365 415 501 c 257
 511 501 l 257
 301 0 l 257
 215 0 l 257
EndSplineSet
EndChar

StartChar: w
Encoding: 119 119 470
Width: 798
VWidth: 0
Flags: HW
PickledData: "(dp1
S'org.robofab.postScriptHintData'
p2
(dp3
sS'com.typemytype.robofont.layerData'
p4
(dp5
S'b'
(dp6
S'name'
p7
S'w'
sS'lib'
p8
(dp9
sS'unicodes'
p10
(tsS'width'
p11
F1634.0999999999999
sS'contours'
p12
(tsS'components'
p13
(tsS'anchors'
p14
(tsss."
AnchorPoint: "top" 410 501 basechar 0
LayerCount: 2
Fore
SplineSet
182 0 m 257
 15 501 l 257
 111 501 l 257
 151 369 190 236 231 105 c 257
 275 237 320 369 364 501 c 257
 452 501 l 257
 495 369 538 237 581 105 c 257
 620 236 657 369 696 501 c 257
 784 501 l 257
 617 0 l 257
 533 0 l 257
 490 131 445 261 403 392 c 257
 358 260 312 131 266 0 c 257
 182 0 l 257
EndSplineSet
EndChar

StartChar: x
Encoding: 120 120 475
Width: 520
VWidth: 0
Flags: HW
PickledData: "(dp1
S'org.robofab.postScriptHintData'
p2
(dp3
sS'com.fontlab.hintData'
p4
(dp5
S'hhints'
p6
((dp7
S'position'
p8
I0
sS'width'
p9
I21
s(dp10
g8
I1006
sg9
I20
stp11
ssS'com.typemytype.robofont.layerData'
p12
(dp13
S'b'
(dp14
S'name'
p15
S'x'
sS'lib'
p16
(dp17
sS'unicodes'
p18
(tsg9
F1062.8499999999999
sS'contours'
p19
(tsS'components'
p20
(tsS'anchors'
p21
(tsss."
HStem: 0 10<22 22 22 117 400 400 400 498> 491 10<131 131 399 494 494 494>
LayerCount: 2
Fore
SplineSet
22 0 m 257
 212 250 l 257
 33 501 l 257
 131 501 l 257
 260 315 l 257
 399 501 l 257
 494 501 l 257
 311 256 l 257
 498 0 l 257
 400 0 l 257
 261 191 l 257
 117 0 l 257
 22 0 l 257
EndSplineSet
EndChar

StartChar: y
Encoding: 121 121 476
Width: 520
VWidth: 0
Flags: HW
PickledData: "(dp1
S'org.robofab.postScriptHintData'
p2
(dp3
sS'com.typemytype.robofont.layerData'
p4
(dp5
S'b'
(dp6
S'name'
p7
S'y'
sS'lib'
p8
(dp9
sS'unicodes'
p10
(tsS'width'
p11
F1065.05
sS'contours'
p12
(tsS'components'
p13
(tsS'anchors'
p14
(tsss."
AnchorPoint: "top" 269 501 basechar 0
LayerCount: 2
Fore
SplineSet
102 -211 m 257
 65 -150 l 257
 160 -118 200 -69 216 -21 c 258
 225 4 l 257
 20 501 l 257
 114 501 l 257
 269 101 l 257
 414 501 l 257
 504 501 l 257
 302 -26 l 257
 267 -119 197 -188 102 -211 c 257
EndSplineSet
EndChar

StartChar: yen
Encoding: 165 165 480
Width: 596
VWidth: 0
Flags: HW
PickledData: "(dp1
S'org.robofab.postScriptHintData'
p2
(dp3
sS'com.typemytype.robofont.layerData'
p4
(dp5
S'b'
(dp6
S'name'
p7
S'yen'
p8
sS'lib'
p9
(dp10
sS'unicodes'
p11
(tsS'width'
p12
F1225.45
sS'contours'
p13
(tsS'components'
p14
(tsS'anchors'
p15
(tsss."
LayerCount: 2
Fore
SplineSet
87 137 m 257
 87 194 l 257
 249 194 l 257
 249 272 l 257
 87 272 l 257
 87 331 l 257
 220 331 l 257
 4 711 l 257
 107 711 l 257
 297 363 l 257
 488 711 l 257
 592 711 l 257
 371 331 l 257
 504 331 l 257
 504 272 l 257
 342 272 l 257
 342 194 l 257
 504 194 l 257
 504 137 l 257
 342 137 l 257
 342 0 l 257
 249 0 l 257
 249 137 l 257
 87 137 l 257
EndSplineSet
EndChar

StartChar: z
Encoding: 122 122 484
Width: 473
VWidth: 0
Flags: HW
PickledData: "(dp1
S'org.robofab.postScriptHintData'
p2
(dp3
sS'com.typemytype.robofont.layerData'
p4
(dp5
S'b'
(dp6
S'name'
p7
S'z'
sS'lib'
p8
(dp9
sS'unicodes'
p10
(tsS'width'
p11
F971.85000000000002
sS'contours'
p12
(tsS'components'
p13
(tsS'anchors'
p14
(tsss."
AnchorPoint: "top" 247 501 basechar 0
LayerCount: 2
Fore
SplineSet
51 0 m 257
 51 49 l 257
 312 428 l 257
 59 428 l 257
 59 501 l 257
 428 501 l 257
 428 453 l 257
 167 72 l 257
 436 72 l 257
 436 0 l 257
 51 0 l 257
EndSplineSet
EndChar

StartChar: zero
Encoding: 48 48 488
Width: 601
VWidth: 0
Flags: HW
PickledData: "(dp1
S'org.robofab.postScriptHintData'
p2
(dp3
sS'com.typemytype.robofont.layerData'
p4
(dp5
s."
LayerCount: 2
Fore
SplineSet
303 -11 m 256
 144 -11 61 135 61 357 c 256
 61 588 143 724 303 724 c 256
 462 724 541 585 541 357 c 256
 541 135 463 -11 303 -11 c 256
304 68 m 256
 407 68 444 186 444 357 c 256
 444 522 407 645 304 645 c 256
 198 645 156 522 156 357 c 256
 156 186 198 68 304 68 c 256
EndSplineSet
EndChar

StartChar: emptyset
Encoding: 8709 8709 493
Width: 819
VWidth: 0
Flags: HW
LayerCount: 2
Fore
SplineSet
55 358 m 256
 55 562 224 719 406 719 c 256
 491 719 574 685 637 628 c 257
 723 725 l 257
 741 711 l 257
 653 612 l 257
 716 548 758 459 758 358 c 256
 758 154 588 -3 406 -3 c 256
 323 -3 243 29 180 84 c 257
 86 -21 l 257
 71 -7 l 257
 165 99 l 257
 99 164 55 255 55 358 c 256
194 100 m 257
 253 49 328 18 406 18 c 256
 577 18 737 167 737 358 c 256
 737 452 699 536 639 597 c 257
 194 100 l 257
179 114 m 257
 623 612 l 257
 563 666 486 698 406 698 c 256
 235 698 76 549 76 358 c 256
 76 261 117 175 179 114 c 257
EndSplineSet
EndChar

StartChar: Sigma
Encoding: 931 931 494
Width: 519
VWidth: 0
Flags: HW
LayerCount: 2
Fore
SplineSet
42 711 m 257
 42 659 l 257
 278 304 l 257
 32 -47 l 257
 32 -97 l 257
 506 -97 l 257
 506 -18 l 257
 151 -18 l 257
 382 302 l 257
 161 636 l 257
 484 636 l 257
 484 711 l 257
 42 711 l 257
EndSplineSet
EndChar

StartChar: uni0358
Encoding: 856 856 495
Width: 255
VWidth: 0
Flags: HW
AnchorPoint: "top" 127 501 mark 0
LayerCount: 2
Fore
SplineSet
83 619 m 257
 83 707 l 257
 172 707 l 257
 172 619 l 257
 83 619 l 257
EndSplineSet
EndChar

StartChar: uni02C9
Encoding: 713 713 496
Width: 292
VWidth: 0
Flags: HW
AnchorPoint: "top" 150 521 mark 0
LayerCount: 2
Fore
SplineSet
-4 643 m 257
 294 643 l 257
 294 707 l 257
 -4 707 l 257
 -4 643 l 257
EndSplineSet
EndChar

